999
dxflib 3.26.4.0
  0
SECTION
  2
HEADER
  9
$ACADVER
  1
AC1015
  9
$HANDSEED
  5
FFFF
  9
$ANGBASE
 50
0.0
  9
$ANGDIR
 70
0
  9
$ATTMODE
 70
1
  9
$AUNITS
 70
0
  9
$AUPREC
 70
2
  9
$CECOLOR
 62
256
  9
$CELTSCALE
 40
1.0
  9
$CHAMFERA
 40
0.0
  9
$CHAMFERB
 40
0.0
  9
$CHAMFERC
 40
0.0
  9
$CHAMFERD
 40
0.0
  9
$CMLJUST
 70
0
  9
$CMLSCALE
 40
20.0
  9
$DIMADEC
 70
0
  9
$DIMALT
 70
0
  9
$DIMALTD
 70
3
  9
$DIMALTF
 40
0.03937007874
  9
$DIMALTRND
 40
0.0
  9
$DIMALTTD
 70
3
  9
$DIMALTTZ
 70
0
  9
$DIMALTU
 70
2
  9
$DIMALTZ
 70
0
  9
$DIMAPOST
  1

  9
$DIMASZ
 40
0.175
  9
$DIMATFIT
 70
3
  9
$DIMAUNIT
 70
0
  9
$DIMAZIN
 70
3
  9
$DIMBLK
  1
0
  9
$DIMBLK1
  1
0
  9
$DIMBLK2
  1
0
  9
$DIMCEN
 40
2.5
  9
$DIMCLRD
 70
0
  9
$DIMCLRE
 70
0
  9
$DIMDEC
 70
2
  9
$DIMDLE
 40
0.0
  9
$DIMDLI
 40
3.75
  9
$DIMDSEP
 70
0
  9
$DIMEXE
 40
0.375
  9
$DIMEXO
 40
0.125
  9
$DIMFRAC
 70
0
  9
$DIMGAP
 40
0.1
  9
$DIMJUST
 70
0
  9
$DIMLDRBLK
  1

  9
$DIMLFAC
 40
100.0
  9
$DIMLIM
 70
0
  9
$DIMLUNIT
 70
2
  9
$DIMLWD
 70
-2
  9
$DIMLWE
 70
-2
  9
$DIMPOST
  1

  9
$DIMRND
 40
0.0
  9
$DIMSAH
 70
0
  9
$DIMSCALE
 40
1.0
  9
$DIMSD1
 70
0
  9
$DIMSD2
 70
0
  9
$DIMSE1
 70
0
  9
$DIMSE2
 70
0
  9
$DIMSOXD
 70
0
  9
$DIMTAD
 70
1
  9
$DIMTDEC
 70
2
  9
$DIMTFAC
 40
0.5
  9
$DIMTIH
 70
0
  9
$DIMTIX
 70
0
  9
$DIMTM
 40
0.0
  9
$DIMTOFL
 70
1
  9
$DIMTOH
 70
0
  9
$DIMTOL
 70
0
  9
$DIMTOLJ
 70
0
  9
$DIMTP
 40
0.0
  9
$DIMTSZ
 40
0.0
  9
$DIMTVP
 40
0.0
  9
$DIMTXSTY
  7
standard
  9
$DIMTXT
 40
0.25
  9
$DIMTZIN
 70
8
  9
$DIMUPT
 70
1
  9
$DIMZIN
 70
12
  9
$DISPSILH
 70
0
  9
$DWGCODEPAGE
  3
ANSI_1252
  9
$ELEVATION
 40
0.0
  9
$FILLETRAD
 40
10.0
  9
$FILLMODE
 70
1
  9
$INSUNITS
 70
6
  9
$LIMCHECK
 70
0
  9
$LTSCALE
 40
1.0
  9
$LUNITS
 70
2
  9
$LUPREC
 70
4
  9
$MAXACTVP
 70
64
  9
$MEASUREMENT
 70
1
  9
$MIRRTEXT
 70
1
  9
$ORTHOMODE
 70
0
  9
$PDMODE
 70
0
  9
$PDSIZE
 40
0.0
  9
$PELEVATION
 40
0.0
  9
$PLIMCHECK
 70
0
  9
$PLINEGEN
 70
0
  9
$PLINEWID
 40
0.0
  9
$PROXYGRAPHICS
 70
1
  9
$PSLTSCALE
 70
1
  9
$PUCSNAME
  2

  9
$QTEXTMODE
 70
0
  9
$REGENMODE
 70
1
  9
$SHADEDGE
 70
3
  9
$SHADEDIF
 70
70
  9
$SKETCHINC
 40
1.0
  9
$SKPOLY
 70
0
  9
$SPLFRAME
 70
0
  9
$SPLINESEGS
 70
8
  9
$SPLINETYPE
 70
6
  9
$SURFTAB1
 70
6
  9
$SURFTAB2
 70
6
  9
$SURFTYPE
 70
6
  9
$SURFU
 70
6
  9
$SURFV
 70
6
  9
$TEXTSIZE
 40
2.5
  9
$TEXTSTYLE
  7
OpenSans
  9
$THICKNESS
 40
0.0
  9
$TILEMODE
 70
1
  9
$TRACEWID
 40
1.0
  9
$TREEDEPTH
 70
3020
  9
$UCSNAME
  2

  9
$UNITMODE
 70
0
  9
$USERI1
 70
0
  9
$USERI2
 70
0
  9
$USERI3
 70
0
  9
$USERI4
 70
0
  9
$USERI5
 70
0
  9
$USERR1
 40
0.0
  9
$USERR2
 40
0.0
  9
$USERR3
 40
0.0
  9
$USERR4
 40
0.0
  9
$USERR5
 40
0.0
  9
$USRTIMER
 70
1
  9
$VISRETAIN
 70
1
  0
ENDSEC
  0
SECTION
  2
TABLES
  0
TABLE
  2
VPORT
  5
8
100
AcDbSymbolTable
 70
1
  0
VPORT
  5
30
100
AcDbSymbolTableRecord
100
AcDbViewportTableRecord
  2
*Active
 70
0
 10
0.0
 20
0.0
 11
1.0
 21
1.0
 12
286.3055555555554861
 22
148.5
 13
0.0
 23
0.0
 14
10.0
 24
10.0
 15
10.0
 25
10.0
 16
0.0
 26
0.0
 36
1.0
 17
0.0
 27
0.0
 37
0.0
 40
297.0
 41
1.92798353909465
 42
50.0
 43
0.0
 44
0.0
 50
0.0
 51
0.0
 71
0
 72
100
 73
1
 74
3
 75
1
 76
1
 77
0
 78
0
281
0
 65
1
110
0.0
120
0.0
130
0.0
111
1.0
121
0.0
131
0.0
112
0.0
122
1.0
132
0.0
 79
0
146
0.0
  0
ENDTAB
  0
TABLE
  2
LTYPE
  5
5
100
AcDbSymbolTable
 70
47
  0
LTYPE
  5
16
100
AcDbSymbolTableRecord
100
AcDbLinetypeTableRecord
  2
Continuous
 70
0
  3
Solid line
 72
65
 73
0
 40
0.0
  0
LTYPE
  5
31
100
AcDbSymbolTableRecord
100
AcDbLinetypeTableRecord
  2
DASHDOTX2
 70
0
  3
Dash dot (2x) ____  .  ____  .  ____  .  ___
 72
65
 73
4
 40
50.7999999999999972
 49
25.3999999999999986
 74
0
 49
-12.6499999999999986
 74
0
 49
0.1
 74
0
 49
-12.6499999999999986
 74
0
  0
LTYPE
  5
32
100
AcDbSymbolTableRecord
100
AcDbLinetypeTableRecord
  2
DIVIDE2
 70
0
  3
Divide (.5x) __..__..__..__..__..__..__..__.._
 72
65
 73
6
 40
15.8749999999999982
 49
6.3499999999999996
 74
0
 49
-3.125
 74
0
 49
0.1
 74
0
 49
-3.0750000000000002
 74
0
 49
0.1
 74
0
 49
-3.125
 74
0
  0
LTYPE
  5
33
100
AcDbSymbolTableRecord
100
AcDbLinetypeTableRecord
  2
DOTX2
 70
0
  3
Dot (2x) .  .  .  .  .  .  .  .  .  .  .  .  .
 72
65
 73
2
 40
12.6999999999999993
 49
0.1
 74
0
 49
-12.5999999999999996
 74
0
  0
LTYPE
  5
34
100
AcDbSymbolTableRecord
100
AcDbLinetypeTableRecord
  2
HIDDEN2
 70
0
  3
Hidden (.5x) _ _ _ _ _ _ _ _ _ _ _ _ _ _ _ _ _ 
 72
65
 73
2
 40
4.7624999999999993
 49
3.1749999999999998
 74
0
 49
-1.5874999999999999
 74
0
  0
LTYPE
  5
35
100
AcDbSymbolTableRecord
100
AcDbLinetypeTableRecord
  2
ACAD_ISO14W100
 70
0
  3
ISO dash triple-dot __ . . . __ . . . __ . . . _
 72
65
 73
8
 40
24.0
 49
12.0
 74
0
 49
-3.0
 74
0
 49
0.0
 74
0
 49
-3.0
 74
0
 49
0.0
 74
0
 49
-3.0
 74
0
 49
0.0
 74
0
 49
-3.0
 74
0
  0
LTYPE
  5
36
100
AcDbSymbolTableRecord
100
AcDbLinetypeTableRecord
  2
ACAD_ISO10W100
 70
0
  3
ISO dash dot __ . __ . __ . __ . __ . __ . __ . 
 72
65
 73
4
 40
18.0
 49
12.0
 74
0
 49
-3.0
 74
0
 49
0.0
 74
0
 49
-3.0
 74
0
  0
LTYPE
  5
37
100
AcDbSymbolTableRecord
100
AcDbLinetypeTableRecord
  2
ACAD_ISO02W100
 70
0
  3
ISO dash __ __ __ __ __ __ __ __ __ __ __ __ __
 72
65
 73
2
 40
15.0
 49
12.0
 74
0
 49
-3.0
 74
0
  0
LTYPE
  5
38
100
AcDbSymbolTableRecord
100
AcDbLinetypeTableRecord
  2
DASHEDTINY
 70
0
  3
Dashed (.15x) _ _ _ _ _ _ _ _ _ _ _ _ _ _ _ _ _
 72
65
 73
2
 40
2.8574999999999999
 49
1.905
 74
0
 49
-0.9525
 74
0
  0
LTYPE
  5
39
100
AcDbSymbolTableRecord
100
AcDbLinetypeTableRecord
  2
BORDER
 70
0
  3
Border __ __ . __ __ . __ __ . __ __ . __ __ .
 72
65
 73
6
 40
44.4499999999999957
 49
12.6999999999999993
 74
0
 49
-6.3499999999999996
 74
0
 49
12.6999999999999993
 74
0
 49
-6.2999999999999998
 74
0
 49
0.1
 74
0
 49
-6.2999999999999998
 74
0
  0
LTYPE
  5
3A
100
AcDbSymbolTableRecord
100
AcDbLinetypeTableRecord
  2
ACAD_ISO09W100
 70
0
  3
ISO long-dash double-short-dash ____ __ __ ____
 72
65
 73
6
 40
45.0
 49
24.0
 74
0
 49
-3.0
 74
0
 49
6.0
 74
0
 49
-3.0
 74
0
 49
6.0
 74
0
 49
-3.0
 74
0
  0
LTYPE
  5
3B
100
AcDbSymbolTableRecord
100
AcDbLinetypeTableRecord
  2
ACAD_ISO08W100
 70
0
  3
ISO long-dash short-dash ____ __ ____ __ ____ _
 72
65
 73
4
 40
36.0
 49
24.0
 74
0
 49
-3.0
 74
0
 49
6.0
 74
0
 49
-3.0
 74
0
  0
LTYPE
  5
3C
100
AcDbSymbolTableRecord
100
AcDbLinetypeTableRecord
  2
DASHDOT
 70
0
  3
Dash dot __ . __ . __ . __ . __ . __ . __ . __
 72
65
 73
4
 40
25.4000000000000021
 49
12.6999999999999993
 74
0
 49
-6.2999999999999998
 74
0
 49
0.1
 74
0
 49
-6.2999999999999998
 74
0
  0
LTYPE
  5
3D
100
AcDbSymbolTableRecord
100
AcDbLinetypeTableRecord
  2
HIDDENX2
 70
0
  3
Hidden (2x) ____ ____ ____ ____ ____ ____ ____ 
 72
65
 73
2
 40
19.0499999999999972
 49
12.6999999999999993
 74
0
 49
-6.3499999999999996
 74
0
  0
LTYPE
  5
3E
100
AcDbSymbolTableRecord
100
AcDbLinetypeTableRecord
  2
PHANTOM
 70
0
  3
Phantom ______  __  __  ______  __  __  ______ 
 72
65
 73
6
 40
63.5000000000000071
 49
31.75
 74
0
 49
-6.3499999999999996
 74
0
 49
6.3499999999999996
 74
0
 49
-6.3499999999999996
 74
0
 49
6.3499999999999996
 74
0
 49
-6.3499999999999996
 74
0
  0
LTYPE
  5
3F
100
AcDbSymbolTableRecord
100
AcDbLinetypeTableRecord
  2
ACAD_ISO07W100
 70
0
  3
ISO dot . . . . . . . . . . . . . . . . . . . . 
 72
65
 73
2
 40
3.0
 49
0.0
 74
0
 49
-3.0
 74
0
  0
LTYPE
  5
40
100
AcDbSymbolTableRecord
100
AcDbLinetypeTableRecord
  2
PHANTOMX2
 70
0
  3
Phantom (2x) ____________    ____    ____   _
 72
65
 73
6
 40
127.0000000000000142
 49
63.5
 74
0
 49
-12.6999999999999993
 74
0
 49
12.6999999999999993
 74
0
 49
-12.6999999999999993
 74
0
 49
12.6999999999999993
 74
0
 49
-12.6999999999999993
 74
0
  0
LTYPE
  5
41
100
AcDbSymbolTableRecord
100
AcDbLinetypeTableRecord
  2
DASHED
 70
0
  3
Dashed _ _ _ _ _ _ _ _ _ _ _ _ _ _ _ _ _
 72
65
 73
2
 40
19.0499999999999972
 49
12.6999999999999993
 74
0
 49
-6.3499999999999996
 74
0
  0
LTYPE
  5
42
100
AcDbSymbolTableRecord
100
AcDbLinetypeTableRecord
  2
CENTER
 70
0
  3
Center ____ _ ____ _ ____ _ ____ _ ____ _ ____
 72
65
 73
4
 40
50.8000000000000043
 49
31.75
 74
0
 49
-6.3499999999999996
 74
0
 49
6.3499999999999996
 74
0
 49
-6.3499999999999996
 74
0
  0
LTYPE
  5
43
100
AcDbSymbolTableRecord
100
AcDbLinetypeTableRecord
  2
ACAD_ISO13W100
 70
0
  3
ISO double-dash double-dot __ __ . . __ __ . . _
 72
65
 73
8
 40
36.0
 49
12.0
 74
0
 49
-3.0
 74
0
 49
12.0
 74
0
 49
-3.0
 74
0
 49
0.0
 74
0
 49
-3.0
 74
0
 49
0.0
 74
0
 49
-3.0
 74
0
  0
LTYPE
  5
44
100
AcDbSymbolTableRecord
100
AcDbLinetypeTableRecord
  2
DASHED2
 70
0
  3
Dashed (.5x) _ _ _ _ _ _ _ _ _ _ _ _ _ _ _ _ _
 72
65
 73
2
 40
9.5249999999999986
 49
6.3499999999999996
 74
0
 49
-3.1749999999999998
 74
0
  0
LTYPE
  5
45
100
AcDbSymbolTableRecord
100
AcDbLinetypeTableRecord
  2
DOT
 70
0
  3
Dot . . . . . . . . . . . . . . . . . . . . . .
 72
65
 73
2
 40
6.3499999999999996
 49
0.1
 74
0
 49
-6.25
 74
0
  0
LTYPE
  5
46
100
AcDbSymbolTableRecord
100
AcDbLinetypeTableRecord
  2
CENTERX2
 70
0
  3
Center (2x) ________  __  ________  __  _____
 72
65
 73
4
 40
101.6000000000000085
 49
63.5
 74
0
 49
-12.6999999999999993
 74
0
 49
12.6999999999999993
 74
0
 49
-12.6999999999999993
 74
0
  0
LTYPE
  5
47
100
AcDbSymbolTableRecord
100
AcDbLinetypeTableRecord
  2
DIVIDE
 70
0
  3
Divide ____ . . ____ . . ____ . . ____ . . ____
 72
65
 73
6
 40
31.7500000000000036
 49
12.6999999999999993
 74
0
 49
-6.2999999999999998
 74
0
 49
0.1
 74
0
 49
-6.25
 74
0
 49
0.1
 74
0
 49
-6.2999999999999998
 74
0
  0
LTYPE
  5
48
100
AcDbSymbolTableRecord
100
AcDbLinetypeTableRecord
  2
DOTTINY
 70
0
  3
Dot (.15x) .....................................
 72
65
 73
2
 40
0.9525
 49
0.1
 74
0
 49
-0.8525
 74
0
  0
LTYPE
  5
49
100
AcDbSymbolTableRecord
100
AcDbLinetypeTableRecord
  2
ACAD_ISO05W100
 70
0
  3
ISO long-dash double-dot ____ .. ____ .. ____ . 
 72
65
 73
6
 40
33.0
 49
24.0
 74
0
 49
-3.0
 74
0
 49
0.0
 74
0
 49
-3.0
 74
0
 49
0.0
 74
0
 49
-3.0
 74
0
  0
LTYPE
  5
4A
100
AcDbSymbolTableRecord
100
AcDbLinetypeTableRecord
  2
CENTERTINY
 70
0
  3
Center (.15x) ___ _ ___ _ ___ _ ___ _ ___ _ ___
 72
65
 73
4
 40
7.6199999999999992
 49
4.7625000000000002
 74
0
 49
-0.9525
 74
0
 49
0.9525
 74
0
 49
-0.9525
 74
0
  0
LTYPE
  5
4B
100
AcDbSymbolTableRecord
100
AcDbLinetypeTableRecord
  2
ACAD_ISO03W100
 70
0
  3
ISO dash space __    __    __    __    __    __
 72
65
 73
2
 40
30.0
 49
12.0
 74
0
 49
-18.0
 74
0
  0
LTYPE
  5
4C
100
AcDbSymbolTableRecord
100
AcDbLinetypeTableRecord
  2
BORDER2
 70
0
  3
Border (.5x) __.__.__.__.__.__.__.__.__.__.__.
 72
65
 73
6
 40
22.2250000000000014
 49
6.3499999999999996
 74
0
 49
-3.1749999999999998
 74
0
 49
6.3499999999999996
 74
0
 49
-3.125
 74
0
 49
0.1
 74
0
 49
-3.125
 74
0
  0
LTYPE
  5
15
100
AcDbSymbolTableRecord
100
AcDbLinetypeTableRecord
  2
ByLayer
 70
0
  3

 72
65
 73
0
 40
0.0
  0
LTYPE
  5
4D
100
AcDbSymbolTableRecord
100
AcDbLinetypeTableRecord
  2
DIVIDEX2
 70
0
  3
Divide (2x) ________  .  .  ________  .  .  _
 72
65
 73
6
 40
63.5
 49
25.3999999999999986
 74
0
 49
-12.6499999999999986
 74
0
 49
0.1
 74
0
 49
-12.5999999999999979
 74
0
 49
0.1
 74
0
 49
-12.6499999999999986
 74
0
  0
LTYPE
  5
4E
100
AcDbSymbolTableRecord
100
AcDbLinetypeTableRecord
  2
ACAD_ISO15W100
 70
0
  3
ISO double-dash triple-dot __ __ . . . __ __ . .
 72
65
 73
10
 40
39.0
 49
12.0
 74
0
 49
-3.0
 74
0
 49
12.0
 74
0
 49
-3.0
 74
0
 49
0.0
 74
0
 49
-3.0
 74
0
 49
0.0
 74
0
 49
-3.0
 74
0
 49
0.0
 74
0
 49
-3.0
 74
0
  0
LTYPE
  5
14
100
AcDbSymbolTableRecord
100
AcDbLinetypeTableRecord
  2
ByBlock
 70
0
  3

 72
65
 73
0
 40
0.0
  0
LTYPE
  5
4F
100
AcDbSymbolTableRecord
100
AcDbLinetypeTableRecord
  2
HIDDEN
 70
0
  3
Hidden __ __ __ __ __ __ __ __ __ __ __ __ __ __
 72
65
 73
2
 40
9.5249999999999986
 49
6.3499999999999996
 74
0
 49
-3.1749999999999998
 74
0
  0
LTYPE
  5
50
100
AcDbSymbolTableRecord
100
AcDbLinetypeTableRecord
  2
BORDERTINY
 70
0
  3
Border (.15x) __.__.__.__.__.__.__.__.__.__.__.
 72
65
 73
6
 40
6.6674999999999995
 49
1.905
 74
0
 49
-0.9525
 74
0
 49
1.905
 74
0
 49
-0.9025
 74
0
 49
0.1
 74
0
 49
-0.9025
 74
0
  0
LTYPE
  5
51
100
AcDbSymbolTableRecord
100
AcDbLinetypeTableRecord
  2
ACAD_ISO11W100
 70
0
  3
ISO double-dash dot __ __ . __ __ . __ __ . __ _
 72
65
 73
6
 40
33.0
 49
12.0
 74
0
 49
-3.0
 74
0
 49
12.0
 74
0
 49
-3.0
 74
0
 49
0.0
 74
0
 49
-3.0
 74
0
  0
LTYPE
  5
52
100
AcDbSymbolTableRecord
100
AcDbLinetypeTableRecord
  2
ACAD_ISO12W100
 70
0
  3
ISO dash double-dot __ . . __ . . __ . . __ . . 
 72
65
 73
6
 40
21.0
 49
12.0
 74
0
 49
-3.0
 74
0
 49
0.0
 74
0
 49
-3.0
 74
0
 49
0.0
 74
0
 49
-3.0
 74
0
  0
LTYPE
  5
53
100
AcDbSymbolTableRecord
100
AcDbLinetypeTableRecord
  2
DIVIDETINY
 70
0
  3
Divide (.15x) __..__..__..__..__..__..__..__.._
 72
65
 73
6
 40
4.7625000000000002
 49
1.905
 74
0
 49
-0.9025
 74
0
 49
0.1
 74
0
 49
-0.8524999999999999
 74
0
 49
0.1
 74
0
 49
-0.9025
 74
0
  0
LTYPE
  5
54
100
AcDbSymbolTableRecord
100
AcDbLinetypeTableRecord
  2
DASHDOT2
 70
0
  3
Dash dot (.5x) _._._._._._._._._._._._._._._.
 72
65
 73
4
 40
12.6999999999999993
 49
6.3499999999999996
 74
0
 49
-3.125
 74
0
 49
0.1
 74
0
 49
-3.125
 74
0
  0
LTYPE
  5
55
100
AcDbSymbolTableRecord
100
AcDbLinetypeTableRecord
  2
PHANTOM2
 70
0
  3
Phantom (.5x) ___ _ _ ___ _ _ ___ _ _ ___ _ _
 72
65
 73
6
 40
31.7500000000000036
 49
15.875
 74
0
 49
-3.1749999999999998
 74
0
 49
3.1749999999999998
 74
0
 49
-3.1749999999999998
 74
0
 49
3.1749999999999998
 74
0
 49
-3.1749999999999998
 74
0
  0
LTYPE
  5
56
100
AcDbSymbolTableRecord
100
AcDbLinetypeTableRecord
  2
DASHEDX2
 70
0
  3
Dashed (2x) ____  ____  ____  ____  ____  ___
 72
65
 73
2
 40
38.0999999999999943
 49
25.3999999999999986
 74
0
 49
-12.6999999999999993
 74
0
  0
LTYPE
  5
57
100
AcDbSymbolTableRecord
100
AcDbLinetypeTableRecord
  2
DASHDOTTINY
 70
0
  3
Dash dot (.15x) _._._._._._._._._._._._._._._.
 72
65
 73
4
 40
3.8100000000000001
 49
1.905
 74
0
 49
-0.9025
 74
0
 49
0.1
 74
0
 49
-0.9025
 74
0
  0
LTYPE
  5
58
100
AcDbSymbolTableRecord
100
AcDbLinetypeTableRecord
  2
CENTER2
 70
0
  3
Center (.5x) ___ _ ___ _ ___ _ ___ _ ___ _ ___
 72
65
 73
4
 40
28.5750000000000028
 49
19.0500000000000007
 74
0
 49
-3.1749999999999998
 74
0
 49
3.1749999999999998
 74
0
 49
-3.1749999999999998
 74
0
  0
LTYPE
  5
59
100
AcDbSymbolTableRecord
100
AcDbLinetypeTableRecord
  2
ACAD_ISO06W100
 70
0
  3
ISO long-dash triple-dot ____ ... ____ ... ____
 72
65
 73
8
 40
36.0
 49
24.0
 74
0
 49
-3.0
 74
0
 49
0.0
 74
0
 49
-3.0
 74
0
 49
0.0
 74
0
 49
-3.0
 74
0
 49
0.0
 74
0
 49
-3.0
 74
0
  0
LTYPE
  5
5A
100
AcDbSymbolTableRecord
100
AcDbLinetypeTableRecord
  2
DOT2
 70
0
  3
Dot (.5x) .....................................
 72
65
 73
2
 40
3.1749999999999998
 49
0.1
 74
0
 49
-3.0749999999999997
 74
0
  0
LTYPE
  5
5B
100
AcDbSymbolTableRecord
100
AcDbLinetypeTableRecord
  2
ACAD_ISO04W100
 70
0
  3
ISO long-dash dot ____ . ____ . ____ . ____ . _
 72
65
 73
4
 40
30.0
 49
24.0
 74
0
 49
-3.0
 74
0
 49
0.0
 74
0
 49
-3.0
 74
0
  0
LTYPE
  5
5C
100
AcDbSymbolTableRecord
100
AcDbLinetypeTableRecord
  2
BORDERX2
 70
0
  3
Border (2x) ____  ____  .  ____  ____  .  ___
 72
65
 73
6
 40
88.8999999999999773
 49
25.3999999999999986
 74
0
 49
-12.6999999999999993
 74
0
 49
25.3999999999999986
 74
0
 49
-12.6499999999999986
 74
0
 49
0.1
 74
0
 49
-12.6499999999999986
 74
0
  0
ENDTAB
  0
TABLE
  2
LAYER
  5
2
100
AcDbSymbolTable
 70
38
  0
LAYER
  5
5D
100
AcDbSymbolTableRecord
100
AcDbLayerTableRecord
  2
MUROS
 70
0
 62
7
420
16777215
  6
Continuous
370
35
390
F
  0
LAYER
  5
5E
100
AcDbSymbolTableRecord
100
AcDbLayerTableRecord
  2
ARQ_VENTANAS
 70
0
 62
7
420
16777215
  6
Continuous
370
18
390
F
  0
LAYER
  5
5F
100
AcDbSymbolTableRecord
100
AcDbLayerTableRecord
  2
ELEC_CIRCUITO_C5
 70
0
 62
156
420
9804
  6
Continuous
370
18
390
F
  0
LAYER
  5
60
100
AcDbSymbolTableRecord
100
AcDbLayerTableRecord
  2
ARQ_MUROS
 70
0
 62
7
420
16777215
  6
Continuous
370
30
390
F
  0
LAYER
  5
61
100
AcDbSymbolTableRecord
100
AcDbLayerTableRecord
  2
ELEC_CIRCUITO_C8
 70
0
 62
94
420
32768
  6
Continuous
370
18
390
F
  0
LAYER
  5
62
100
AcDbSymbolTableRecord
100
AcDbLayerTableRecord
  2
ARQ_ANOTACIONES
 70
0
 62
250
420
5592405
  6
Continuous
370
9
390
F
  0
LAYER
  5
63
100
AcDbSymbolTableRecord
100
AcDbLayerTableRecord
  2
ELEC_LUMINARIAS
 70
0
 62
40
420
16756736
  6
Continuous
370
25
390
F
  0
LAYER
  5
10
100
AcDbSymbolTableRecord
100
AcDbLayerTableRecord
  2
0
 70
0
 62
7
420
16777215
  6
Continuous
370
-3
390
F
  0
LAYER
  5
64
100
AcDbSymbolTableRecord
100
AcDbLayerTableRecord
  2
ARQ_ESCALERAS
 70
0
 62
250
420
5592405
  6
Continuous
370
13
390
F
  0
LAYER
  5
65
100
AcDbSymbolTableRecord
100
AcDbLayerTableRecord
  2
ELEC_CIRCUITO_C1
 70
0
 62
42
420
13404672
  6
Continuous
370
18
390
F
  0
LAYER
  5
66
100
AcDbSymbolTableRecord
100
AcDbLayerTableRecord
  2
ELEC_CIRCUITO_C2
 70
0
 62
156
420
9804
  6
Continuous
370
18
390
F
  0
LAYER
  5
67
100
AcDbSymbolTableRecord
100
AcDbLayerTableRecord
  2
MARCO
 70
0
 62
7
420
16777215
  6
Continuous
370
50
390
F
  0
LAYER
  5
68
100
AcDbSymbolTableRecord
100
AcDbLayerTableRecord
  2
ELEC_PUESTA_TIERRA
 70
0
 62
3
420
65280
  6
Continuous
370
25
390
F
  0
LAYER
  5
69
100
AcDbSymbolTableRecord
100
AcDbLayerTableRecord
  2
ELEC_CANALIZACION
 70
0
 62
136
420
19532
  6
Continuous
370
13
390
F
  0
LAYER
  5
6A
100
AcDbSymbolTableRecord
100
AcDbLayerTableRecord
  2
VENTANAS
 70
0
 62
7
420
16777215
  6
Continuous
370
-3
390
F
  0
LAYER
  5
6B
100
AcDbSymbolTableRecord
100
AcDbLayerTableRecord
  2
PUERTAS
 70
0
 62
7
420
16777215
  6
Continuous
370
-3
390
F
  0
LAYER
  5
6C
100
AcDbSymbolTableRecord
100
AcDbLayerTableRecord
  2
ELEC_MEDIDOR
 70
0
 62
190
420
9055202
  6
Continuous
370
30
390
F
  0
LAYER
  5
6D
100
AcDbSymbolTableRecord
100
AcDbLayerTableRecord
  2
MOBILIARIO
 70
0
 62
251
420
6710886
  6
Continuous
370
-3
390
F
  0
LAYER
  5
6E
100
AcDbSymbolTableRecord
100
AcDbLayerTableRecord
  2
ELEC_CIRCUITO_C4
 70
0
 62
52
420
13933056
  6
Continuous
370
18
390
F
  0
LAYER
  5
6F
100
AcDbSymbolTableRecord
100
AcDbLayerTableRecord
  2
ANOTACIONES
 70
0
 62
251
420
6710886
  6
Continuous
370
-3
390
F
  0
LAYER
  5
70
100
AcDbSymbolTableRecord
100
AcDbLayerTableRecord
  2
ARQ_MOBILIARIO
 70
0
 62
251
420
7829367
  6
Continuous
370
9
390
F
  0
LAYER
  5
71
100
AcDbSymbolTableRecord
100
AcDbLayerTableRecord
  2
ELEC_TEXTOS
 70
0
 62
7
420
16777215
  6
Continuous
370
13
390
F
  0
LAYER
  5
72
100
AcDbSymbolTableRecord
100
AcDbLayerTableRecord
  2
TRAMAS
 70
0
 62
252
420
10066329
  6
Continuous
370
-3
390
F
  0
LAYER
  5
73
100
AcDbSymbolTableRecord
100
AcDbLayerTableRecord
  2
ELEC_CIRCUITO_C7
 70
0
 62
190
420
9055202
  6
Continuous
370
18
390
F
  0
LAYER
  5
74
100
AcDbSymbolTableRecord
100
AcDbLayerTableRecord
  2
ELEC_TOMACORRIENTES
 70
0
 62
152
420
21157
  6
Continuous
370
25
390
F
  0
LAYER
  5
75
100
AcDbSymbolTableRecord
100
AcDbLayerTableRecord
  2
ELEC_CIRCUITO_C6
 70
0
 62
12
420
10813440
  6
Continuous
370
18
390
F
  0
LAYER
  5
76
100
AcDbSymbolTableRecord
100
AcDbLayerTableRecord
  2
ELEC_COTAS_REF
 70
0
 62
251
420
7829367
  6
Continuous
370
9
390
F
  0
LAYER
  5
77
100
AcDbSymbolTableRecord
100
AcDbLayerTableRecord
  2
ELEC_CIRCUITO_C3
 70
0
 62
142
420
36026
  6
Continuous
370
18
390
F
  0
LAYER
  5
78
100
AcDbSymbolTableRecord
100
AcDbLayerTableRecord
  2
Defpoints
 70
0
 62
7
420
16777215
  6
Continuous
290
0
370
-3
390
F
  0
LAYER
  5
79
100
AcDbSymbolTableRecord
100
AcDbLayerTableRecord
  2
ARQ_PUERTAS
 70
0
 62
7
420
16777215
  6
Continuous
370
18
390
F
  0
LAYER
  5
7A
100
AcDbSymbolTableRecord
100
AcDbLayerTableRecord
  2
ARQ_TRAMAS
 70
0
 62
252
420
10066329
  6
Continuous
370
9
390
F
  0
LAYER
  5
7B
100
AcDbSymbolTableRecord
100
AcDbLayerTableRecord
  2
ESCALERAS
 70
0
 62
7
420
16777215
  6
Continuous
370
-3
390
F
  0
LAYER
  5
7C
100
AcDbSymbolTableRecord
100
AcDbLayerTableRecord
  2
ELEC_INTERRUPTORES
 70
0
 62
112
420
42577
  6
Continuous
370
25
390
F
  0
LAYER
  5
7D
100
AcDbSymbolTableRecord
100
AcDbLayerTableRecord
  2
COTAS
 70
0
 62
251
420
6710886
  6
Continuous
370
-3
390
F
  0
LAYER
  5
7E
100
AcDbSymbolTableRecord
100
AcDbLayerTableRecord
  2
TEXTOS
 70
0
 62
7
420
16777215
  6
Continuous
370
-3
390
F
  0
LAYER
  5
7F
100
AcDbSymbolTableRecord
100
AcDbLayerTableRecord
  2
ELEC_LEYENDA
 70
0
 62
7
420
16777215
  6
Continuous
370
18
390
F
  0
LAYER
  5
80
100
AcDbSymbolTableRecord
100
AcDbLayerTableRecord
  2
ELEC_TABLERO
 70
0
 62
12
420
10813440
  6
Continuous
370
35
390
F
  0
LAYER
  5
81
100
AcDbSymbolTableRecord
100
AcDbLayerTableRecord
  2
ARQ_TEXTOS
 70
0
 62
47
420
4473924
  6
Continuous
370
13
390
F
  0
ENDTAB
  0
TABLE
  2
STYLE
  5
3
100
AcDbSymbolTable
 70
77
  0
STYLE
  5
82
100
AcDbSymbolTableRecord
100
AcDbTextStyleTableRecord
  2
Standard
 70
0
 40
0.0
 41
1.0
 50
0.0
 71
0
 42
2.5
  3

  4

1001
ACAD
1000
txt
1071
0
  0
STYLE
  5
83
100
AcDbSymbolTableRecord
100
AcDbTextStyleTableRecord
  2
textstyle0
 70
0
 40
0.0
 41
1.0
 50
0.0
 71
0
 42
0.12
  3

  4

1001
ACAD
1000
textstyle72
1071
0
  0
STYLE
  5
84
100
AcDbSymbolTableRecord
100
AcDbTextStyleTableRecord
  2
textstyle1
 70
0
 40
0.0
 41
1.0
 50
0.0
 71
0
 42
0.14
  3

  4

1001
ACAD
1000
textstyle32
1071
0
  0
STYLE
  5
85
100
AcDbSymbolTableRecord
100
AcDbTextStyleTableRecord
  2
textstyle2
 70
0
 40
0.0
 41
1.0
 50
0.0
 71
0
 42
0.115
  3

  4

1001
ACAD
1000
textstyle4
1071
0
  0
STYLE
  5
86
100
AcDbSymbolTableRecord
100
AcDbTextStyleTableRecord
  2
textstyle3
 70
0
 40
0.0
 41
1.0
 50
0.0
 71
0
 42
0.14
  3

  4

1001
ACAD
1000
textstyle68
1071
0
  0
STYLE
  5
87
100
AcDbSymbolTableRecord
100
AcDbTextStyleTableRecord
  2
textstyle4
 70
0
 40
0.0
 41
1.0
 50
0.0
 71
0
 42
0.14
  3

  4

1001
ACAD
1000
textstyle3
1071
0
  0
STYLE
  5
88
100
AcDbSymbolTableRecord
100
AcDbTextStyleTableRecord
  2
textstyle5
 70
0
 40
0.0
 41
1.0
 50
0.0
 71
0
 42
0.14
  3

  4

1001
ACAD
1000
textstyle70
1071
0
  0
STYLE
  5
89
100
AcDbSymbolTableRecord
100
AcDbTextStyleTableRecord
  2
textstyle6
 70
0
 40
0.0
 41
1.0
 50
0.0
 71
0
 42
0.18
  3

  4

1001
ACAD
1000
textstyle1
1071
0
  0
STYLE
  5
8A
100
AcDbSymbolTableRecord
100
AcDbTextStyleTableRecord
  2
textstyle7
 70
0
 40
0.0
 41
1.0
 50
0.0
 71
0
 42
0.14
  3

  4

1001
ACAD
1000
textstyle63
1071
0
  0
STYLE
  5
8B
100
AcDbSymbolTableRecord
100
AcDbTextStyleTableRecord
  2
textstyle8
 70
0
 40
0.0
 41
1.0
 50
0.0
 71
0
 42
0.14
  3

  4

1001
ACAD
1000
textstyle64
1071
0
  0
STYLE
  5
8C
100
AcDbSymbolTableRecord
100
AcDbTextStyleTableRecord
  2
textstyle9
 70
0
 40
0.0
 41
1.0
 50
0.0
 71
0
 42
0.14
  3

  4

1001
ACAD
1000
textstyle2
1071
0
  0
STYLE
  5
8D
100
AcDbSymbolTableRecord
100
AcDbTextStyleTableRecord
  2
textstyle10
 70
0
 40
0.0
 41
1.0
 50
0.0
 71
0
 42
0.095
  3

  4

1001
ACAD
1000
textstyle35
1071
0
  0
STYLE
  5
8E
100
AcDbSymbolTableRecord
100
AcDbTextStyleTableRecord
  2
textstyle11
 70
0
 40
0.0
 41
1.0
 50
0.0
 71
0
 42
0.095
  3

  4

1001
ACAD
1000
textstyle22
1071
0
  0
STYLE
  5
8F
100
AcDbSymbolTableRecord
100
AcDbTextStyleTableRecord
  2
textstyle12
 70
0
 40
0.0
 41
1.0
 50
0.0
 71
0
 42
0.23
  3

  4

1001
ACAD
1000
textstyle51
1071
0
  0
STYLE
  5
90
100
AcDbSymbolTableRecord
100
AcDbTextStyleTableRecord
  2
textstyle13
 70
0
 40
0.0
 41
1.0
 50
0.0
 71
0
 42
0.105
  3

  4

1001
ACAD
1000
textstyle52
1071
0
  0
STYLE
  5
91
100
AcDbSymbolTableRecord
100
AcDbTextStyleTableRecord
  2
textstyle14
 70
0
 40
0.0
 41
1.0
 50
0.0
 71
0
 42
0.12
  3

  4

1001
ACAD
1000
textstyle6
1071
0
  0
STYLE
  5
92
100
AcDbSymbolTableRecord
100
AcDbTextStyleTableRecord
  2
textstyle15
 70
0
 40
0.0
 41
1.0
 50
0.0
 71
0
 42
0.14
  3

  4

1001
ACAD
1000
textstyle66
1071
0
  0
STYLE
  5
93
100
AcDbSymbolTableRecord
100
AcDbTextStyleTableRecord
  2
textstyle16
 70
0
 40
0.0
 41
1.0
 50
0.0
 71
0
 42
0.105
  3

  4

1001
ACAD
1000
textstyle20
1071
0
  0
STYLE
  5
94
100
AcDbSymbolTableRecord
100
AcDbTextStyleTableRecord
  2
textstyle17
 70
0
 40
0.0
 41
1.0
 50
0.0
 71
0
 42
0.105
  3

  4

1001
ACAD
1000
textstyle62
1071
0
  0
STYLE
  5
95
100
AcDbSymbolTableRecord
100
AcDbTextStyleTableRecord
  2
textstyle18
 70
0
 40
0.0
 41
1.0
 50
0.0
 71
0
 42
0.095
  3

  4

1001
ACAD
1000
textstyle23
1071
0
  0
STYLE
  5
96
100
AcDbSymbolTableRecord
100
AcDbTextStyleTableRecord
  2
textstyle19
 70
0
 40
0.0
 41
1.0
 50
0.0
 71
0
 42
0.14
  3

  4

1001
ACAD
1000
textstyle38
1071
0
  0
STYLE
  5
97
100
AcDbSymbolTableRecord
100
AcDbTextStyleTableRecord
  2
textstyle20
 70
0
 40
0.0
 41
1.0
 50
0.0
 71
0
 42
0.14
  3

  4

1001
ACAD
1000
textstyle49
1071
0
  0
STYLE
  5
98
100
AcDbSymbolTableRecord
100
AcDbTextStyleTableRecord
  2
textstyle21
 70
0
 40
0.0
 41
1.0
 50
0.0
 71
0
 42
0.18
  3

  4

1001
ACAD
1000
textstyle57
1071
0
  0
STYLE
  5
99
100
AcDbSymbolTableRecord
100
AcDbTextStyleTableRecord
  2
textstyle22
 70
0
 40
0.0
 41
1.0
 50
0.0
 71
0
 42
0.23
  3

  4

1001
ACAD
1000
textstyle71
1071
0
  0
STYLE
  5
9A
100
AcDbSymbolTableRecord
100
AcDbTextStyleTableRecord
  2
textstyle23
 70
0
 40
0.0
 41
1.0
 50
0.0
 71
0
 42
0.105
  3

  4

1001
ACAD
1000
textstyle10
1071
0
  0
STYLE
  5
9B
100
AcDbSymbolTableRecord
100
AcDbTextStyleTableRecord
  2
textstyle24
 70
0
 40
0.0
 41
1.0
 50
0.0
 71
0
 42
0.105
  3

  4

1001
ACAD
1000
textstyle44
1071
0
  0
STYLE
  5
9C
100
AcDbSymbolTableRecord
100
AcDbTextStyleTableRecord
  2
textstyle25
 70
0
 40
0.0
 41
1.0
 50
0.0
 71
0
 42
0.16
  3

  4

1001
ACAD
1000
textstyle0
1071
0
  0
STYLE
  5
9D
100
AcDbSymbolTableRecord
100
AcDbTextStyleTableRecord
  2
textstyle26
 70
0
 40
0.0
 41
1.0
 50
0.0
 71
0
 42
0.18
  3

  4

1001
ACAD
1000
textstyle21
1071
0
  0
STYLE
  5
9E
100
AcDbSymbolTableRecord
100
AcDbTextStyleTableRecord
  2
textstyle27
 70
0
 40
0.0
 41
1.0
 50
0.0
 71
0
 42
0.14
  3

  4

1001
ACAD
1000
textstyle17
1071
0
  0
STYLE
  5
9F
100
AcDbSymbolTableRecord
100
AcDbTextStyleTableRecord
  2
textstyle28
 70
0
 40
0.0
 41
1.0
 50
0.0
 71
0
 42
0.095
  3

  4

1001
ACAD
1000
textstyle8
1071
0
  0
STYLE
  5
A0
100
AcDbSymbolTableRecord
100
AcDbTextStyleTableRecord
  2
textstyle29
 70
0
 40
0.0
 41
1.0
 50
0.0
 71
0
 42
0.11
  3

  4

1001
ACAD
1000
textstyle0
1071
0
  0
STYLE
  5
A1
100
AcDbSymbolTableRecord
100
AcDbTextStyleTableRecord
  2
textstyle30
 70
0
 40
0.0
 41
1.0
 50
0.0
 71
0
 42
0.32
  3

  4

1001
ACAD
1000
textstyle31
1071
0
  0
STYLE
  5
A2
100
AcDbSymbolTableRecord
100
AcDbTextStyleTableRecord
  2
textstyle31
 70
0
 40
0.0
 41
1.0
 50
0.0
 71
0
 42
0.28
  3

  4

1001
ACAD
1000
textstyle46
1071
0
  0
STYLE
  5
A3
100
AcDbSymbolTableRecord
100
AcDbTextStyleTableRecord
  2
textstyle32
 70
0
 40
0.0
 41
1.0
 50
0.0
 71
0
 42
0.095
  3

  4

1001
ACAD
1000
textstyle5
1071
0
  0
STYLE
  5
A4
100
AcDbSymbolTableRecord
100
AcDbTextStyleTableRecord
  2
textstyle33
 70
0
 40
0.0
 41
1.0
 50
0.0
 71
0
 42
0.14
  3

  4

1001
ACAD
1000
textstyle14
1071
0
  0
STYLE
  5
A5
100
AcDbSymbolTableRecord
100
AcDbTextStyleTableRecord
  2
textstyle34
 70
0
 40
0.0
 41
1.0
 50
0.0
 71
0
 42
0.16
  3

  4

1001
ACAD
1000
textstyle24
1071
0
  0
STYLE
  5
A6
100
AcDbSymbolTableRecord
100
AcDbTextStyleTableRecord
  2
textstyle35
 70
0
 40
0.0
 41
1.0
 50
0.0
 71
0
 42
0.14
  3

  4

1001
ACAD
1000
textstyle40
1071
0
  0
STYLE
  5
A7
100
AcDbSymbolTableRecord
100
AcDbTextStyleTableRecord
  2
textstyle36
 70
0
 40
0.0
 41
1.0
 50
0.0
 71
0
 42
0.1
  3

  4

1001
ACAD
1000
textstyle15
1071
0
  0
STYLE
  5
A8
100
AcDbSymbolTableRecord
100
AcDbTextStyleTableRecord
  2
textstyle37
 70
0
 40
0.0
 41
1.0
 50
0.0
 71
0
 42
0.095
  3

  4

1001
ACAD
1000
textstyle13
1071
0
  0
STYLE
  5
A9
100
AcDbSymbolTableRecord
100
AcDbTextStyleTableRecord
  2
textstyle38
 70
0
 40
0.0
 41
1.0
 50
0.0
 71
0
 42
0.105
  3

  4

1001
ACAD
1000
textstyle59
1071
0
  0
STYLE
  5
AA
100
AcDbSymbolTableRecord
100
AcDbTextStyleTableRecord
  2
textstyle39
 70
0
 40
0.0
 41
1.0
 50
0.0
 71
0
 42
0.1733333333333333
  3

  4

1001
ACAD
1000
textstyle56
1071
0
  0
STYLE
  5
AB
100
AcDbSymbolTableRecord
100
AcDbTextStyleTableRecord
  2
textstyle40
 70
0
 40
0.0
 41
1.0
 50
0.0
 71
0
 42
0.1733333333333333
  3

  4

1001
ACAD
1000
textstyle29
1071
0
  0
STYLE
  5
AC
100
AcDbSymbolTableRecord
100
AcDbTextStyleTableRecord
  2
textstyle41
 70
0
 40
0.0
 41
1.0
 50
0.0
 71
0
 42
0.14
  3

  4

1001
ACAD
1000
textstyle30
1071
0
  0
STYLE
  5
AD
100
AcDbSymbolTableRecord
100
AcDbTextStyleTableRecord
  2
textstyle42
 70
0
 40
0.0
 41
1.0
 50
0.0
 71
0
 42
0.14
  3

  4

1001
ACAD
1000
textstyle12
1071
0
  0
STYLE
  5
AE
100
AcDbSymbolTableRecord
100
AcDbTextStyleTableRecord
  2
textstyle43
 70
0
 40
0.0
 41
1.0
 50
0.0
 71
0
 42
0.105
  3

  4

1001
ACAD
1000
textstyle0
1071
0
  0
STYLE
  5
AF
100
AcDbSymbolTableRecord
100
AcDbTextStyleTableRecord
  2
textstyle44
 70
0
 40
0.0
 41
1.0
 50
0.0
 71
0
 42
0.14
  3

  4

1001
ACAD
1000
textstyle16
1071
0
  0
STYLE
  5
B0
100
AcDbSymbolTableRecord
100
AcDbTextStyleTableRecord
  2
textstyle45
 70
0
 40
0.0
 41
1.0
 50
0.0
 71
0
 42
0.105
  3

  4

1001
ACAD
1000
textstyle55
1071
0
  0
STYLE
  5
B1
100
AcDbSymbolTableRecord
100
AcDbTextStyleTableRecord
  2
textstyle46
 70
0
 40
0.0
 41
1.0
 50
0.0
 71
0
 42
0.18
  3

  4

1001
ACAD
1000
textstyle42
1071
0
  0
STYLE
  5
B2
100
AcDbSymbolTableRecord
100
AcDbTextStyleTableRecord
  2
textstyle47
 70
0
 40
0.0
 41
1.0
 50
0.0
 71
0
 42
0.12
  3

  4

1001
ACAD
1000
textstyle36
1071
0
  0
STYLE
  5
B3
100
AcDbSymbolTableRecord
100
AcDbTextStyleTableRecord
  2
textstyle48
 70
0
 40
0.0
 41
1.0
 50
0.0
 71
0
 42
0.14
  3

  4

1001
ACAD
1000
textstyle18
1071
0
  0
STYLE
  5
B4
100
AcDbSymbolTableRecord
100
AcDbTextStyleTableRecord
  2
textstyle49
 70
0
 40
0.0
 41
1.0
 50
0.0
 71
0
 42
0.1733333333333333
  3

  4

1001
ACAD
1000
textstyle60
1071
0
  0
STYLE
  5
B5
100
AcDbSymbolTableRecord
100
AcDbTextStyleTableRecord
  2
textstyle50
 70
0
 40
0.0
 41
1.0
 50
0.0
 71
0
 42
0.23
  3

  4

1001
ACAD
1000
textstyle69
1071
0
  0
STYLE
  5
B6
100
AcDbSymbolTableRecord
100
AcDbTextStyleTableRecord
  2
textstyle51
 70
0
 40
0.0
 41
1.0
 50
0.0
 71
0
 42
0.14
  3

  4

1001
ACAD
1000
textstyle45
1071
0
  0
STYLE
  5
B7
100
AcDbSymbolTableRecord
100
AcDbTextStyleTableRecord
  2
textstyle52
 70
0
 40
0.0
 41
1.0
 50
0.0
 71
0
 42
0.12
  3

  4

1001
ACAD
1000
textstyle37
1071
0
  0
STYLE
  5
B8
100
AcDbSymbolTableRecord
100
AcDbTextStyleTableRecord
  2
textstyle53
 70
0
 40
0.0
 41
1.0
 50
0.0
 71
0
 42
0.14
  3

  4

1001
ACAD
1000
textstyle34
1071
0
  0
STYLE
  5
B9
100
AcDbSymbolTableRecord
100
AcDbTextStyleTableRecord
  2
textstyle54
 70
0
 40
0.0
 41
1.0
 50
0.0
 71
0
 42
0.14
  3

  4

1001
ACAD
1000
textstyle65
1071
0
  0
STYLE
  5
BA
100
AcDbSymbolTableRecord
100
AcDbTextStyleTableRecord
  2
textstyle55
 70
0
 40
0.0
 41
1.0
 50
0.0
 71
0
 42
0.18
  3

  4

1001
ACAD
1000
textstyle58
1071
0
  0
STYLE
  5
BB
100
AcDbSymbolTableRecord
100
AcDbTextStyleTableRecord
  2
textstyle56
 70
0
 40
0.0
 41
1.0
 50
0.0
 71
0
 42
0.16
  3

  4

1001
ACAD
1000
textstyle48
1071
0
  0
STYLE
  5
BC
100
AcDbSymbolTableRecord
100
AcDbTextStyleTableRecord
  2
textstyle57
 70
0
 40
0.0
 41
1.0
 50
0.0
 71
0
 42
0.105
  3

  4

1001
ACAD
1000
textstyle39
1071
0
  0
STYLE
  5
BD
100
AcDbSymbolTableRecord
100
AcDbTextStyleTableRecord
  2
textstyle58
 70
0
 40
0.0
 41
1.0
 50
0.0
 71
0
 42
0.14
  3

  4

1001
ACAD
1000
textstyle47
1071
0
  0
STYLE
  5
BE
100
AcDbSymbolTableRecord
100
AcDbTextStyleTableRecord
  2
textstyle59
 70
0
 40
0.0
 41
1.0
 50
0.0
 71
0
 42
0.23
  3

  4

1001
ACAD
1000
textstyle67
1071
0
  0
STYLE
  5
BF
100
AcDbSymbolTableRecord
100
AcDbTextStyleTableRecord
  2
textstyle60
 70
0
 40
0.0
 41
1.0
 50
0.0
 71
0
 42
0.14
  3

  4

1001
ACAD
1000
textstyle41
1071
0
  0
STYLE
  5
C0
100
AcDbSymbolTableRecord
100
AcDbTextStyleTableRecord
  2
textstyle61
 70
0
 40
0.0
 41
1.0
 50
0.0
 71
0
 42
0.115
  3

  4

1001
ACAD
1000
textstyle61
1071
0
  0
STYLE
  5
C1
100
AcDbSymbolTableRecord
100
AcDbTextStyleTableRecord
  2
textstyle62
 70
0
 40
0.0
 41
1.0
 50
0.0
 71
0
 42
0.14
  3

  4

1001
ACAD
1000
textstyle26
1071
0
  0
STYLE
  5
C2
100
AcDbSymbolTableRecord
100
AcDbTextStyleTableRecord
  2
textstyle63
 70
0
 40
0.0
 41
1.0
 50
0.0
 71
0
 42
0.12
  3

  4

1001
ACAD
1000
textstyle73
1071
0
  0
STYLE
  5
C3
100
AcDbSymbolTableRecord
100
AcDbTextStyleTableRecord
  2
textstyle64
 70
0
 40
0.0
 41
1.0
 50
0.0
 71
0
 42
0.14
  3

  4

1001
ACAD
1000
textstyle54
1071
0
  0
STYLE
  5
C4
100
AcDbSymbolTableRecord
100
AcDbTextStyleTableRecord
  2
textstyle65
 70
0
 40
0.0
 41
1.0
 50
0.0
 71
0
 42
0.105
  3

  4

1001
ACAD
1000
textstyle33
1071
0
  0
STYLE
  5
C5
100
AcDbSymbolTableRecord
100
AcDbTextStyleTableRecord
  2
textstyle66
 70
0
 40
0.0
 41
1.0
 50
0.0
 71
0
 42
0.16
  3

  4

1001
ACAD
1000
textstyle11
1071
0
  0
STYLE
  5
C6
100
AcDbSymbolTableRecord
100
AcDbTextStyleTableRecord
  2
textstyle67
 70
0
 40
0.0
 41
1.0
 50
0.0
 71
0
 42
0.105
  3

  4

1001
ACAD
1000
textstyle25
1071
0
  0
STYLE
  5
C7
100
AcDbSymbolTableRecord
100
AcDbTextStyleTableRecord
  2
textstyle68
 70
0
 40
0.0
 41
1.0
 50
0.0
 71
0
 42
0.14
  3

  4

1001
ACAD
1000
textstyle28
1071
0
  0
STYLE
  5
C8
100
AcDbSymbolTableRecord
100
AcDbTextStyleTableRecord
  2
textstyle69
 70
0
 40
0.0
 41
1.0
 50
0.0
 71
0
 42
0.1733333333333333
  3

  4

1001
ACAD
1000
textstyle27
1071
0
  0
STYLE
  5
C9
100
AcDbSymbolTableRecord
100
AcDbTextStyleTableRecord
  2
textstyle70
 70
0
 40
0.0
 41
1.0
 50
0.0
 71
0
 42
0.12
  3

  4

1001
ACAD
1000
textstyle50
1071
0
  0
STYLE
  5
CA
100
AcDbSymbolTableRecord
100
AcDbTextStyleTableRecord
  2
textstyle71
 70
0
 40
0.0
 41
1.0
 50
0.0
 71
0
 42
0.23
  3

  4

1001
ACAD
1000
textstyle9
1071
0
  0
STYLE
  5
CB
100
AcDbSymbolTableRecord
100
AcDbTextStyleTableRecord
  2
textstyle72
 70
0
 40
0.0
 41
1.0
 50
0.0
 71
0
 42
0.08
  3

  4

1001
ACAD
1000
textstyle19
1071
0
  0
STYLE
  5
CC
100
AcDbSymbolTableRecord
100
AcDbTextStyleTableRecord
  2
textstyle73
 70
0
 40
0.0
 41
1.0
 50
0.0
 71
0
 42
0.18
  3

  4

1001
ACAD
1000
textstyle7
1071
0
  0
STYLE
  5
CD
100
AcDbSymbolTableRecord
100
AcDbTextStyleTableRecord
  2
textstyle74
 70
0
 40
0.0
 41
1.0
 50
0.0
 71
0
 42
0.14
  3

  4

1001
ACAD
1000
textstyle53
1071
0
  0
STYLE
  5
CE
100
AcDbSymbolTableRecord
100
AcDbTextStyleTableRecord
  2
textstyle75
 70
0
 40
0.0
 41
1.0
 50
0.0
 71
0
 42
0.14
  3

  4

1001
ACAD
1000
textstyle43
1071
0
  0
ENDTAB
  0
TABLE
  2
VIEW
  5
6
100
AcDbSymbolTable
 70
0
  0
ENDTAB
  0
TABLE
  2
UCS
  5
7
100
AcDbSymbolTable
 70
0
  0
ENDTAB
  0
TABLE
  2
APPID
  5
9
100
AcDbSymbolTable
 70
1
  0
APPID
  5
12
100
AcDbSymbolTableRecord
100
AcDbRegAppTableRecord
  2
ACAD
 70
0
  0
APPID
  5
CF
100
AcDbSymbolTableRecord
100
AcDbRegAppTableRecord
  2
QCAD
 70
0
  0
ENDTAB
  0
TABLE
  2
DIMSTYLE
  5
A
100
AcDbSymbolTable
 70
1
100
AcDbDimStyleTable
 71
0
  0
DIMSTYLE
105
27
100
AcDbSymbolTableRecord
100
AcDbDimStyleTableRecord
  2
Standard
 41
0.175
 42
0.125
 43
3.75
 44
0.375
 70
0
 73
0
 74
0
 77
1
 78
8
140
0.25
141
2.5
143
0.03937007874016
147
0.1
171
3
172
1
271
2
272
2
274
3
278
44
283
0
284
8
340
82
  0
ENDTAB
  0
TABLE
  2
BLOCK_RECORD
  5
1
100
AcDbSymbolTable
 70
1
  0
BLOCK_RECORD
  5
1F
100
AcDbSymbolTableRecord
100
AcDbBlockTableRecord
  2
*Model_Space
340
22
  0
BLOCK_RECORD
  5
1B
100
AcDbSymbolTableRecord
100
AcDbBlockTableRecord
  2
*Paper_Space
340
1E
  0
BLOCK_RECORD
  5
23
100
AcDbSymbolTableRecord
100
AcDbBlockTableRecord
  2
*Paper_Space0
340
26
  0
BLOCK_RECORD
  5
D0
100
AcDbSymbolTableRecord
100
AcDbBlockTableRecord
  2
_CLOSEDFILLED
340
0
  0
BLOCK_RECORD
  5
D1
100
AcDbSymbolTableRecord
100
AcDbBlockTableRecord
  2
_CLOSEDBLANK
340
0
  0
BLOCK_RECORD
  5
D2
100
AcDbSymbolTableRecord
100
AcDbBlockTableRecord
  2
_ARCHTICK
340
0
  0
ENDTAB
  0
ENDSEC
  0
SECTION
  2
BLOCKS
  0
BLOCK
  5
20
100
AcDbEntity
  8
0
100
AcDbBlockBegin
  2
*Model_Space
 70
0
 10
0.0
 20
0.0
 30
0.0
  3
*Model_Space
  1

  0
ENDBLK
  5
21
100
AcDbEntity
  8
0
100
AcDbBlockEnd
  0
BLOCK
  5
1C
100
AcDbEntity
 67
1
  8
0
100
AcDbBlockBegin
  2
*Paper_Space
 70
0
 10
0.0
 20
0.0
 30
0.0
  3
*Paper_Space
  1

  0
ENDBLK
  5
1D
100
AcDbEntity
 67
1
  8
0
100
AcDbBlockEnd
  0
BLOCK
  5
24
100
AcDbEntity
  8
0
100
AcDbBlockBegin
  2
*Paper_Space0
 70
0
 10
0.0
 20
0.0
 30
0.0
  3
*Paper_Space0
  1

  0
ENDBLK
  5
25
100
AcDbEntity
  8
0
100
AcDbBlockEnd
  0
BLOCK
  5
D3
100
AcDbEntity
  8
0
100
AcDbBlockBegin
  2
_CLOSEDFILLED
 70
0
 10
0.0
 20
0.0
 30
0.0
  3
_CLOSEDFILLED
  1

  0
SOLID
  5
D4
100
AcDbEntity
  8
0
 62
0
370
-1
 48
1.0
  6
ByBlock
100
AcDbTrace
 10
-1.0
 20
0.1643989837240254
 30
0.0
 11
0.0
 21
0.0
 31
0.0
 12
-1.0
 22
-0.1643989837240254
 32
0.0
 13
-1.0
 23
-0.1643989837240254
 33
0.0
 39
0.0
  0
ENDBLK
  5
D5
100
AcDbEntity
  8
0
100
AcDbBlockEnd
  0
BLOCK
  5
D6
100
AcDbEntity
  8
0
100
AcDbBlockBegin
  2
_CLOSEDBLANK
 70
0
 10
0.0
 20
0.0
 30
0.0
  3
_CLOSEDBLANK
  1

  0
LWPOLYLINE
  5
D7
100
AcDbEntity
  8
0
 62
0
370
-1
 48
1.0
  6
ByBlock
100
AcDbPolyline
 90
3
 70
1
 10
-1.0
 20
0.1643989837240254
 10
0.0
 20
0.0
 10
-1.0
 20
-0.1643989837240254
  0
ENDBLK
  5
D8
100
AcDbEntity
  8
0
100
AcDbBlockEnd
  0
BLOCK
  5
D9
100
AcDbEntity
  8
0
100
AcDbBlockBegin
  2
_ARCHTICK
 70
0
 10
0.0
 20
0.0
 30
0.0
  3
_ARCHTICK
  1

  0
LWPOLYLINE
  5
DA
100
AcDbEntity
  8
0
 62
0
370
-1
 48
1.0
  6
ByBlock
100
AcDbPolyline
 90
2
 70
0
 10
-0.5
 20
-0.5
 10
0.5
 20
0.5
  0
ENDBLK
  5
DB
100
AcDbEntity
  8
0
100
AcDbBlockEnd
  0
ENDSEC
  0
SECTION
  2
ENTITIES
  0
TEXT
  5
DC
100
AcDbEntity
  8
ARQ_TEXTOS
 62
256
370
-1
 48
1.0
  6
ByLayer
100
AcDbText
 10
6.0
 20
6.9052499999999997
 30
0.0
 40
0.23
  1
AMBIENTE
 50
0.0
 41
1.0
  7
textstyle59
 71
0
 72
1
 11
6.0
 21
6.9052499999999997
 31
0.0
100
AcDbText
 73
2
  0
TEXT
  5
DD
100
AcDbEntity
  8
ARQ_TEXTOS
 62
256
370
-1
 48
1.0
  6
ByLayer
100
AcDbText
 10
6.0
 20
6.5947499999999986
 30
0.0
 40
0.23
  1
SUPERIOR 1
 50
0.0
 41
1.0
  7
textstyle50
 71
0
 72
1
 11
6.0
 21
6.5947499999999986
 31
0.0
100
AcDbText
 73
2
  0
TEXT
  5
DE
100
AcDbEntity
  8
ARQ_TEXTOS
 62
256
370
-1
 48
1.0
  6
ByLayer
100
AcDbText
 10
12.0
 20
6.9052499999999997
 30
0.0
 40
0.23
  1
AMBIENTE
 50
0.0
 41
1.0
  7
textstyle22
 71
0
 72
1
 11
12.0
 21
6.9052499999999997
 31
0.0
100
AcDbText
 73
2
  0
TEXT
  5
DF
100
AcDbEntity
  8
ARQ_TEXTOS
 62
256
370
-1
 48
1.0
  6
ByLayer
100
AcDbText
 10
12.0
 20
6.5947499999999986
 30
0.0
 40
0.23
  1
SUPERIOR 2
 50
0.0
 41
1.0
  7
textstyle12
 71
0
 72
1
 11
12.0
 21
6.5947499999999986
 31
0.0
100
AcDbText
 73
2
  0
TEXT
  5
E0
100
AcDbEntity
  8
ARQ_TEXTOS
 62
256
370
-1
 48
1.0
  6
ByLayer
100
AcDbText
 10
9.0
 20
2.25
 30
0.0
 40
0.32
  1
GARAGE
 50
0.0
 41
1.0
  7
textstyle30
 71
0
 72
1
 11
9.0
 21
2.25
 31
0.0
100
AcDbText
 73
2
  0
LINE
  5
E1
100
AcDbEntity
  8
ARQ_MUROS
 62
256
370
-1
 48
1.0
  6
ByLayer
100
AcDbLine
 10
0.0
 20
-0.075
 30
0.0
 11
15.0
 21
-0.075
 31
0.0
  0
LINE
  5
E2
100
AcDbEntity
  8
ARQ_MUROS
 62
256
370
-1
 48
1.0
  6
ByLayer
100
AcDbLine
 10
0.0
 20
0.075
 30
0.0
 11
15.0
 21
0.075
 31
0.0
  0
LINE
  5
E3
100
AcDbEntity
  8
ARQ_MUROS
 62
256
370
-1
 48
1.0
  6
ByLayer
100
AcDbLine
 10
14.9250000000000007
 20
0.0
 30
0.0
 11
14.9250000000000007
 21
9.0
 31
0.0
  0
LINE
  5
E4
100
AcDbEntity
  8
ARQ_MUROS
 62
256
370
-1
 48
1.0
  6
ByLayer
100
AcDbLine
 10
15.0749999999999993
 20
0.0
 30
0.0
 11
15.0749999999999993
 21
9.0
 31
0.0
  0
LINE
  5
E5
100
AcDbEntity
  8
ARQ_MUROS
 62
256
370
-1
 48
1.0
  6
ByLayer
100
AcDbLine
 10
15.0
 20
8.9250000000000007
 30
0.0
 11
0.0
 21
8.9250000000000007
 31
0.0
  0
LINE
  5
E6
100
AcDbEntity
  8
ARQ_MUROS
 62
256
370
-1
 48
1.0
  6
ByLayer
100
AcDbLine
 10
15.0
 20
9.0749999999999993
 30
0.0
 11
0.0
 21
9.0749999999999993
 31
0.0
  0
LINE
  5
E7
100
AcDbEntity
  8
ARQ_MUROS
 62
256
370
-1
 48
1.0
  6
ByLayer
100
AcDbLine
 10
-0.075
 20
9.0
 30
0.0
 11
-0.075
 21
0.0
 31
0.0
  0
LINE
  5
E8
100
AcDbEntity
  8
ARQ_MUROS
 62
256
370
-1
 48
1.0
  6
ByLayer
100
AcDbLine
 10
0.075
 20
9.0
 30
0.0
 11
0.075
 21
0.0
 31
0.0
  0
LINE
  5
E9
100
AcDbEntity
  8
ARQ_MUROS
 62
256
370
-1
 48
1.0
  6
ByLayer
100
AcDbLine
 10
0.0
 20
4.4249999999999998
 30
0.0
 11
1.7
 21
4.4249999999999998
 31
0.0
  0
LINE
  5
EA
100
AcDbEntity
  8
ARQ_MUROS
 62
256
370
-1
 48
1.0
  6
ByLayer
100
AcDbLine
 10
0.0
 20
4.5750000000000002
 30
0.0
 11
1.7
 21
4.5750000000000002
 31
0.0
  0
LINE
  5
EB
100
AcDbEntity
  8
ARQ_MUROS
 62
256
370
-1
 48
1.0
  6
ByLayer
100
AcDbLine
 10
2.5
 20
4.5750000000000002
 30
0.0
 11
3.0
 21
4.5750000000000002
 31
0.0
  0
LINE
  5
EC
100
AcDbEntity
  8
ARQ_MUROS
 62
256
370
-1
 48
1.0
  6
ByLayer
100
AcDbLine
 10
4.0999999999999996
 20
4.4249999999999998
 30
0.0
 11
11.8000000000000007
 21
4.4249999999999998
 31
0.0
  0
LINE
  5
ED
100
AcDbEntity
  8
ARQ_MUROS
 62
256
370
-1
 48
1.0
  6
ByLayer
100
AcDbLine
 10
4.0999999999999996
 20
4.5750000000000002
 30
0.0
 11
11.8000000000000007
 21
4.5750000000000002
 31
0.0
  0
LINE
  5
EE
100
AcDbEntity
  8
ARQ_MUROS
 62
256
370
-1
 48
1.0
  6
ByLayer
100
AcDbLine
 10
12.6999999999999993
 20
4.4249999999999998
 30
0.0
 11
15.0
 21
4.4249999999999998
 31
0.0
  0
LINE
  5
EF
100
AcDbEntity
  8
ARQ_MUROS
 62
256
370
-1
 48
1.0
  6
ByLayer
100
AcDbLine
 10
12.6999999999999993
 20
4.5750000000000002
 30
0.0
 11
15.0
 21
4.5750000000000002
 31
0.0
  0
LINE
  5
F0
100
AcDbEntity
  8
ARQ_MUROS
 62
256
370
-1
 48
1.0
  6
ByLayer
100
AcDbLine
 10
2.9249999999999998
 20
4.5
 30
0.0
 11
2.9249999999999998
 21
9.0
 31
0.0
  0
LINE
  5
F1
100
AcDbEntity
  8
ARQ_MUROS
 62
256
370
-1
 48
1.0
  6
ByLayer
100
AcDbLine
 10
3.0750000000000002
 20
4.5
 30
0.0
 11
3.0750000000000002
 21
9.0
 31
0.0
  0
LINE
  5
F2
100
AcDbEntity
  8
ARQ_MUROS
 62
256
370
-1
 48
1.0
  6
ByLayer
100
AcDbLine
 10
8.9250000000000007
 20
4.5
 30
0.0
 11
8.9250000000000007
 21
9.0
 31
0.0
  0
LINE
  5
F3
100
AcDbEntity
  8
ARQ_MUROS
 62
256
370
-1
 48
1.0
  6
ByLayer
100
AcDbLine
 10
9.0749999999999993
 20
4.5
 30
0.0
 11
9.0749999999999993
 21
9.0
 31
0.0
  0
LINE
  5
F4
100
AcDbEntity
  8
ARQ_MUROS
 62
256
370
-1
 48
1.0
  6
ByLayer
100
AcDbLine
 10
0.0
 20
6.9249999999999998
 30
0.0
 11
3.0
 21
6.9249999999999998
 31
0.0
  0
LINE
  5
F5
100
AcDbEntity
  8
ARQ_MUROS
 62
256
370
-1
 48
1.0
  6
ByLayer
100
AcDbLine
 10
0.0
 20
7.0750000000000002
 30
0.0
 11
3.0
 21
7.0750000000000002
 31
0.0
  0
LINE
  5
F6
100
AcDbEntity
  8
ARQ_MUROS
 62
256
370
-1
 48
1.0
  6
ByLayer
100
AcDbLine
 10
1.325
 20
4.5
 30
0.0
 11
1.325
 21
7.0
 31
0.0
  0
LINE
  5
F7
100
AcDbEntity
  8
ARQ_MUROS
 62
256
370
-1
 48
1.0
  6
ByLayer
100
AcDbLine
 10
1.4750000000000001
 20
4.5
 30
0.0
 11
1.4750000000000001
 21
7.0
 31
0.0
  0
LINE
  5
F8
100
AcDbEntity
  8
ARQ_PUERTAS
 62
256
370
-1
 48
1.0
  6
ByLayer
100
AcDbLine
 10
2.5
 20
4.5
 30
0.0
 11
2.5
 21
5.2999999999999998
 31
0.0
  0
ARC
  5
F9
100
AcDbEntity
  8
ARQ_PUERTAS
 62
256
370
-1
 48
1.0
  6
ByLayer
100
AcDbCircle
 10
2.5
 20
4.5
 30
0.0
 40
0.8
100
AcDbArc
 50
90.0
 51
180.0
  0
LINE
  5
FA
100
AcDbEntity
  8
ARQ_PUERTAS
 62
256
370
-1
 48
1.0
  6
ByLayer
100
AcDbLine
 10
3.2000000000000002
 20
4.5
 30
0.0
 11
3.2000000000000002
 21
5.4000000000000004
 31
0.0
  0
ARC
  5
FB
100
AcDbEntity
  8
ARQ_PUERTAS
 62
256
370
-1
 48
1.0
  6
ByLayer
100
AcDbCircle
 10
3.2000000000000002
 20
4.5
 30
0.0
 40
0.9
100
AcDbArc
 50
0.0
 51
90.0
  0
LINE
  5
FC
100
AcDbEntity
  8
ARQ_PUERTAS
 62
256
370
-1
 48
1.0
  6
ByLayer
100
AcDbLine
 10
11.8000000000000007
 20
4.5
 30
0.0
 11
11.8000000000000007
 21
5.4000000000000004
 31
0.0
  0
ARC
  5
FD
100
AcDbEntity
  8
ARQ_PUERTAS
 62
256
370
-1
 48
1.0
  6
ByLayer
100
AcDbCircle
 10
11.8000000000000007
 20
4.5
 30
0.0
 40
0.9
100
AcDbArc
 50
0.0
 51
90.0
  0
LINE
  5
FE
100
AcDbEntity
  8
ARQ_TRAMAS
 62
256
370
-1
 48
1.0
  6
ByLayer
100
AcDbLine
 10
0.1499999999999999
 20
4.0500000000000007
 30
0.0
 11
0.4499999999999997
 21
4.3500000000000014
 31
0.0
  0
LINE
  5
FF
100
AcDbEntity
  8
ARQ_TRAMAS
 62
256
370
-1
 48
1.0
  6
ByLayer
100
AcDbLine
 10
0.1499999999999999
 20
3.75
 30
0.0
 11
0.7499999999999996
 21
4.3500000000000014
 31
0.0
  0
LINE
  5
100
100
AcDbEntity
  8
ARQ_TRAMAS
 62
256
370
-1
 48
1.0
  6
ByLayer
100
AcDbLine
 10
0.1499999999999999
 20
3.4500000000000011
 30
0.0
 11
1.0499999999999989
 21
4.3500000000000014
 31
0.0
  0
LINE
  5
101
100
AcDbEntity
  8
ARQ_TRAMAS
 62
256
370
-1
 48
1.0
  6
ByLayer
100
AcDbLine
 10
0.1499999999999999
 20
3.1500000000000008
 30
0.0
 11
1.349999999999999
 21
4.3500000000000014
 31
0.0
  0
LINE
  5
102
100
AcDbEntity
  8
ARQ_TRAMAS
 62
256
370
-1
 48
1.0
  6
ByLayer
100
AcDbLine
 10
0.1499999999999999
 20
2.850000000000001
 30
0.0
 11
1.649999999999999
 21
4.3500000000000014
 31
0.0
  0
LINE
  5
103
100
AcDbEntity
  8
ARQ_TRAMAS
 62
256
370
-1
 48
1.0
  6
ByLayer
100
AcDbLine
 10
0.1499999999999999
 20
2.5500000000000012
 30
0.0
 11
1.9499999999999991
 21
4.3500000000000014
 31
0.0
  0
LINE
  5
104
100
AcDbEntity
  8
ARQ_TRAMAS
 62
256
370
-1
 48
1.0
  6
ByLayer
100
AcDbLine
 10
0.1499999999999999
 20
2.2500000000000009
 30
0.0
 11
2.2499999999999991
 21
4.3500000000000014
 31
0.0
  0
LINE
  5
105
100
AcDbEntity
  8
ARQ_TRAMAS
 62
256
370
-1
 48
1.0
  6
ByLayer
100
AcDbLine
 10
0.1499999999999999
 20
1.9500000000000011
 30
0.0
 11
2.5499999999999989
 21
4.3500000000000014
 31
0.0
  0
LINE
  5
106
100
AcDbEntity
  8
ARQ_TRAMAS
 62
256
370
-1
 48
1.0
  6
ByLayer
100
AcDbLine
 10
0.1499999999999999
 20
1.650000000000001
 30
0.0
 11
2.8499999999999992
 21
4.3500000000000014
 31
0.0
  0
LINE
  5
107
100
AcDbEntity
  8
ARQ_TRAMAS
 62
256
370
-1
 48
1.0
  6
ByLayer
100
AcDbLine
 10
0.1499999999999999
 20
1.350000000000001
 30
0.0
 11
2.8500000000000001
 21
4.0500000000000016
 31
0.0
  0
LINE
  5
108
100
AcDbEntity
  8
ARQ_TRAMAS
 62
256
370
-1
 48
1.0
  6
ByLayer
100
AcDbLine
 10
0.15
 20
1.0500000000000009
 30
0.0
 11
2.8500000000000001
 21
3.7500000000000009
 31
0.0
  0
LINE
  5
109
100
AcDbEntity
  8
ARQ_TRAMAS
 62
256
370
-1
 48
1.0
  6
ByLayer
100
AcDbLine
 10
0.15
 20
0.7500000000000012
 30
0.0
 11
2.850000000000001
 21
3.450000000000002
 31
0.0
  0
LINE
  5
10A
100
AcDbEntity
  8
ARQ_TRAMAS
 62
256
370
-1
 48
1.0
  6
ByLayer
100
AcDbLine
 10
0.15
 20
0.4500000000000012
 30
0.0
 11
2.8500000000000001
 21
3.1500000000000008
 31
0.0
  0
LINE
  5
10B
100
AcDbEntity
  8
ARQ_TRAMAS
 62
256
370
-1
 48
1.0
  6
ByLayer
100
AcDbLine
 10
0.15
 20
0.1500000000000012
 30
0.0
 11
2.8500000000000001
 21
2.850000000000001
 31
0.0
  0
LINE
  5
10C
100
AcDbEntity
  8
ARQ_TRAMAS
 62
256
370
-1
 48
1.0
  6
ByLayer
100
AcDbLine
 10
0.4499999999999987
 20
0.15
 30
0.0
 11
2.8500000000000001
 21
2.5500000000000012
 31
0.0
  0
LINE
  5
10D
100
AcDbEntity
  8
ARQ_TRAMAS
 62
256
370
-1
 48
1.0
  6
ByLayer
100
AcDbLine
 10
0.7499999999999988
 20
0.15
 30
0.0
 11
2.8500000000000001
 21
2.2500000000000009
 31
0.0
  0
LINE
  5
10E
100
AcDbEntity
  8
ARQ_TRAMAS
 62
256
370
-1
 48
1.0
  6
ByLayer
100
AcDbLine
 10
1.0499999999999989
 20
0.15
 30
0.0
 11
2.8500000000000001
 21
1.9500000000000011
 31
0.0
  0
LINE
  5
10F
100
AcDbEntity
  8
ARQ_TRAMAS
 62
256
370
-1
 48
1.0
  6
ByLayer
100
AcDbLine
 10
1.349999999999999
 20
0.15
 30
0.0
 11
2.8500000000000001
 21
1.650000000000001
 31
0.0
  0
LINE
  5
110
100
AcDbEntity
  8
ARQ_TRAMAS
 62
256
370
-1
 48
1.0
  6
ByLayer
100
AcDbLine
 10
1.649999999999999
 20
0.15
 30
0.0
 11
2.8500000000000001
 21
1.350000000000001
 31
0.0
  0
LINE
  5
111
100
AcDbEntity
  8
ARQ_TRAMAS
 62
256
370
-1
 48
1.0
  6
ByLayer
100
AcDbLine
 10
1.9499999999999991
 20
0.15
 30
0.0
 11
2.8500000000000001
 21
1.0500000000000009
 31
0.0
  0
LINE
  5
112
100
AcDbEntity
  8
ARQ_TRAMAS
 62
256
370
-1
 48
1.0
  6
ByLayer
100
AcDbLine
 10
2.2499999999999991
 20
0.15
 30
0.0
 11
2.8500000000000001
 21
0.7500000000000014
 31
0.0
  0
LINE
  5
113
100
AcDbEntity
  8
ARQ_TRAMAS
 62
256
370
-1
 48
1.0
  6
ByLayer
100
AcDbLine
 10
2.549999999999998
 20
0.15
 30
0.0
 11
2.8500000000000001
 21
0.4500000000000016
 31
0.0
  0
LINE
  5
114
100
AcDbEntity
  8
ARQ_TRAMAS
 62
256
370
-1
 48
1.0
  6
ByLayer
100
AcDbLine
 10
2.8499999999999979
 20
0.15
 30
0.0
 11
2.8500000000000001
 21
0.1500000000000018
 31
0.0
  0
LINE
  5
115
100
AcDbEntity
  8
ARQ_ESCALERAS
 62
256
370
-1
 48
1.0
  6
ByLayer
100
AcDbLine
 10
0.25
 20
4.8499999999999996
 30
0.0
 11
1.3500000000000001
 21
4.8499999999999996
 31
0.0
  0
LINE
  5
116
100
AcDbEntity
  8
ARQ_ESCALERAS
 62
256
370
-1
 48
1.0
  6
ByLayer
100
AcDbLine
 10
0.25
 20
5.25
 30
0.0
 11
1.3500000000000001
 21
5.25
 31
0.0
  0
LINE
  5
117
100
AcDbEntity
  8
ARQ_ESCALERAS
 62
256
370
-1
 48
1.0
  6
ByLayer
100
AcDbLine
 10
0.25
 20
5.6500000000000004
 30
0.0
 11
1.3500000000000001
 21
5.6500000000000004
 31
0.0
  0
LINE
  5
118
100
AcDbEntity
  8
ARQ_ESCALERAS
 62
256
370
-1
 48
1.0
  6
ByLayer
100
AcDbLine
 10
0.25
 20
6.0499999999999998
 30
0.0
 11
1.3500000000000001
 21
6.0499999999999998
 31
0.0
  0
LINE
  5
119
100
AcDbEntity
  8
ARQ_ESCALERAS
 62
256
370
-1
 48
1.0
  6
ByLayer
100
AcDbLine
 10
0.25
 20
6.4500000000000002
 30
0.0
 11
1.3500000000000001
 21
6.4500000000000002
 31
0.0
  0
LINE
  5
11A
100
AcDbEntity
  8
ARQ_ESCALERAS
 62
256
370
-1
 48
1.0
  6
ByLayer
100
AcDbLine
 10
0.25
 20
4.6500000000000004
 30
0.0
 11
0.25
 21
6.8499999999999996
 31
0.0
  0
LINE
  5
11B
100
AcDbEntity
  8
ARQ_ESCALERAS
 62
256
370
-1
 48
1.0
  6
ByLayer
100
AcDbLine
 10
1.3500000000000001
 20
4.6500000000000004
 30
0.0
 11
1.3500000000000001
 21
6.8499999999999996
 31
0.0
  0
LINE
  5
11C
100
AcDbEntity
  8
ARQ_ESCALERAS
 62
256
370
-1
 48
1.0
  6
ByLayer
100
AcDbLine
 10
0.72
 20
4.8499999999999996
 30
0.0
 11
0.72
 21
6.4500000000000002
 31
0.0
  0
LINE
  5
11D
100
AcDbEntity
  8
ARQ_ESCALERAS
 62
256
370
-1
 48
1.0
  6
ByLayer
100
AcDbLine
 10
0.62
 20
6.2999999999999998
 30
0.0
 11
0.72
 21
6.4500000000000002
 31
0.0
  0
LINE
  5
11E
100
AcDbEntity
  8
ARQ_ESCALERAS
 62
256
370
-1
 48
1.0
  6
ByLayer
100
AcDbLine
 10
0.82
 20
6.2999999999999998
 30
0.0
 11
0.72
 21
6.4500000000000002
 31
0.0
  0
LINE
  5
11F
100
AcDbEntity
  8
ELEC_COTAS_REF
 62
256
370
-1
 48
1.0
  6
ByLayer
100
AcDbLine
 10
0.0
 20
-1.0
 30
0.0
 11
15.0
 21
-1.0
 31
0.0
  0
LINE
  5
120
100
AcDbEntity
  8
ELEC_COTAS_REF
 62
256
370
-1
 48
1.0
  6
ByLayer
100
AcDbLine
 10
0.0
 20
0.0
 30
0.0
 11
0.0
 21
-1.1000000000000001
 31
0.0
  0
LINE
  5
121
100
AcDbEntity
  8
ELEC_COTAS_REF
 62
256
370
-1
 48
1.0
  6
ByLayer
100
AcDbLine
 10
15.0
 20
0.0
 30
0.0
 11
15.0
 21
-1.1000000000000001
 31
0.0
  0
LINE
  5
122
100
AcDbEntity
  8
ELEC_COTAS_REF
 62
256
370
-1
 48
1.0
  6
ByLayer
100
AcDbLine
 10
-0.12
 20
-1.1200000000000001
 30
0.0
 11
0.12
 21
-0.88
 31
0.0
  0
LINE
  5
123
100
AcDbEntity
  8
ELEC_COTAS_REF
 62
256
370
-1
 48
1.0
  6
ByLayer
100
AcDbLine
 10
14.8800000000000008
 20
-1.1200000000000001
 30
0.0
 11
15.1199999999999992
 21
-0.88
 31
0.0
  0
TEXT
  5
124
100
AcDbEntity
  8
ELEC_COTAS_REF
 62
256
370
-1
 48
1.0
  6
ByLayer
100
AcDbText
 10
7.5
 20
-1.3500000000000001
 30
0.0
 40
0.18
  1
ANCHO TOTAL: 15.00 m
 50
0.0
 41
1.0
  7
textstyle26
 71
0
 72
1
 11
7.5
 21
-1.3500000000000001
 31
0.0
100
AcDbText
 73
2
  0
LINE
  5
125
100
AcDbEntity
  8
ELEC_COTAS_REF
 62
256
370
-1
 48
1.0
  6
ByLayer
100
AcDbLine
 10
-1.0
 20
0.0
 30
0.0
 11
-1.0
 21
9.0
 31
0.0
  0
LINE
  5
126
100
AcDbEntity
  8
ELEC_COTAS_REF
 62
256
370
-1
 48
1.0
  6
ByLayer
100
AcDbLine
 10
0.0
 20
0.0
 30
0.0
 11
-1.1000000000000001
 21
0.0
 31
0.0
  0
LINE
  5
127
100
AcDbEntity
  8
ELEC_COTAS_REF
 62
256
370
-1
 48
1.0
  6
ByLayer
100
AcDbLine
 10
0.0
 20
9.0
 30
0.0
 11
-1.1000000000000001
 21
9.0
 31
0.0
  0
LINE
  5
128
100
AcDbEntity
  8
ELEC_COTAS_REF
 62
256
370
-1
 48
1.0
  6
ByLayer
100
AcDbLine
 10
-1.1200000000000001
 20
-0.12
 30
0.0
 11
-0.88
 21
0.12
 31
0.0
  0
LINE
  5
129
100
AcDbEntity
  8
ELEC_COTAS_REF
 62
256
370
-1
 48
1.0
  6
ByLayer
100
AcDbLine
 10
-1.1200000000000001
 20
8.8800000000000008
 30
0.0
 11
-0.88
 21
9.1199999999999992
 31
0.0
  0
TEXT
  5
12A
100
AcDbEntity
  8
ELEC_COTAS_REF
 62
256
370
-1
 48
1.0
  6
ByLayer
100
AcDbText
 10
-1.3500000000000001
 20
4.5
 30
0.0
 40
0.18
  1
ALTO TOTAL: 9.00 m
 50
90.0
 41
1.0
  7
textstyle6
 71
0
 72
1
 11
-1.3500000000000001
 21
4.5
 31
0.0
100
AcDbText
 73
2
  0
LINE
  5
12B
100
AcDbEntity
  8
ELEC_COTAS_REF
 62
256
370
-1
 48
1.0
  6
ByLayer
100
AcDbLine
 10
-1.0
 20
4.5
 30
0.0
 11
-1.0
 21
9.0
 31
0.0
  0
LINE
  5
12C
100
AcDbEntity
  8
ELEC_COTAS_REF
 62
256
370
-1
 48
1.0
  6
ByLayer
100
AcDbLine
 10
0.0
 20
4.5
 30
0.0
 11
-1.1000000000000001
 21
4.5
 31
0.0
  0
LINE
  5
12D
100
AcDbEntity
  8
ELEC_COTAS_REF
 62
256
370
-1
 48
1.0
  6
ByLayer
100
AcDbLine
 10
0.0
 20
9.0
 30
0.0
 11
-1.1000000000000001
 21
9.0
 31
0.0
  0
LINE
  5
12E
100
AcDbEntity
  8
ELEC_COTAS_REF
 62
256
370
-1
 48
1.0
  6
ByLayer
100
AcDbLine
 10
-1.1200000000000001
 20
4.3799999999999999
 30
0.0
 11
-0.88
 21
4.6200000000000001
 31
0.0
  0
LINE
  5
12F
100
AcDbEntity
  8
ELEC_COTAS_REF
 62
256
370
-1
 48
1.0
  6
ByLayer
100
AcDbLine
 10
-1.1200000000000001
 20
8.8800000000000008
 30
0.0
 11
-0.88
 21
9.1199999999999992
 31
0.0
  0
TEXT
  5
130
100
AcDbEntity
  8
ELEC_COTAS_REF
 62
256
370
-1
 48
1.0
  6
ByLayer
100
AcDbText
 10
-1.3500000000000001
 20
6.75
 30
0.0
 40
0.18
  1
4.50 m
 50
90.0
 41
1.0
  7
textstyle21
 71
0
 72
1
 11
-1.3500000000000001
 21
6.75
 31
0.0
100
AcDbText
 73
2
  0
TEXT
  5
131
100
AcDbEntity
  8
ARQ_ANOTACIONES
 62
256
370
-1
 48
1.0
  6
ByLayer
100
AcDbText
 10
1.5
 20
2.3214999999999999
 30
0.0
 40
0.18
  1
AREA SIN
 50
0.0
 41
1.0
  7
textstyle73
 71
0
 72
1
 11
1.5
 21
2.3214999999999999
 31
0.0
100
AcDbText
 73
2
  0
TEXT
  5
132
100
AcDbEntity
  8
ARQ_ANOTACIONES
 62
256
370
-1
 48
1.0
  6
ByLayer
100
AcDbText
 10
1.5
 20
2.0785
 30
0.0
 40
0.18
  1
TECHO
 50
0.0
 41
1.0
  7
textstyle46
 71
0
 72
1
 11
1.5
 21
2.0785
 31
0.0
100
AcDbText
 73
2
  0
LINE
  5
133
100
AcDbEntity
  8
MARCO
 62
256
370
-1
 48
1.0
  6
ByLayer
100
AcDbLine
 10
-1.2
 20
-1.2
 30
0.0
 11
16.1999999999999993
 21
-1.2
 31
0.0
  0
LINE
  5
134
100
AcDbEntity
  8
MARCO
 62
256
370
-1
 48
1.0
  6
ByLayer
100
AcDbLine
 10
16.1999999999999993
 20
-1.2
 30
0.0
 11
16.1999999999999993
 21
10.1999999999999993
 31
0.0
  0
LINE
  5
135
100
AcDbEntity
  8
MARCO
 62
256
370
-1
 48
1.0
  6
ByLayer
100
AcDbLine
 10
16.1999999999999993
 20
10.1999999999999993
 30
0.0
 11
-1.2
 21
10.1999999999999993
 31
0.0
  0
LINE
  5
136
100
AcDbEntity
  8
MARCO
 62
256
370
-1
 48
1.0
  6
ByLayer
100
AcDbLine
 10
-1.2
 20
10.1999999999999993
 30
0.0
 11
-1.2
 21
-1.2
 31
0.0
  0
LINE
  5
137
100
AcDbEntity
  8
MARCO
 62
256
370
-1
 48
1.0
  6
ByLayer
100
AcDbLine
 10
-1.1200000000000001
 20
-1.1200000000000001
 30
0.0
 11
16.120000000000001
 21
-1.1200000000000001
 31
0.0
  0
LINE
  5
138
100
AcDbEntity
  8
MARCO
 62
256
370
-1
 48
1.0
  6
ByLayer
100
AcDbLine
 10
16.120000000000001
 20
-1.1200000000000001
 30
0.0
 11
16.120000000000001
 21
10.1199999999999992
 31
0.0
  0
LINE
  5
139
100
AcDbEntity
  8
MARCO
 62
256
370
-1
 48
1.0
  6
ByLayer
100
AcDbLine
 10
16.120000000000001
 20
10.1199999999999992
 30
0.0
 11
-1.1200000000000001
 21
10.1199999999999992
 31
0.0
  0
LINE
  5
13A
100
AcDbEntity
  8
MARCO
 62
256
370
-1
 48
1.0
  6
ByLayer
100
AcDbLine
 10
-1.1200000000000001
 20
10.1199999999999992
 30
0.0
 11
-1.1200000000000001
 21
-1.1200000000000001
 31
0.0
  0
TEXT
  5
13B
100
AcDbEntity
  8
ELEC_TEXTOS
 62
256
370
-1
 48
1.0
  6
ByLayer
100
AcDbText
 10
7.5
 20
10.8499999999999996
 30
0.0
 40
0.28
  1
PLANO ELECTRICO - PISO 1 V7
 50
0.0
 41
1.0
  7
textstyle31
 71
0
 72
1
 11
7.5
 21
10.8499999999999996
 31
0.0
100
AcDbText
 73
2
  0
TEXT
  5
13C
100
AcDbEntity
  8
ELEC_TEXTOS
 62
256
370
-1
 48
1.0
  6
ByLayer
100
AcDbText
 10
7.5
 20
10.4900000000000002
 30
0.0
 40
0.16
  1
Casa de Aquiles - primer nivel
 50
0.0
 41
1.0
  7
textstyle34
 71
0
 72
1
 11
7.5
 21
10.4900000000000002
 31
0.0
100
AcDbText
 73
2
  0
LWPOLYLINE
  5
13D
100
AcDbEntity
  8
ELEC_CANALIZACION
 62
256
370
-1
 48
1.0
  6
DASHED
100
AcDbPolyline
 90
2
 70
0
 10
15.4499999999999993
 20
4.75
 10
14.3499999999999996
 20
4.75
  0
LWPOLYLINE
  5
13E
100
AcDbEntity
  8
ELEC_CIRCUITO_C1
 62
256
370
-1
 48
1.0
  6
DASHED
100
AcDbPolyline
 90
3
 70
0
 10
14.3499999999999996
 20
4.75
 10
14.3499999999999996
 20
2.25
 10
11.0
 20
2.25
  0
LWPOLYLINE
  5
13F
100
AcDbEntity
  8
ELEC_CIRCUITO_C2
 62
256
370
-1
 48
1.0
  6
DASHED
100
AcDbPolyline
 90
6
 70
0
 10
14.3499999999999996
 20
4.75
 10
14.3499999999999996
 20
8.0
 10
14.3499999999999996
 20
8.5999999999999996
 10
10.0
 20
8.5999999999999996
 10
8.1999999999999993
 20
8.5999999999999996
 10
4.0
 20
8.5999999999999996
  0
LWPOLYLINE
  5
140
100
AcDbEntity
  8
ELEC_CIRCUITO_C2
 62
256
370
-1
 48
1.0
  6
DASHED
100
AcDbPolyline
 90
5
 70
0
 10
14.3499999999999996
 20
4.75
 10
14.3499999999999996
 20
2.0
 10
14.3499999999999996
 20
0.35
 10
12.0
 20
0.35
 10
8.0
 20
0.35
  0
LWPOLYLINE
  5
141
100
AcDbEntity
  8
ELEC_CIRCUITO_C3
 62
256
370
-1
 48
1.0
  6
DASHED
100
AcDbPolyline
 90
5
 70
0
 10
14.3499999999999996
 20
4.75
 10
10.0
 20
4.75
 10
8.0
 20
4.75
 10
4.0499999999999998
 20
4.75
 10
4.0499999999999998
 20
4.8499999999999996
  0
TEXT
  5
142
100
AcDbEntity
  8
ELEC_TEXTOS
 62
256
370
-1
 48
1.0
  6
ByLayer
100
AcDbText
 10
3.0
 20
1.03
 30
0.0
 40
0.12
  1
C8 bomba exterior
 50
0.0
 41
1.0
  7
textstyle0
 71
0
 72
1
 11
3.0
 21
1.03
 31
0.0
100
AcDbText
 73
2
  0
LWPOLYLINE
  5
143
100
AcDbEntity
  8
ELEC_CANALIZACION
 62
256
370
-1
 48
1.0
  6
DASHED
100
AcDbPolyline
 90
2
 70
0
 10
7.0
 20
0.0
 10
7.0
 20
4.5
  0
TEXT
  5
144
100
AcDbEntity
  8
ELEC_TEXTOS
 62
256
370
-1
 48
1.0
  6
ByLayer
100
AcDbText
 10
7.25
 20
2.3500000000000001
 30
0.0
 40
0.12
  1
Limite de techo
 50
0.0
 41
1.0
  7
textstyle47
 71
0
 72
1
 11
7.25
 21
2.3500000000000001
 31
0.0
100
AcDbText
 73
2
  0
TEXT
  5
145
100
AcDbEntity
  8
ELEC_TEXTOS
 62
256
370
-1
 48
1.0
  6
ByLayer
100
AcDbText
 10
0.9
 20
5.54
 30
0.0
 40
0.14
  1
C1
 50
0.0
 41
1.0
  7
textstyle5
 71
0
 72
1
 11
0.9
 21
5.54
 31
0.0
100
AcDbText
 73
2
  0
CIRCLE
  5
146
100
AcDbEntity
  8
ELEC_LUMINARIAS
 62
256
370
-1
 48
1.0
  6
ByLayer
100
AcDbCircle
 10
6.0
 20
6.7999999999999998
 30
0.0
 40
0.1
  0
CIRCLE
  5
147
100
AcDbEntity
  8
ELEC_LUMINARIAS
 62
256
370
-1
 48
1.0
  6
ByLayer
100
AcDbCircle
 10
6.0
 20
6.7999999999999998
 30
0.0
 40
0.02
  0
TEXT
  5
148
100
AcDbEntity
  8
ELEC_TEXTOS
 62
256
370
-1
 48
1.0
  6
ByLayer
100
AcDbText
 10
6.0
 20
6.4400000000000004
 30
0.0
 40
0.14
  1
C1
 50
0.0
 41
1.0
  7
textstyle60
 71
0
 72
1
 11
6.0
 21
6.4400000000000004
 31
0.0
100
AcDbText
 73
2
  0
CIRCLE
  5
149
100
AcDbEntity
  8
ELEC_LUMINARIAS
 62
256
370
-1
 48
1.0
  6
ByLayer
100
AcDbCircle
 10
12.0
 20
6.7999999999999998
 30
0.0
 40
0.1
  0
CIRCLE
  5
14A
100
AcDbEntity
  8
ELEC_LUMINARIAS
 62
256
370
-1
 48
1.0
  6
ByLayer
100
AcDbCircle
 10
12.0
 20
6.7999999999999998
 30
0.0
 40
0.02
  0
TEXT
  5
14B
100
AcDbEntity
  8
ELEC_TEXTOS
 62
256
370
-1
 48
1.0
  6
ByLayer
100
AcDbText
 10
12.0
 20
6.4400000000000004
 30
0.0
 40
0.14
  1
C1
 50
0.0
 41
1.0
  7
textstyle20
 71
0
 72
1
 11
12.0
 21
6.4400000000000004
 31
0.0
100
AcDbText
 73
2
  0
CIRCLE
  5
14C
100
AcDbEntity
  8
ELEC_LUMINARIAS
 62
256
370
-1
 48
1.0
  6
ByLayer
100
AcDbCircle
 10
11.0
 20
2.25
 30
0.0
 40
0.1
  0
CIRCLE
  5
14D
100
AcDbEntity
  8
ELEC_LUMINARIAS
 62
256
370
-1
 48
1.0
  6
ByLayer
100
AcDbCircle
 10
11.0
 20
2.25
 30
0.0
 40
0.02
  0
TEXT
  5
14E
100
AcDbEntity
  8
ELEC_TEXTOS
 62
256
370
-1
 48
1.0
  6
ByLayer
100
AcDbText
 10
11.0
 20
1.8899999999999999
 30
0.0
 40
0.14
  1
C1
 50
0.0
 41
1.0
  7
textstyle62
 71
0
 72
1
 11
11.0
 21
1.8899999999999999
 31
0.0
100
AcDbText
 73
2
  0
TEXT
  5
14F
100
AcDbEntity
  8
ELEC_TEXTOS
 62
256
370
-1
 48
1.0
  6
ByLayer
100
AcDbText
 10
1.25
 20
4.6799999999999997
 30
0.0
 40
0.14
  1
C1
 50
0.0
 41
1.0
  7
textstyle44
 71
0
 72
1
 11
1.25
 21
4.6799999999999997
 31
0.0
100
AcDbText
 73
2
  0
TEXT
  5
150
100
AcDbEntity
  8
ELEC_TEXTOS
 62
256
370
-1
 48
1.0
  6
ByLayer
100
AcDbText
 10
3.75
 20
4.6799999999999997
 30
0.0
 40
0.14
  1
C1
 50
0.0
 41
1.0
  7
textstyle68
 71
0
 72
1
 11
3.75
 21
4.6799999999999997
 31
0.0
100
AcDbText
 73
2
  0
CIRCLE
  5
151
100
AcDbEntity
  8
ELEC_INTERRUPTORES
 62
256
370
-1
 48
1.0
  6
ByLayer
100
AcDbCircle
 10
13.25
 20
5.0499999999999998
 30
0.0
 40
0.12
  0
LINE
  5
152
100
AcDbEntity
  8
ELEC_INTERRUPTORES
 62
256
370
-1
 48
1.0
  6
ByLayer
100
AcDbLine
 10
13.3300000000000001
 20
5.1299999999999999
 30
0.0
 11
13.4900000000000002
 21
5.29
 31
0.0
  0
TEXT
  5
153
100
AcDbEntity
  8
ELEC_INTERRUPTORES
 62
256
370
-1
 48
1.0
  6
ByLayer
100
AcDbText
 10
13.18333333333333
 20
4.7300000000000004
 30
0.0
 40
0.1733333333333333
  1
S
 50
0.0
 41
1.0
  7
textstyle39
 71
0
 72
1
 11
13.18333333333333
 21
4.7300000000000004
 31
0.0
100
AcDbText
 73
2
  0
TEXT
  5
154
100
AcDbEntity
  8
ELEC_TEXTOS
 62
256
370
-1
 48
1.0
  6
ByLayer
100
AcDbText
 10
13.25
 20
4.5299999999999994
 30
0.0
 40
0.14
  1
C1
 50
0.0
 41
1.0
  7
textstyle74
 71
0
 72
1
 11
13.25
 21
4.5299999999999994
 31
0.0
100
AcDbText
 73
2
  0
CIRCLE
  5
155
100
AcDbEntity
  8
ELEC_INTERRUPTORES
 62
256
370
-1
 48
1.0
  6
ByLayer
100
AcDbCircle
 10
13.8000000000000007
 20
4.25
 30
0.0
 40
0.12
  0
LINE
  5
156
100
AcDbEntity
  8
ELEC_INTERRUPTORES
 62
256
370
-1
 48
1.0
  6
ByLayer
100
AcDbLine
 10
13.8800000000000008
 20
4.3300000000000001
 30
0.0
 11
14.0399999999999991
 21
4.4900000000000002
 31
0.0
  0
TEXT
  5
157
100
AcDbEntity
  8
ELEC_INTERRUPTORES
 62
256
370
-1
 48
1.0
  6
ByLayer
100
AcDbText
 10
13.7333333333333307
 20
3.9300000000000002
 30
0.0
 40
0.1733333333333333
  1
S
 50
0.0
 41
1.0
  7
textstyle49
 71
0
 72
1
 11
13.7333333333333307
 21
3.9300000000000002
 31
0.0
100
AcDbText
 73
2
  0
TEXT
  5
158
100
AcDbEntity
  8
ELEC_TEXTOS
 62
256
370
-1
 48
1.0
  6
ByLayer
100
AcDbText
 10
13.8000000000000007
 20
3.73
 30
0.0
 40
0.14
  1
C1
 50
0.0
 41
1.0
  7
textstyle54
 71
0
 72
1
 11
13.8000000000000007
 21
3.73
 31
0.0
100
AcDbText
 73
2
  0
CIRCLE
  5
159
100
AcDbEntity
  8
ELEC_TOMACORRIENTES
 62
256
370
-1
 48
1.0
  6
ByLayer
100
AcDbCircle
 10
12.0
 20
0.35
 30
0.0
 40
0.13
  0
LINE
  5
15A
100
AcDbEntity
  8
ELEC_TOMACORRIENTES
 62
256
370
-1
 48
1.0
  6
ByLayer
100
AcDbLine
 10
11.9100000000000001
 20
0.31
 30
0.0
 11
12.0899999999999999
 21
0.31
 31
0.0
  0
LINE
  5
15B
100
AcDbEntity
  8
ELEC_TOMACORRIENTES
 62
256
370
-1
 48
1.0
  6
ByLayer
100
AcDbLine
 10
11.9100000000000001
 20
0.39
 30
0.0
 11
12.0899999999999999
 21
0.39
 31
0.0
  0
TEXT
  5
15C
100
AcDbEntity
  8
ELEC_TOMACORRIENTES
 62
256
370
-1
 48
1.0
  6
ByLayer
100
AcDbText
 10
12.2200000000000006
 20
0.2
 30
0.0
 40
0.14
  1
T
 50
0.0
 41
1.0
  7
textstyle53
 71
0
 72
1
 11
12.2200000000000006
 21
0.2
 31
0.0
100
AcDbText
 73
2
  0
TEXT
  5
15D
100
AcDbEntity
  8
ELEC_TEXTOS
 62
256
370
-1
 48
1.0
  6
ByLayer
100
AcDbText
 10
12.0
 20
-0.01
 30
0.0
 40
0.14
  1
C2
 50
0.0
 41
1.0
  7
textstyle27
 71
0
 72
1
 11
12.0
 21
-0.01
 31
0.0
100
AcDbText
 73
2
  0
CIRCLE
  5
15E
100
AcDbEntity
  8
ELEC_TOMACORRIENTES
 62
256
370
-1
 48
1.0
  6
ByLayer
100
AcDbCircle
 10
8.0
 20
0.35
 30
0.0
 40
0.13
  0
LINE
  5
15F
100
AcDbEntity
  8
ELEC_TOMACORRIENTES
 62
256
370
-1
 48
1.0
  6
ByLayer
100
AcDbLine
 10
7.9100000000000001
 20
0.31
 30
0.0
 11
8.0899999999999999
 21
0.31
 31
0.0
  0
LINE
  5
160
100
AcDbEntity
  8
ELEC_TOMACORRIENTES
 62
256
370
-1
 48
1.0
  6
ByLayer
100
AcDbLine
 10
7.9100000000000001
 20
0.39
 30
0.0
 11
8.0899999999999999
 21
0.39
 31
0.0
  0
TEXT
  5
161
100
AcDbEntity
  8
ELEC_TOMACORRIENTES
 62
256
370
-1
 48
1.0
  6
ByLayer
100
AcDbText
 10
8.2200000000000006
 20
0.2
 30
0.0
 40
0.14
  1
T
 50
0.0
 41
1.0
  7
textstyle8
 71
0
 72
1
 11
8.2200000000000006
 21
0.2
 31
0.0
100
AcDbText
 73
2
  0
TEXT
  5
162
100
AcDbEntity
  8
ELEC_TEXTOS
 62
256
370
-1
 48
1.0
  6
ByLayer
100
AcDbText
 10
8.0
 20
-0.01
 30
0.0
 40
0.14
  1
C2
 50
0.0
 41
1.0
  7
textstyle58
 71
0
 72
1
 11
8.0
 21
-0.01
 31
0.0
100
AcDbText
 73
2
  0
CIRCLE
  5
163
100
AcDbEntity
  8
ELEC_TOMACORRIENTES
 62
256
370
-1
 48
1.0
  6
ByLayer
100
AcDbCircle
 10
14.3499999999999996
 20
2.0
 30
0.0
 40
0.13
  0
LINE
  5
164
100
AcDbEntity
  8
ELEC_TOMACORRIENTES
 62
256
370
-1
 48
1.0
  6
ByLayer
100
AcDbLine
 10
14.2599999999999998
 20
1.96
 30
0.0
 11
14.4399999999999995
 21
1.96
 31
0.0
  0
LINE
  5
165
100
AcDbEntity
  8
ELEC_TOMACORRIENTES
 62
256
370
-1
 48
1.0
  6
ByLayer
100
AcDbLine
 10
14.2599999999999998
 20
2.04
 30
0.0
 11
14.4399999999999995
 21
2.04
 31
0.0
  0
TEXT
  5
166
100
AcDbEntity
  8
ELEC_TOMACORRIENTES
 62
256
370
-1
 48
1.0
  6
ByLayer
100
AcDbText
 10
14.5700000000000003
 20
1.8500000000000001
 30
0.0
 40
0.14
  1
T
 50
0.0
 41
1.0
  7
textstyle75
 71
0
 72
1
 11
14.5700000000000003
 21
1.8500000000000001
 31
0.0
100
AcDbText
 73
2
  0
TEXT
  5
167
100
AcDbEntity
  8
ELEC_TEXTOS
 62
256
370
-1
 48
1.0
  6
ByLayer
100
AcDbText
 10
14.3499999999999996
 20
1.6399999999999999
 30
0.0
 40
0.14
  1
C2
 50
0.0
 41
1.0
  7
textstyle41
 71
0
 72
1
 11
14.3499999999999996
 21
1.6399999999999999
 31
0.0
100
AcDbText
 73
2
  0
CIRCLE
  5
168
100
AcDbEntity
  8
ELEC_TOMACORRIENTES
 62
256
370
-1
 48
1.0
  6
ByLayer
100
AcDbCircle
 10
4.0
 20
8.5999999999999996
 30
0.0
 40
0.13
  0
LINE
  5
169
100
AcDbEntity
  8
ELEC_TOMACORRIENTES
 62
256
370
-1
 48
1.0
  6
ByLayer
100
AcDbLine
 10
3.9100000000000001
 20
8.5600000000000005
 30
0.0
 11
4.0899999999999999
 21
8.5600000000000005
 31
0.0
  0
LINE
  5
16A
100
AcDbEntity
  8
ELEC_TOMACORRIENTES
 62
256
370
-1
 48
1.0
  6
ByLayer
100
AcDbLine
 10
3.9100000000000001
 20
8.6399999999999988
 30
0.0
 11
4.0899999999999999
 21
8.6399999999999988
 31
0.0
  0
TEXT
  5
16B
100
AcDbEntity
  8
ELEC_TOMACORRIENTES
 62
256
370
-1
 48
1.0
  6
ByLayer
100
AcDbText
 10
4.2199999999999998
 20
8.4499999999999993
 30
0.0
 40
0.14
  1
T
 50
0.0
 41
1.0
  7
textstyle64
 71
0
 72
1
 11
4.2199999999999998
 21
8.4499999999999993
 31
0.0
100
AcDbText
 73
2
  0
TEXT
  5
16C
100
AcDbEntity
  8
ELEC_TEXTOS
 62
256
370
-1
 48
1.0
  6
ByLayer
100
AcDbText
 10
4.0
 20
8.2400000000000002
 30
0.0
 40
0.14
  1
C2
 50
0.0
 41
1.0
  7
textstyle35
 71
0
 72
1
 11
4.0
 21
8.2400000000000002
 31
0.0
100
AcDbText
 73
2
  0
CIRCLE
  5
16D
100
AcDbEntity
  8
ELEC_TOMACORRIENTES
 62
256
370
-1
 48
1.0
  6
ByLayer
100
AcDbCircle
 10
8.1999999999999993
 20
8.5999999999999996
 30
0.0
 40
0.13
  0
LINE
  5
16E
100
AcDbEntity
  8
ELEC_TOMACORRIENTES
 62
256
370
-1
 48
1.0
  6
ByLayer
100
AcDbLine
 10
8.1099999999999994
 20
8.5600000000000005
 30
0.0
 11
8.2899999999999991
 21
8.5600000000000005
 31
0.0
  0
LINE
  5
16F
100
AcDbEntity
  8
ELEC_TOMACORRIENTES
 62
256
370
-1
 48
1.0
  6
ByLayer
100
AcDbLine
 10
8.1099999999999994
 20
8.6399999999999988
 30
0.0
 11
8.2899999999999991
 21
8.6399999999999988
 31
0.0
  0
TEXT
  5
170
100
AcDbEntity
  8
ELEC_TOMACORRIENTES
 62
256
370
-1
 48
1.0
  6
ByLayer
100
AcDbText
 10
8.4199999999999999
 20
8.4499999999999993
 30
0.0
 40
0.14
  1
T
 50
0.0
 41
1.0
  7
textstyle42
 71
0
 72
1
 11
8.4199999999999999
 21
8.4499999999999993
 31
0.0
100
AcDbText
 73
2
  0
TEXT
  5
171
100
AcDbEntity
  8
ELEC_TEXTOS
 62
256
370
-1
 48
1.0
  6
ByLayer
100
AcDbText
 10
8.1999999999999993
 20
8.2400000000000002
 30
0.0
 40
0.14
  1
C2
 50
0.0
 41
1.0
  7
textstyle51
 71
0
 72
1
 11
8.1999999999999993
 21
8.2400000000000002
 31
0.0
100
AcDbText
 73
2
  0
CIRCLE
  5
172
100
AcDbEntity
  8
ELEC_TOMACORRIENTES
 62
256
370
-1
 48
1.0
  6
ByLayer
100
AcDbCircle
 10
10.0
 20
8.5999999999999996
 30
0.0
 40
0.13
  0
LINE
  5
173
100
AcDbEntity
  8
ELEC_TOMACORRIENTES
 62
256
370
-1
 48
1.0
  6
ByLayer
100
AcDbLine
 10
9.9100000000000001
 20
8.5600000000000005
 30
0.0
 11
10.0899999999999999
 21
8.5600000000000005
 31
0.0
  0
LINE
  5
174
100
AcDbEntity
  8
ELEC_TOMACORRIENTES
 62
256
370
-1
 48
1.0
  6
ByLayer
100
AcDbLine
 10
9.9100000000000001
 20
8.6399999999999988
 30
0.0
 11
10.0899999999999999
 21
8.6399999999999988
 31
0.0
  0
TEXT
  5
175
100
AcDbEntity
  8
ELEC_TOMACORRIENTES
 62
256
370
-1
 48
1.0
  6
ByLayer
100
AcDbText
 10
10.2200000000000006
 20
8.4499999999999993
 30
0.0
 40
0.14
  1
T
 50
0.0
 41
1.0
  7
textstyle9
 71
0
 72
1
 11
10.2200000000000006
 21
8.4499999999999993
 31
0.0
100
AcDbText
 73
2
  0
TEXT
  5
176
100
AcDbEntity
  8
ELEC_TEXTOS
 62
256
370
-1
 48
1.0
  6
ByLayer
100
AcDbText
 10
10.0
 20
8.2400000000000002
 30
0.0
 40
0.14
  1
C2
 50
0.0
 41
1.0
  7
textstyle3
 71
0
 72
1
 11
10.0
 21
8.2400000000000002
 31
0.0
100
AcDbText
 73
2
  0
CIRCLE
  5
177
100
AcDbEntity
  8
ELEC_TOMACORRIENTES
 62
256
370
-1
 48
1.0
  6
ByLayer
100
AcDbCircle
 10
14.3499999999999996
 20
8.0
 30
0.0
 40
0.13
  0
LINE
  5
178
100
AcDbEntity
  8
ELEC_TOMACORRIENTES
 62
256
370
-1
 48
1.0
  6
ByLayer
100
AcDbLine
 10
14.2599999999999998
 20
7.96
 30
0.0
 11
14.4399999999999995
 21
7.96
 31
0.0
  0
LINE
  5
179
100
AcDbEntity
  8
ELEC_TOMACORRIENTES
 62
256
370
-1
 48
1.0
  6
ByLayer
100
AcDbLine
 10
14.2599999999999998
 20
8.0399999999999991
 30
0.0
 11
14.4399999999999995
 21
8.0399999999999991
 31
0.0
  0
TEXT
  5
17A
100
AcDbEntity
  8
ELEC_TOMACORRIENTES
 62
256
370
-1
 48
1.0
  6
ByLayer
100
AcDbText
 10
14.5700000000000003
 20
7.8499999999999996
 30
0.0
 40
0.14
  1
T
 50
0.0
 41
1.0
  7
textstyle48
 71
0
 72
1
 11
14.5700000000000003
 21
7.8499999999999996
 31
0.0
100
AcDbText
 73
2
  0
TEXT
  5
17B
100
AcDbEntity
  8
ELEC_TEXTOS
 62
256
370
-1
 48
1.0
  6
ByLayer
100
AcDbText
 10
14.3499999999999996
 20
7.6399999999999997
 30
0.0
 40
0.14
  1
C2
 50
0.0
 41
1.0
  7
textstyle33
 71
0
 72
1
 11
14.3499999999999996
 21
7.6399999999999997
 31
0.0
100
AcDbText
 73
2
  0
CIRCLE
  5
17C
100
AcDbEntity
  8
ELEC_TOMACORRIENTES
 62
256
370
-1
 48
1.0
  6
ByLayer
100
AcDbCircle
 10
4.0499999999999998
 20
4.8499999999999996
 30
0.0
 40
0.13
  0
LINE
  5
17D
100
AcDbEntity
  8
ELEC_TOMACORRIENTES
 62
256
370
-1
 48
1.0
  6
ByLayer
100
AcDbLine
 10
3.96
 20
4.7999999999999998
 30
0.0
 11
4.1399999999999997
 21
4.7999999999999998
 31
0.0
  0
LINE
  5
17E
100
AcDbEntity
  8
ELEC_TOMACORRIENTES
 62
256
370
-1
 48
1.0
  6
ByLayer
100
AcDbLine
 10
3.96
 20
4.8499999999999996
 30
0.0
 11
4.1399999999999997
 21
4.8499999999999996
 31
0.0
  0
LINE
  5
17F
100
AcDbEntity
  8
ELEC_TOMACORRIENTES
 62
256
370
-1
 48
1.0
  6
ByLayer
100
AcDbLine
 10
3.96
 20
4.8999999999999986
 30
0.0
 11
4.1399999999999997
 21
4.8999999999999986
 31
0.0
  0
TEXT
  5
180
100
AcDbEntity
  8
ELEC_TOMACORRIENTES
 62
256
370
-1
 48
1.0
  6
ByLayer
100
AcDbText
 10
4.2699999999999996
 20
4.6999999999999993
 30
0.0
 40
0.14
  1
C
 50
0.0
 41
1.0
  7
textstyle19
 71
0
 72
1
 11
4.2699999999999996
 21
4.6999999999999993
 31
0.0
100
AcDbText
 73
2
  0
TEXT
  5
181
100
AcDbEntity
  8
ELEC_TEXTOS
 62
256
370
-1
 48
1.0
  6
ByLayer
100
AcDbText
 10
4.5
 20
4.2944999999999993
 30
0.0
 40
0.14
  1
C3
 50
0.0
 41
1.0
  7
textstyle4
 71
0
 72
1
 11
4.5
 21
4.2944999999999993
 31
0.0
100
AcDbText
 73
2
  0
TEXT
  5
182
100
AcDbEntity
  8
ELEC_TEXTOS
 62
256
370
-1
 48
1.0
  6
ByLayer
100
AcDbText
 10
4.5
 20
4.1054999999999993
 30
0.0
 40
0.14
  1
cocina
 50
0.0
 41
1.0
  7
textstyle7
 71
0
 72
1
 11
4.5
 21
4.1054999999999993
 31
0.0
100
AcDbText
 73
2
  0
LWPOLYLINE
  5
183
100
AcDbEntity
  8
ELEC_TABLERO
 62
256
370
-1
 48
1.0
  6
ByLayer
100
AcDbPolyline
 90
5
 70
0
 10
14.0333333333333297
 20
4.5599999999999996
 10
14.6666666666666696
 20
4.5599999999999996
 10
14.6666666666666696
 20
4.9400000000000004
 10
14.0333333333333297
 20
4.9400000000000004
 10
14.0333333333333297
 20
4.5599999999999996
  0
LINE
  5
184
100
AcDbEntity
  8
ELEC_TABLERO
 62
256
370
-1
 48
1.0
  6
ByLayer
100
AcDbLine
 10
14.0333333333333297
 20
4.5599999999999996
 30
0.0
 11
14.6666666666666696
 21
4.9400000000000004
 31
0.0
  0
LINE
  5
185
100
AcDbEntity
  8
ELEC_TABLERO
 62
256
370
-1
 48
1.0
  6
ByLayer
100
AcDbLine
 10
14.0333333333333297
 20
4.5599999999999996
 30
0.0
 11
14.6666666666666696
 21
4.5599999999999996
 31
0.0
  0
LINE
  5
186
100
AcDbEntity
  8
ELEC_TABLERO
 62
256
370
-1
 48
1.0
  6
ByLayer
100
AcDbLine
 10
14.6666666666666696
 20
4.5599999999999996
 30
0.0
 11
14.6666666666666696
 21
4.9400000000000004
 31
0.0
  0
LINE
  5
187
100
AcDbEntity
  8
ELEC_TABLERO
 62
256
370
-1
 48
1.0
  6
ByLayer
100
AcDbLine
 10
14.1600000000000001
 20
4.5599999999999996
 30
0.0
 11
14.6666666666666696
 21
4.8639999999999999
 31
0.0
  0
LINE
  5
188
100
AcDbEntity
  8
ELEC_TABLERO
 62
256
370
-1
 48
1.0
  6
ByLayer
100
AcDbLine
 10
14.2866666666666706
 20
4.5599999999999996
 30
0.0
 11
14.6666666666666696
 21
4.7880000000000003
 31
0.0
  0
LINE
  5
189
100
AcDbEntity
  8
ELEC_TABLERO
 62
256
370
-1
 48
1.0
  6
ByLayer
100
AcDbLine
 10
14.4133333333333304
 20
4.5599999999999996
 30
0.0
 11
14.6666666666666696
 21
4.7119999999999997
 31
0.0
  0
LINE
  5
18A
100
AcDbEntity
  8
ELEC_TABLERO
 62
256
370
-1
 48
1.0
  6
ByLayer
100
AcDbLine
 10
14.5399999999999991
 20
4.5599999999999996
 30
0.0
 11
14.6666666666666696
 21
4.6360000000000001
 31
0.0
  0
TEXT
  5
18B
100
AcDbEntity
  8
ELEC_TEXTOS
 62
256
370
-1
 48
1.0
  6
ByLayer
100
AcDbText
 10
14.3499999999999996
 20
4.75
 30
0.0
 40
0.16
  1
TG
 50
0.0
 41
1.0
  7
textstyle56
 71
0
 72
1
 11
14.3499999999999996
 21
4.75
 31
0.0
100
AcDbText
 73
2
  0
CIRCLE
  5
18C
100
AcDbEntity
  8
ELEC_MEDIDOR
 62
256
370
-1
 48
1.0
  6
ByLayer
100
AcDbCircle
 10
15.4499999999999993
 20
4.75
 30
0.0
 40
0.22
  0
TEXT
  5
18D
100
AcDbEntity
  8
ELEC_TEXTOS
 62
256
370
-1
 48
1.0
  6
ByLayer
100
AcDbText
 10
15.4499999999999993
 20
4.75
 30
0.0
 40
0.16
  1
M
 50
0.0
 41
1.0
  7
textstyle66
 71
0
 72
1
 11
15.4499999999999993
 21
4.75
 31
0.0
100
AcDbText
 73
2
  0
CIRCLE
  5
18E
100
AcDbEntity
  8
ELEC_TOMACORRIENTES
 62
256
370
-1
 48
1.0
  6
ByLayer
100
AcDbCircle
 10
-0.55
 20
1.0
 30
0.0
 40
0.18
  0
TEXT
  5
18F
100
AcDbEntity
  8
ELEC_TEXTOS
 62
256
370
-1
 48
1.0
  6
ByLayer
100
AcDbText
 10
-0.55
 20
1.0
 30
0.0
 40
0.14
  1
B
 50
0.0
 41
1.0
  7
textstyle1
 71
0
 72
1
 11
-0.55
 21
1.0
 31
0.0
100
AcDbText
 73
2
  0
TEXT
  5
190
100
AcDbEntity
  8
ELEC_TEXTOS
 62
256
370
-1
 48
1.0
  6
ByLayer
100
AcDbText
 10
-0.2000000000000001
 20
0.7
 30
0.0
 40
0.14
  1
C8
 50
0.0
 41
1.0
  7
textstyle15
 71
0
 72
1
 11
-0.2000000000000001
 21
0.7
 31
0.0
100
AcDbText
 73
2
  0
CIRCLE
  5
191
100
AcDbEntity
  8
ELEC_INTERRUPTORES
 62
256
370
-1
 48
1.0
  6
ByLayer
100
AcDbCircle
 10
1.711708436283593
 20
5.6496138596853811
 30
0.0
 40
0.12
  0
LINE
  5
192
100
AcDbEntity
  8
ELEC_INTERRUPTORES
 62
256
370
-1
 48
1.0
  6
ByLayer
100
AcDbLine
 10
1.7917084362835931
 20
5.7296138596853812
 30
0.0
 11
1.951708436283593
 21
5.8896138596853813
 31
0.0
  0
TEXT
  5
193
100
AcDbEntity
  8
ELEC_INTERRUPTORES
 62
256
370
-1
 48
1.0
  6
ByLayer
100
AcDbText
 10
1.6450417696169259
 20
5.3296138596853808
 30
0.0
 40
0.1733333333333333
  1
S3
 50
0.0
 41
1.0
  7
textstyle40
 71
0
 72
1
 11
1.6450417696169259
 21
5.3296138596853808
 31
0.0
100
AcDbText
 73
2
  0
CIRCLE
  5
194
100
AcDbEntity
  8
ELEC_LUMINARIAS
 62
256
370
-1
 48
1.0
  6
ByLayer
100
AcDbCircle
 10
1.6561143436201511
 20
8.1416772599296063
 30
0.0
 40
0.1
  0
CIRCLE
  5
195
100
AcDbEntity
  8
ELEC_LUMINARIAS
 62
256
370
-1
 48
1.0
  6
ByLayer
100
AcDbCircle
 10
1.6561143436201511
 20
8.1416772599296063
 30
0.0
 40
0.02
  0
TEXT
  5
196
100
AcDbEntity
  8
ARQ_TEXTOS
 62
256
370
-1
 48
1.0
  6
ByLayer
100
AcDbText
 10
0.9690286296468393
 20
7.3040376781482914
 30
0.0
 40
0.23
  1
ESCALERA
 50
0.0
 41
1.0
  7
textstyle71
 71
0
 72
1
 11
0.9690286296468393
 21
7.3040376781482914
 31
0.0
100
AcDbText
 73
2
  0
LWPOLYLINE
  5
197
100
AcDbEntity
  8
ELEC_CIRCUITO_C1
 62
256
370
-1
 48
1.0
  6
DASHED
100
AcDbPolyline
 90
6
 70
0
 10
14.3499999999999996
 20
4.75
 10
14.3499999999999996
 20
6.7999999999999998
 10
12.0
 20
6.7999999999999998
 10
6.0
 20
6.7999999999999998
 10
1.6571536591155529
 20
6.8217797869112653
 10
1.6565097020135431
 20
8.1417686487067904
  0
CIRCLE
  5
198
100
AcDbEntity
  8
ELEC_INTERRUPTORES
 62
256
370
-1
 48
1.0
  6
ByLayer
100
AcDbCircle
 10
4.7688475476937908
 20
5.0557572118630736
 30
0.0
 40
0.12
  0
LINE
  5
199
100
AcDbEntity
  8
ELEC_INTERRUPTORES
 62
256
370
-1
 48
1.0
  6
ByLayer
100
AcDbLine
 10
4.8488475476937909
 20
5.1357572118630737
 30
0.0
 11
5.008847547693791
 21
5.2957572118630738
 31
0.0
  0
TEXT
  5
19A
100
AcDbEntity
  8
ELEC_INTERRUPTORES
 62
256
370
-1
 48
1.0
  6
ByLayer
100
AcDbText
 10
4.7021808810271244
 20
4.7357572118630733
 30
0.0
 40
0.1733333333333333
  1
S
 50
0.0
 41
1.0
  7
textstyle69
 71
0
 72
1
 11
4.7021808810271244
 21
4.7357572118630733
 31
0.0
100
AcDbText
 73
2
  0
LINE
  5
19B
100
AcDbEntity
  8
ARQ_MUROS
 62
256
370
-1
 48
1.0
  6
ByLayer
100
AcDbLine
 10
2.5
 20
4.4249999999999998
 30
0.0
 11
3.199479650959717
 21
4.4249999999999998
 31
0.0
  0
LWPOLYLINE
  5
19C
100
AcDbEntity
  8
ELEC_LEYENDA
 62
256
370
-1
 48
1.0
  6
ByLayer
100
AcDbPolyline
 90
5
 70
0
 10
16.6499999999999986
 20
9.3499999999999996
 10
22.0500000000000007
 20
9.3499999999999996
 10
22.0500000000000007
 20
2.1999999999999988
 10
16.6499999999999986
 20
2.1999999999999988
 10
16.6499999999999986
 20
9.3499999999999996
  0
LINE
  5
19D
100
AcDbEntity
  8
ELEC_LEYENDA
 62
256
370
-1
 48
1.0
  6
ByLayer
100
AcDbLine
 10
16.6499999999999986
 20
8.8699999999999992
 30
0.0
 11
22.0500000000000007
 21
8.8699999999999992
 31
0.0
  0
TEXT
  5
19E
100
AcDbEntity
  8
ELEC_TEXTOS
 62
256
370
-1
 48
1.0
  6
ByLayer
100
AcDbText
 10
19.3500000000000014
 20
9.0700000000000003
 30
0.0
 40
0.18
  1
LEYENDA ELECTRICA
 50
0.0
 41
1.0
  7
textstyle55
 71
0
 72
1
 11
19.3500000000000014
 21
9.0700000000000003
 31
0.0
100
AcDbText
 73
2
  0
TEXT
  5
19F
100
AcDbEntity
  8
ELEC_TEXTOS
 62
256
370
-1
 48
1.0
  6
ByLayer
100
AcDbText
 10
16.870000000000001
 20
8.629999999999999
 30
0.0
 40
0.115
  1
Simbolos:
 50
0.0
 41
1.0
  7
textstyle2
 71
0
 72
0
 11
16.870000000000001
 21
8.629999999999999
 31
0.0
100
AcDbText
 73
2
  0
CIRCLE
  5
1A0
100
AcDbEntity
  8
ELEC_LUMINARIAS
 62
256
370
-1
 48
1.0
  6
ByLayer
100
AcDbCircle
 10
17.0300000000000011
 20
8.3300000000000001
 30
0.0
 40
0.105
  0
CIRCLE
  5
1A1
100
AcDbEntity
  8
ELEC_LUMINARIAS
 62
256
370
-1
 48
1.0
  6
ByLayer
100
AcDbCircle
 10
17.0300000000000011
 20
8.3300000000000001
 30
0.0
 40
0.018
  0
TEXT
  5
1A2
100
AcDbEntity
  8
ELEC_TEXTOS
 62
256
370
-1
 48
1.0
  6
ByLayer
100
AcDbText
 10
17.4299999999999997
 20
8.3300000000000001
 30
0.0
 40
0.105
  1
Soquete para foco
 50
0.0
 41
1.0
  7
textstyle13
 71
0
 72
0
 11
17.4299999999999997
 21
8.3300000000000001
 31
0.0
100
AcDbText
 73
2
  0
CIRCLE
  5
1A3
100
AcDbEntity
  8
ELEC_INTERRUPTORES
 62
256
370
-1
 48
1.0
  6
ByLayer
100
AcDbCircle
 10
17.0300000000000011
 20
7.9699999999999998
 30
0.0
 40
0.1
  0
LINE
  5
1A4
100
AcDbEntity
  8
ELEC_INTERRUPTORES
 62
256
370
-1
 48
1.0
  6
ByLayer
100
AcDbLine
 10
17.0899999999999999
 20
8.0299999999999994
 30
0.0
 11
17.2300000000000004
 21
8.1699999999999999
 31
0.0
  0
TEXT
  5
1A5
100
AcDbEntity
  8
ELEC_INTERRUPTORES
 62
256
370
-1
 48
1.0
  6
ByLayer
100
AcDbText
 10
16.9499999999999993
 20
7.7399999999999993
 30
0.0
 40
0.12
  1
S
 50
0.0
 41
1.0
  7
textstyle63
 71
0
 72
1
 11
16.9499999999999993
 21
7.7399999999999993
 31
0.0
100
AcDbText
 73
2
  0
TEXT
  5
1A6
100
AcDbEntity
  8
ELEC_TEXTOS
 62
256
370
-1
 48
1.0
  6
ByLayer
100
AcDbText
 10
17.4299999999999997
 20
7.9699999999999998
 30
0.0
 40
0.105
  1
Interruptor simple
 50
0.0
 41
1.0
  7
textstyle45
 71
0
 72
0
 11
17.4299999999999997
 21
7.9699999999999998
 31
0.0
100
AcDbText
 73
2
  0
CIRCLE
  5
1A7
100
AcDbEntity
  8
ELEC_TOMACORRIENTES
 62
256
370
-1
 48
1.0
  6
ByLayer
100
AcDbCircle
 10
17.0300000000000011
 20
7.6100000000000003
 30
0.0
 40
0.11
  0
LINE
  5
1A8
100
AcDbEntity
  8
ELEC_TOMACORRIENTES
 62
256
370
-1
 48
1.0
  6
ByLayer
100
AcDbLine
 10
16.9499999999999993
 20
7.5750000000000002
 30
0.0
 11
17.1099999999999994
 21
7.5750000000000002
 31
0.0
  0
LINE
  5
1A9
100
AcDbEntity
  8
ELEC_TOMACORRIENTES
 62
256
370
-1
 48
1.0
  6
ByLayer
100
AcDbLine
 10
16.9499999999999993
 20
7.6449999999999996
 30
0.0
 11
17.1099999999999994
 21
7.6449999999999996
 31
0.0
  0
TEXT
  5
1AA
100
AcDbEntity
  8
ELEC_TOMACORRIENTES
 62
256
370
-1
 48
1.0
  6
ByLayer
100
AcDbText
 10
17.2300000000000004
 20
7.4800000000000004
 30
0.0
 40
0.12
  1
T
 50
0.0
 41
1.0
  7
textstyle70
 71
0
 72
1
 11
17.2300000000000004
 21
7.4800000000000004
 31
0.0
100
AcDbText
 73
2
  0
TEXT
  5
1AB
100
AcDbEntity
  8
ELEC_TEXTOS
 62
256
370
-1
 48
1.0
  6
ByLayer
100
AcDbText
 10
17.4299999999999997
 20
7.6100000000000003
 30
0.0
 40
0.105
  1
Tomacorriente con tierra
 50
0.0
 41
1.0
  7
textstyle17
 71
0
 72
0
 11
17.4299999999999997
 21
7.6100000000000003
 31
0.0
100
AcDbText
 73
2
  0
CIRCLE
  5
1AC
100
AcDbEntity
  8
ELEC_TOMACORRIENTES
 62
256
370
-1
 48
1.0
  6
ByLayer
100
AcDbCircle
 10
17.0300000000000011
 20
7.25
 30
0.0
 40
0.11
  0
LINE
  5
1AD
100
AcDbEntity
  8
ELEC_TOMACORRIENTES
 62
256
370
-1
 48
1.0
  6
ByLayer
100
AcDbLine
 10
16.9499999999999993
 20
7.2000000000000002
 30
0.0
 11
17.1099999999999994
 21
7.2000000000000002
 31
0.0
  0
LINE
  5
1AE
100
AcDbEntity
  8
ELEC_TOMACORRIENTES
 62
256
370
-1
 48
1.0
  6
ByLayer
100
AcDbLine
 10
16.9499999999999993
 20
7.25
 30
0.0
 11
17.1099999999999994
 21
7.25
 31
0.0
  0
LINE
  5
1AF
100
AcDbEntity
  8
ELEC_TOMACORRIENTES
 62
256
370
-1
 48
1.0
  6
ByLayer
100
AcDbLine
 10
16.9499999999999993
 20
7.2999999999999998
 30
0.0
 11
17.1099999999999994
 21
7.2999999999999998
 31
0.0
  0
TEXT
  5
1B0
100
AcDbEntity
  8
ELEC_TOMACORRIENTES
 62
256
370
-1
 48
1.0
  6
ByLayer
100
AcDbText
 10
17.2300000000000004
 20
7.1200000000000001
 30
0.0
 40
0.12
  1
C
 50
0.0
 41
1.0
  7
textstyle52
 71
0
 72
1
 11
17.2300000000000004
 21
7.1200000000000001
 31
0.0
100
AcDbText
 73
2
  0
TEXT
  5
1B1
100
AcDbEntity
  8
ELEC_TEXTOS
 62
256
370
-1
 48
1.0
  6
ByLayer
100
AcDbText
 10
17.4299999999999997
 20
7.25
 30
0.0
 40
0.105
  1
Toma especial cocina
 50
0.0
 41
1.0
  7
textstyle65
 71
0
 72
0
 11
17.4299999999999997
 21
7.25
 31
0.0
100
AcDbText
 73
2
  0
LWPOLYLINE
  5
1B2
100
AcDbEntity
  8
ELEC_TABLERO
 62
256
370
-1
 48
1.0
  6
ByLayer
100
AcDbPolyline
 90
5
 70
0
 10
16.8599999999999994
 20
6.7900000000000009
 10
17.1999999999999993
 20
6.7900000000000009
 10
17.1999999999999993
 20
6.9900000000000002
 10
16.8599999999999994
 20
6.9900000000000002
 10
16.8599999999999994
 20
6.7900000000000009
  0
LINE
  5
1B3
100
AcDbEntity
  8
ELEC_TABLERO
 62
256
370
-1
 48
1.0
  6
ByLayer
100
AcDbLine
 10
16.8599999999999994
 20
6.7900000000000009
 30
0.0
 11
17.1999999999999993
 21
6.9900000000000002
 31
0.0
  0
LINE
  5
1B4
100
AcDbEntity
  8
ELEC_TABLERO
 62
256
370
-1
 48
1.0
  6
ByLayer
100
AcDbLine
 10
16.9499999999999993
 20
6.7900000000000009
 30
0.0
 11
17.1999999999999993
 21
6.9400000000000004
 31
0.0
  0
TEXT
  5
1B5
100
AcDbEntity
  8
ELEC_TEXTOS
 62
256
370
-1
 48
1.0
  6
ByLayer
100
AcDbText
 10
17.0300000000000011
 20
6.8900000000000006
 30
0.0
 40
0.105
  1
TG
 50
0.0
 41
1.0
  7
textstyle67
 71
0
 72
1
 11
17.0300000000000011
 21
6.8900000000000006
 31
0.0
100
AcDbText
 73
2
  0
TEXT
  5
1B6
100
AcDbEntity
  8
ELEC_TEXTOS
 62
256
370
-1
 48
1.0
  6
ByLayer
100
AcDbText
 10
17.4299999999999997
 20
6.8900000000000006
 30
0.0
 40
0.105
  1
Tablero general TG
 50
0.0
 41
1.0
  7
textstyle38
 71
0
 72
0
 11
17.4299999999999997
 21
6.8900000000000006
 31
0.0
100
AcDbText
 73
2
  0
CIRCLE
  5
1B7
100
AcDbEntity
  8
ELEC_MEDIDOR
 62
256
370
-1
 48
1.0
  6
ByLayer
100
AcDbCircle
 10
17.0300000000000011
 20
6.5300000000000002
 30
0.0
 40
0.12
  0
TEXT
  5
1B8
100
AcDbEntity
  8
ELEC_TEXTOS
 62
256
370
-1
 48
1.0
  6
ByLayer
100
AcDbText
 10
17.0300000000000011
 20
6.5300000000000002
 30
0.0
 40
0.105
  1
M
 50
0.0
 41
1.0
  7
textstyle57
 71
0
 72
1
 11
17.0300000000000011
 21
6.5300000000000002
 31
0.0
100
AcDbText
 73
2
  0
TEXT
  5
1B9
100
AcDbEntity
  8
ELEC_TEXTOS
 62
256
370
-1
 48
1.0
  6
ByLayer
100
AcDbText
 10
17.4299999999999997
 20
6.5300000000000002
 30
0.0
 40
0.105
  1
Medidor M
 50
0.0
 41
1.0
  7
textstyle24
 71
0
 72
0
 11
17.4299999999999997
 21
6.5300000000000002
 31
0.0
100
AcDbText
 73
2
  0
CIRCLE
  5
1BA
100
AcDbEntity
  8
ELEC_TOMACORRIENTES
 62
256
370
-1
 48
1.0
  6
ByLayer
100
AcDbCircle
 10
17.0300000000000011
 20
6.1699999999999999
 30
0.0
 40
0.12
  0
TEXT
  5
1BB
100
AcDbEntity
  8
ELEC_TEXTOS
 62
256
370
-1
 48
1.0
  6
ByLayer
100
AcDbText
 10
17.0300000000000011
 20
6.1699999999999999
 30
0.0
 40
0.105
  1
B
 50
0.0
 41
1.0
  7
textstyle16
 71
0
 72
1
 11
17.0300000000000011
 21
6.1699999999999999
 31
0.0
100
AcDbText
 73
2
  0
TEXT
  5
1BC
100
AcDbEntity
  8
ELEC_TEXTOS
 62
256
370
-1
 48
1.0
  6
ByLayer
100
AcDbText
 10
17.4299999999999997
 20
6.1699999999999999
 30
0.0
 40
0.105
  1
Bomba exterior
 50
0.0
 41
1.0
  7
textstyle23
 71
0
 72
0
 11
17.4299999999999997
 21
6.1699999999999999
 31
0.0
100
AcDbText
 73
2
  0
TEXT
  5
1BD
100
AcDbEntity
  8
ELEC_TEXTOS
 62
256
370
-1
 48
1.0
  6
ByLayer
100
AcDbText
 10
16.870000000000001
 20
5.46
 30
0.0
 40
0.115
  1
Lineas:
 50
0.0
 41
1.0
  7
textstyle61
 71
0
 72
0
 11
16.870000000000001
 21
5.46
 31
0.0
100
AcDbText
 73
2
  0
LINE
  5
1BE
100
AcDbEntity
  8
ELEC_CIRCUITO_C1
 62
256
370
-1
 48
1.0
  6
DASHED
100
AcDbLine
 10
16.8999999999999986
 20
5.1399999999999997
 30
0.0
 11
17.4699999999999989
 21
5.1399999999999997
 31
0.0
  0
TEXT
  5
1BF
100
AcDbEntity
  8
ELEC_TEXTOS
 62
256
370
-1
 48
1.0
  6
ByLayer
100
AcDbText
 10
17.6000000000000014
 20
5.1399999999999997
 30
0.0
 40
0.095
  1
C1 Alumbrado
 50
0.0
 41
1.0
  7
textstyle11
 71
0
 72
0
 11
17.6000000000000014
 21
5.1399999999999997
 31
0.0
100
AcDbText
 73
2
  0
LINE
  5
1C0
100
AcDbEntity
  8
ELEC_CIRCUITO_C2
 62
256
370
-1
 48
1.0
  6
DASHED
100
AcDbLine
 10
16.8999999999999986
 20
4.8399999999999999
 30
0.0
 11
17.4699999999999989
 21
4.8399999999999999
 31
0.0
  0
TEXT
  5
1C1
100
AcDbEntity
  8
ELEC_TEXTOS
 62
256
370
-1
 48
1.0
  6
ByLayer
100
AcDbText
 10
17.6000000000000014
 20
4.8399999999999999
 30
0.0
 40
0.095
  1
C2 Tomacorrientes
 50
0.0
 41
1.0
  7
textstyle32
 71
0
 72
0
 11
17.6000000000000014
 21
4.8399999999999999
 31
0.0
100
AcDbText
 73
2
  0
LINE
  5
1C2
100
AcDbEntity
  8
ELEC_CIRCUITO_C3
 62
256
370
-1
 48
1.0
  6
DASHED
100
AcDbLine
 10
16.8999999999999986
 20
4.54
 30
0.0
 11
17.4699999999999989
 21
4.54
 31
0.0
  0
TEXT
  5
1C3
100
AcDbEntity
  8
ELEC_TEXTOS
 62
256
370
-1
 48
1.0
  6
ByLayer
100
AcDbText
 10
17.6000000000000014
 20
4.54
 30
0.0
 40
0.095
  1
C3 Cocina
 50
0.0
 41
1.0
  7
textstyle28
 71
0
 72
0
 11
17.6000000000000014
 21
4.54
 31
0.0
100
AcDbText
 73
2
  0
LINE
  5
1C4
100
AcDbEntity
  8
ELEC_CIRCUITO_C8
 62
256
370
-1
 48
1.0
  6
DASHED
100
AcDbLine
 10
16.8999999999999986
 20
4.2400000000000002
 30
0.0
 11
17.4699999999999989
 21
4.2400000000000002
 31
0.0
  0
TEXT
  5
1C5
100
AcDbEntity
  8
ELEC_TEXTOS
 62
256
370
-1
 48
1.0
  6
ByLayer
100
AcDbText
 10
17.6000000000000014
 20
4.2400000000000002
 30
0.0
 40
0.095
  1
C8 Bomba exterior
 50
0.0
 41
1.0
  7
textstyle18
 71
0
 72
0
 11
17.6000000000000014
 21
4.2400000000000002
 31
0.0
100
AcDbText
 73
2
  0
LINE
  5
1C6
100
AcDbEntity
  8
ELEC_CANALIZACION
 62
256
370
-1
 48
1.0
  6
ByLayer
100
AcDbLine
 10
16.8999999999999986
 20
3.9399999999999999
 30
0.0
 11
17.4699999999999989
 21
3.9399999999999999
 31
0.0
  0
TEXT
  5
1C7
100
AcDbEntity
  8
ELEC_TEXTOS
 62
256
370
-1
 48
1.0
  6
ByLayer
100
AcDbText
 10
17.6000000000000014
 20
3.9399999999999999
 30
0.0
 40
0.095
  1
Alimentador M-TG
 50
0.0
 41
1.0
  7
textstyle37
 71
0
 72
0
 11
17.6000000000000014
 21
3.9399999999999999
 31
0.0
100
AcDbText
 73
2
  0
LINE
  5
1C8
100
AcDbEntity
  8
ELEC_CANALIZACION
 62
256
370
-1
 48
1.0
  6
DASHED
100
AcDbLine
 10
16.8999999999999986
 20
3.6400000000000001
 30
0.0
 11
17.4699999999999989
 21
3.6400000000000001
 31
0.0
  0
TEXT
  5
1C9
100
AcDbEntity
  8
ELEC_TEXTOS
 62
256
370
-1
 48
1.0
  6
ByLayer
100
AcDbText
 10
17.6000000000000014
 20
3.6400000000000001
 30
0.0
 40
0.095
  1
Limite de techo
 50
0.0
 41
1.0
  7
textstyle10
 71
0
 72
0
 11
17.6000000000000014
 21
3.6400000000000001
 31
0.0
100
AcDbText
 73
2
  0
TEXT
  5
1CA
100
AcDbEntity
  8
ELEC_TEXTOS
 62
256
370
-1
 48
1.0
  6
ByLayer
100
AcDbText
 10
16.870000000000001
 20
2.4299999999999988
 30
0.0
 40
0.08
  1
Lineas discontinuas: canalizacion empotrada
 50
0.0
 41
1.0
  7
textstyle72
 71
0
 72
0
 11
16.870000000000001
 21
2.4299999999999988
 31
0.0
100
AcDbText
 73
2
  0
LINE
  5
1CB
100
AcDbEntity
  8
ELEC_LUMINARIAS
 62
256
370
-1
 48
1.0
  6
ByLayer
100
AcDbLine
 10
5.9292999999999996
 20
6.7292999999999994
 30
0.0
 11
6.0707000000000004
 21
6.8707000000000003
 31
0.0
  0
LINE
  5
1CC
100
AcDbEntity
  8
ELEC_LUMINARIAS
 62
256
370
-1
 48
1.0
  6
ByLayer
100
AcDbLine
 10
5.9292999999999996
 20
6.8707000000000003
 30
0.0
 11
6.0707000000000004
 21
6.7292999999999994
 31
0.0
  0
LINE
  5
1CD
100
AcDbEntity
  8
ELEC_LUMINARIAS
 62
256
370
-1
 48
1.0
  6
ByLayer
100
AcDbLine
 10
5.9858599999999997
 20
6.7858599999999996
 30
0.0
 11
6.0141400000000003
 21
6.8141400000000001
 31
0.0
  0
LINE
  5
1CE
100
AcDbEntity
  8
ELEC_LUMINARIAS
 62
256
370
-1
 48
1.0
  6
ByLayer
100
AcDbLine
 10
5.9858599999999997
 20
6.8141400000000001
 30
0.0
 11
6.0141400000000003
 21
6.7858599999999996
 31
0.0
  0
LINE
  5
1CF
100
AcDbEntity
  8
ELEC_LUMINARIAS
 62
256
370
-1
 48
1.0
  6
ByLayer
100
AcDbLine
 10
11.9292999999999996
 20
6.7292999999999994
 30
0.0
 11
12.0707000000000004
 21
6.8707000000000003
 31
0.0
  0
LINE
  5
1D0
100
AcDbEntity
  8
ELEC_LUMINARIAS
 62
256
370
-1
 48
1.0
  6
ByLayer
100
AcDbLine
 10
11.9292999999999996
 20
6.8707000000000003
 30
0.0
 11
12.0707000000000004
 21
6.7292999999999994
 31
0.0
  0
LINE
  5
1D1
100
AcDbEntity
  8
ELEC_LUMINARIAS
 62
256
370
-1
 48
1.0
  6
ByLayer
100
AcDbLine
 10
11.9858600000000006
 20
6.7858599999999996
 30
0.0
 11
12.0141399999999994
 21
6.8141400000000001
 31
0.0
  0
LINE
  5
1D2
100
AcDbEntity
  8
ELEC_LUMINARIAS
 62
256
370
-1
 48
1.0
  6
ByLayer
100
AcDbLine
 10
11.9858600000000006
 20
6.8141400000000001
 30
0.0
 11
12.0141399999999994
 21
6.7858599999999996
 31
0.0
  0
LINE
  5
1D3
100
AcDbEntity
  8
ELEC_LUMINARIAS
 62
256
370
-1
 48
1.0
  6
ByLayer
100
AcDbLine
 10
10.9292999999999996
 20
2.1793
 30
0.0
 11
11.0707000000000004
 21
2.3207
 31
0.0
  0
LINE
  5
1D4
100
AcDbEntity
  8
ELEC_LUMINARIAS
 62
256
370
-1
 48
1.0
  6
ByLayer
100
AcDbLine
 10
10.9292999999999996
 20
2.3207
 30
0.0
 11
11.0707000000000004
 21
2.1793
 31
0.0
  0
LINE
  5
1D5
100
AcDbEntity
  8
ELEC_LUMINARIAS
 62
256
370
-1
 48
1.0
  6
ByLayer
100
AcDbLine
 10
10.9858600000000006
 20
2.2358600000000002
 30
0.0
 11
11.0141399999999994
 21
2.2641399999999998
 31
0.0
  0
LINE
  5
1D6
100
AcDbEntity
  8
ELEC_LUMINARIAS
 62
256
370
-1
 48
1.0
  6
ByLayer
100
AcDbLine
 10
10.9858600000000006
 20
2.2641399999999998
 30
0.0
 11
11.0141399999999994
 21
2.2358600000000002
 31
0.0
  0
LINE
  5
1D7
100
AcDbEntity
  8
ELEC_LUMINARIAS
 62
256
370
-1
 48
1.0
  6
ByLayer
100
AcDbLine
 10
1.5854143436201511
 20
8.0709772599296059
 30
0.0
 11
1.7268143436201511
 21
8.2123772599296068
 31
0.0
  0
LINE
  5
1D8
100
AcDbEntity
  8
ELEC_LUMINARIAS
 62
256
370
-1
 48
1.0
  6
ByLayer
100
AcDbLine
 10
1.5854143436201511
 20
8.2123772599296068
 30
0.0
 11
1.7268143436201511
 21
8.0709772599296059
 31
0.0
  0
LINE
  5
1D9
100
AcDbEntity
  8
ELEC_LUMINARIAS
 62
256
370
-1
 48
1.0
  6
ByLayer
100
AcDbLine
 10
1.641974343620151
 20
8.127537259929607
 30
0.0
 11
1.6702543436201509
 21
8.1558172599296057
 31
0.0
  0
LINE
  5
1DA
100
AcDbEntity
  8
ELEC_LUMINARIAS
 62
256
370
-1
 48
1.0
  6
ByLayer
100
AcDbLine
 10
1.641974343620151
 20
8.1558172599296057
 30
0.0
 11
1.6702543436201509
 21
8.127537259929607
 31
0.0
  0
LINE
  5
1DB
100
AcDbEntity
  8
ELEC_LUMINARIAS
 62
256
370
-1
 48
1.0
  6
ByLayer
100
AcDbLine
 10
16.9557649999999995
 20
8.2557650000000002
 30
0.0
 11
17.1042349999999992
 21
8.4042349999999999
 31
0.0
  0
LINE
  5
1DC
100
AcDbEntity
  8
ELEC_LUMINARIAS
 62
256
370
-1
 48
1.0
  6
ByLayer
100
AcDbLine
 10
16.9557649999999995
 20
8.4042349999999999
 30
0.0
 11
17.1042349999999992
 21
8.2557650000000002
 31
0.0
  0
LINE
  5
1DD
100
AcDbEntity
  8
ELEC_LUMINARIAS
 62
256
370
-1
 48
1.0
  6
ByLayer
100
AcDbLine
 10
17.0172740000000005
 20
8.3172739999999994
 30
0.0
 11
17.0427259999999983
 21
8.3427260000000008
 31
0.0
  0
LINE
  5
1DE
100
AcDbEntity
  8
ELEC_LUMINARIAS
 62
256
370
-1
 48
1.0
  6
ByLayer
100
AcDbLine
 10
17.0172740000000005
 20
8.3427260000000008
 30
0.0
 11
17.0427259999999983
 21
8.3172739999999994
 31
0.0
  0
TEXT
  5
1DF
100
AcDbEntity
  8
ELEC_TEXTOS
 62
256
370
-1
 48
1.0
  6
ByLayer
100
AcDbText
 10
15.4499999999999993
 20
4.9299999999999997
 30
0.0
 40
0.12
  1
PE
 50
0.0
 41
1.0
  7
textstyle14
 71
0
 72
1
 11
15.4499999999999993
 21
4.9299999999999997
 31
0.0
100
AcDbText
 73
2
  0
LWPOLYLINE
  5
1E0
100
AcDbEntity
  8
ELEC_CIRCUITO_C8
 62
256
370
-1
 48
1.0
  6
DASHED
100
AcDbPolyline
 90
6
 70
0
 10
14.3499999999999996
 20
4.75
 10
14.3499999999999996
 20
0.85
 10
8.0
 20
0.85
 10
3.0
 20
0.85
 10
-0.55
 20
0.85
 10
-0.55
 20
1.0
  0
LINE
  5
1E1
100
AcDbEntity
  8
ELEC_PUESTA_TIERRA
 62
256
370
-1
 48
1.0
  6
ByLayer
100
AcDbLine
 10
2.3500000000000001
 20
1.8500000000000001
 30
0.0
 11
2.3500000000000001
 21
1.6899999999999999
 31
0.0
  0
LINE
  5
1E2
100
AcDbEntity
  8
ELEC_PUESTA_TIERRA
 62
256
370
-1
 48
1.0
  6
ByLayer
100
AcDbLine
 10
2.1099999999999999
 20
1.6899999999999999
 30
0.0
 11
2.5899999999999999
 21
1.6899999999999999
 31
0.0
  0
LINE
  5
1E3
100
AcDbEntity
  8
ELEC_PUESTA_TIERRA
 62
256
370
-1
 48
1.0
  6
ByLayer
100
AcDbLine
 10
2.1899999999999999
 20
1.5600000000000001
 30
0.0
 11
2.5099999999999998
 21
1.5600000000000001
 31
0.0
  0
LINE
  5
1E4
100
AcDbEntity
  8
ELEC_PUESTA_TIERRA
 62
256
370
-1
 48
1.0
  6
ByLayer
100
AcDbLine
 10
2.27
 20
1.4299999999999999
 30
0.0
 11
2.4300000000000002
 21
1.4299999999999999
 31
0.0
  0
TEXT
  5
1E5
100
AcDbEntity
  8
ELEC_PUESTA_TIERRA
 62
256
370
-1
 48
1.0
  6
ByLayer
100
AcDbText
 10
2.8199999999999998
 20
1.72
 30
0.0
 40
0.16
  1
SPAT
 50
0.0
 41
1.0
  7
textstyle25
 71
0
 72
0
 11
2.8199999999999998
 21
1.72
 31
0.0
100
AcDbText
 73
0
  0
TEXT
  5
1E6
100
AcDbEntity
  8
ELEC_PUESTA_TIERRA
 62
256
370
-1
 48
1.0
  6
ByLayer
100
AcDbText
 10
2.8199999999999998
 20
1.5
 30
0.0
 40
0.1
  1
Puesta a tierra
 50
0.0
 41
1.0
  7
textstyle36
 71
0
 72
0
 11
2.8199999999999998
 21
1.5
 31
0.0
100
AcDbText
 73
0
  0
LWPOLYLINE
  5
1E7
100
AcDbEntity
  8
ELEC_PUESTA_TIERRA
 62
256
370
-1
 48
1.0
  6
DASHED
100
AcDbPolyline
 90
5
 70
0
 10
2.3500000000000001
 20
1.9299999999999999
 10
2.3500000000000001
 20
0.55
 10
14.0500000000000007
 20
0.55
 10
14.0500000000000007
 20
4.75
 10
14.3499999999999996
 20
4.75
  0
TEXT
  5
1E8
100
AcDbEntity
  8
ELEC_PUESTA_TIERRA
 62
256
370
-1
 48
1.0
  6
ByLayer
100
AcDbText
 10
13.8200000000000003
 20
4.9800000000000004
 30
0.0
 40
0.11
  1
PE
 50
0.0
 41
1.0
  7
textstyle29
 71
0
 72
0
 11
13.8200000000000003
 21
4.9800000000000004
 31
0.0
100
AcDbText
 73
0
  0
LINE
  5
1E9
100
AcDbEntity
  8
ELEC_PUESTA_TIERRA
 62
256
370
-1
 48
1.0
  6
ByLayer
100
AcDbLine
 10
17.0300000000000011
 20
5.9000000000000004
 30
0.0
 11
17.0300000000000011
 21
5.8120000000000003
 31
0.0
  0
LINE
  5
1EA
100
AcDbEntity
  8
ELEC_PUESTA_TIERRA
 62
256
370
-1
 48
1.0
  6
ByLayer
100
AcDbLine
 10
16.8979999999999997
 20
5.8120000000000003
 30
0.0
 11
17.161999999999999
 21
5.8120000000000003
 31
0.0
  0
LINE
  5
1EB
100
AcDbEntity
  8
ELEC_PUESTA_TIERRA
 62
256
370
-1
 48
1.0
  6
ByLayer
100
AcDbLine
 10
16.9420000000000002
 20
5.7404999999999999
 30
0.0
 11
17.1179999999999986
 21
5.7404999999999999
 31
0.0
  0
LINE
  5
1EC
100
AcDbEntity
  8
ELEC_PUESTA_TIERRA
 62
256
370
-1
 48
1.0
  6
ByLayer
100
AcDbLine
 10
16.9860000000000007
 20
5.6689999999999996
 30
0.0
 11
17.0740000000000016
 21
5.6689999999999996
 31
0.0
  0
TEXT
  5
1ED
100
AcDbEntity
  8
ELEC_TEXTOS
 62
256
370
-1
 48
1.0
  6
ByLayer
100
AcDbText
 10
17.4299999999999997
 20
5.7999999999999998
 30
0.0
 40
0.105
  1
Puesta a tierra SPAT
 50
0.0
 41
1.0
  7
textstyle43
 71
0
 72
0
 11
17.4299999999999997
 21
5.7999999999999998
 31
0.0
100
AcDbText
 73
0
  0
ENDSEC
  0
SECTION
  2
OBJECTS
  0
DICTIONARY
  5
C
100
AcDbDictionary
280
0
281
1
  3
ACAD_GROUP
350
D
  3
ACAD_LAYOUT
350
1A
  3
ACAD_MLINESTYLE
350
17
  3
ACAD_PLOTSETTINGS
350
19
  3
ACAD_PLOTSTYLENAME
350
E
  3
AcDbVariableDictionary
350
1EE
  3
QCAD_OBJECTS
350
1EF
  0
DICTIONARY
  5
D
100
AcDbDictionary
280
0
281
1
  0
ACDBDICTIONARYWDFLT
  5
E
100
AcDbDictionary
281
1
  3
Normal
350
F
100
AcDbDictionaryWithDefault
340
F
  0
ACDBPLACEHOLDER
  5
F
  0
DICTIONARY
  5
17
100
AcDbDictionary
280
0
281
1
  3
Standard
350
18
  0
MLINESTYLE
  5
18
100
AcDbMlineStyle
  2
STANDARD
 70
0
  3

 62
256
 51
90.0
 52
90.0
 71
2
 49
0.5
 62
256
  6
BYLAYER
 49
-0.5
 62
256
  6
BYLAYER
  0
DICTIONARY
  5
19
100
AcDbDictionary
280
0
281
1
  0
DICTIONARY
  5
1A
100
AcDbDictionary
281
1
  3
Layout1
350
1E
  3
Layout2
350
26
  3
Model
350
22
  0
LAYOUT
  5
1E
100
AcDbPlotSettings
  1

  2
none_device
  4

  6

 40
0.0
 41
0.0
 42
0.0
 43
0.0
 44
0.0
 45
0.0
 46
0.0
 47
0.0
 48
0.0
 49
0.0
140
0.0
141
0.0
142
1.0
143
1.0
 70
688
 72
0
 73
0
 74
5
  7

 75
16
147
1.0
148
0.0
149
0.0
100
AcDbLayout
  1
Layout1
 70
1
 71
1
 10
0.0
 20
0.0
 11
420.0
 21
297.0
 12
0.0
 22
0.0
 32
0.0
 14
100000000000000000000.0
 24
100000000000000000000.0
 34
100000000000000000000.0
 15
-100000000000000000000.0
 25
-100000000000000000000.0
 35
-100000000000000000000.0
146
0.0
 13
0.0
 23
0.0
 33
0.0
 16
1.0
 26
0.0
 36
0.0
 17
0.0
 27
1.0
 37
0.0
 76
0
330
1B
  0
LAYOUT
  5
22
100
AcDbPlotSettings
  1

  2
none_device
  4

  6

 40
0.0
 41
0.0
 42
0.0
 43
0.0
 44
0.0
 45
0.0
 46
0.0
 47
0.0
 48
0.0
 49
0.0
140
0.0
141
0.0
142
1.0
143
1.0
 70
1712
 72
0
 73
0
 74
0
  7

 75
0
147
1.0
148
0.0
149
0.0
100
AcDbLayout
  1
Model
 70
1
 71
0
 10
0.0
 20
0.0
 11
12.0
 21
9.0
 12
0.0
 22
0.0
 32
0.0
 14
0.0
 24
0.0
 34
0.0
 15
0.0
 25
0.0
 35
0.0
146
0.0
 13
0.0
 23
0.0
 33
0.0
 16
1.0
 26
0.0
 36
0.0
 17
0.0
 27
1.0
 37
0.0
 76
0
330
1F
  0
LAYOUT
  5
26
100
AcDbPlotSettings
  1

  2
none_device
  4

  6

 40
0.0
 41
0.0
 42
0.0
 43
0.0
 44
0.0
 45
0.0
 46
0.0
 47
0.0
 48
0.0
 49
0.0
140
0.0
141
0.0
142
1.0
143
1.0
 70
688
 72
0
 73
0
 74
5
  7

 75
16
147
1.0
148
0.0
149
0.0
100
AcDbLayout
  1
Layout2
 70
1
 71
2
 10
0.0
 20
0.0
 11
12.0
 21
9.0
 12
0.0
 22
0.0
 32
0.0
 14
0.0
 24
0.0
 34
0.0
 15
0.0
 25
0.0
 35
0.0
146
0.0
 13
0.0
 23
0.0
 33
0.0
 16
1.0
 26
0.0
 36
0.0
 17
0.0
 27
1.0
 37
0.0
 76
0
330
23
  0
DICTIONARY
  5
1EE
100
AcDbDictionary
281
1
  3
DIMASSOC
350
1F1
  3
HIDETEXT
350
1F0
  0
DICTIONARYVAR
  5
1F0
100
DictionaryVariables
280
0
  1
2
  0
DICTIONARYVAR
  5
1F1
100
DictionaryVariables
280
0
  1
1
  0
DICTIONARY
  5
1EF
100
AcDbDictionary
281
1
  3
ColorSettings/BackgroundColor
350
1F2
  3
ColorSettings/ColorMode
350
1F3
  3
Grid/DisplayGrid00
350
1F4
  3
Grid/DisplayGrid01
350
1F5
  3
Grid/DisplayGrid02
350
1F6
  3
Grid/DisplayGrid03
350
1F7
  3
Grid/GridSpacingX00
350
1F8
  3
Grid/GridSpacingX01
350
1F9
  3
Grid/GridSpacingX02
350
1FA
  3
Grid/GridSpacingX03
350
1FB
  3
Grid/GridSpacingY00
350
1FC
  3
Grid/GridSpacingY01
350
1FD
  3
Grid/GridSpacingY02
350
1FE
  3
Grid/GridSpacingY03
350
1FF
  3
Grid/IsometricGrid00
350
200
  3
Grid/IsometricGrid01
350
201
  3
Grid/IsometricGrid02
350
202
  3
Grid/IsometricGrid03
350
203
  3
Grid/IsometricProjection00
350
204
  3
Grid/IsometricProjection01
350
205
  3
Grid/IsometricProjection02
350
206
  3
Grid/IsometricProjection03
350
207
  3
Grid/MetaGridSpacingX00
350
208
  3
Grid/MetaGridSpacingX01
350
209
  3
Grid/MetaGridSpacingX02
350
20A
  3
Grid/MetaGridSpacingX03
350
20B
  3
Grid/MetaGridSpacingY00
350
20C
  3
Grid/MetaGridSpacingY01
350
20D
  3
Grid/MetaGridSpacingY02
350
20E
  3
Grid/MetaGridSpacingY03
350
20F
  3
MultiPageSettings/Columns
350
210
  3
MultiPageSettings/GlueMarginsBottom
350
211
  3
MultiPageSettings/GlueMarginsLeft
350
212
  3
MultiPageSettings/GlueMarginsRight
350
213
  3
MultiPageSettings/GlueMarginsTop
350
214
  3
MultiPageSettings/PrintCropMarks
350
215
  3
MultiPageSettings/Rows
350
216
  3
PageSettings/OffsetX
350
217
  3
PageSettings/OffsetY
350
218
  3
PageSettings/PageOrientation
350
219
  3
PageSettings/PaperHeight
350
21A
  3
PageSettings/PaperWidth
350
21B
  3
PageSettings/Scale
350
21C
  3
PageSettings/ShowPaperBorders
350
21D
  3
PageTagSettings/EnablePageTags
350
21E
  3
PageTagSettings/TagAlignment
350
21F
  3
PageTagSettings/TagFont
350
220
  3
PageTagSettings/TagPosition
350
221
  3
QCADVersion
350
222
  3
UnitSettings/PaperUnit
350
223
  3
ViewportCenter
350
224
  3
ViewportHeight
350
225
  3
ViewportWidth
350
226
  0
XRECORD
  5
1F3
330
1EF
100
AcDbXrecord
280
1
1000
FullColor
  0
XRECORD
  5
1F4
330
1EF
100
AcDbXrecord
280
1
290
1
  0
XRECORD
  5
1F5
330
1EF
100
AcDbXrecord
280
1
290
1
  0
XRECORD
  5
1F6
330
1EF
100
AcDbXrecord
280
1
290
1
  0
XRECORD
  5
1F7
330
1EF
100
AcDbXrecord
280
1
290
1
  0
XRECORD
  5
1F8
330
1EF
100
AcDbXrecord
280
1
1000
auto
  0
XRECORD
  5
1F9
330
1EF
100
AcDbXrecord
280
1
1000
auto
  0
XRECORD
  5
1FA
330
1EF
100
AcDbXrecord
280
1
1000
auto
  0
XRECORD
  5
1FB
330
1EF
100
AcDbXrecord
280
1
1000
auto
  0
XRECORD
  5
1FC
330
1EF
100
AcDbXrecord
280
1
1000
auto
  0
XRECORD
  5
1FD
330
1EF
100
AcDbXrecord
280
1
1000
auto
  0
XRECORD
  5
1FE
330
1EF
100
AcDbXrecord
280
1
1000
auto
  0
XRECORD
  5
1FF
330
1EF
100
AcDbXrecord
280
1
1000
auto
  0
XRECORD
  5
200
330
1EF
100
AcDbXrecord
280
1
290
0
  0
XRECORD
  5
201
330
1EF
100
AcDbXrecord
280
1
290
0
  0
XRECORD
  5
202
330
1EF
100
AcDbXrecord
280
1
290
0
  0
XRECORD
  5
203
330
1EF
100
AcDbXrecord
280
1
290
0
  0
XRECORD
  5
204
330
1EF
100
AcDbXrecord
280
1
 90
65537
  0
XRECORD
  5
205
330
1EF
100
AcDbXrecord
280
1
 90
65537
  0
XRECORD
  5
206
330
1EF
100
AcDbXrecord
280
1
 90
65537
  0
XRECORD
  5
207
330
1EF
100
AcDbXrecord
280
1
 90
65537
  0
XRECORD
  5
208
330
1EF
100
AcDbXrecord
280
1
1000
auto
  0
XRECORD
  5
209
330
1EF
100
AcDbXrecord
280
1
1000
auto
  0
XRECORD
  5
20A
330
1EF
100
AcDbXrecord
280
1
1000
auto
  0
XRECORD
  5
20B
330
1EF
100
AcDbXrecord
280
1
1000
auto
  0
XRECORD
  5
20C
330
1EF
100
AcDbXrecord
280
1
1000
auto
  0
XRECORD
  5
20D
330
1EF
100
AcDbXrecord
280
1
1000
auto
  0
XRECORD
  5
20E
330
1EF
100
AcDbXrecord
280
1
1000
auto
  0
XRECORD
  5
20F
330
1EF
100
AcDbXrecord
280
1
1000
auto
  0
XRECORD
  5
210
330
1EF
100
AcDbXrecord
280
1
 90
1
  0
XRECORD
  5
211
330
1EF
100
AcDbXrecord
280
1
 40
0.5
  0
XRECORD
  5
212
330
1EF
100
AcDbXrecord
280
1
 40
0.5
  0
XRECORD
  5
213
330
1EF
100
AcDbXrecord
280
1
 40
0.5
  0
XRECORD
  5
214
330
1EF
100
AcDbXrecord
280
1
 40
0.5
  0
XRECORD
  5
215
330
1EF
100
AcDbXrecord
280
1
290
0
  0
XRECORD
  5
216
330
1EF
100
AcDbXrecord
280
1
 90
1
  0
XRECORD
  5
217
330
1EF
100
AcDbXrecord
280
1
 40
0.0
  0
XRECORD
  5
218
330
1EF
100
AcDbXrecord
280
1
 40
0.0
  0
XRECORD
  5
219
330
1EF
100
AcDbXrecord
280
1
1000
Portrait
  0
XRECORD
  5
21A
330
1EF
100
AcDbXrecord
280
1
 40
11.6929133858267722
  0
XRECORD
  5
21B
330
1EF
100
AcDbXrecord
280
1
 40
8.2677165354330704
  0
XRECORD
  5
21C
330
1EF
100
AcDbXrecord
280
1
1000
1:1
  0
XRECORD
  5
21D
330
1EF
100
AcDbXrecord
280
1
290
1
  0
XRECORD
  5
21E
330
1EF
100
AcDbXrecord
280
1
290
0
  0
XRECORD
  5
21F
330
1EF
100
AcDbXrecord
280
1
1000
Inside
  0
XRECORD
  5
220
330
1EF
100
AcDbXrecord
280
1
1000
Arial,10,-1,5,400,0,0,0,0,0,0,0,0,0,0,1,,0,0
  0
XRECORD
  5
221
330
1EF
100
AcDbXrecord
280
1
1000
TopLeft
  0
XRECORD
  5
222
330
1EF
100
AcDbXrecord
280
1
1000
3.32.9
  0
XRECORD
  5
223
330
1EF
100
AcDbXrecord
280
1
 90
1
  0
XRECORD
  5
225
330
1EF
100
AcDbXrecord
280
1
 40
13.359161640736378
  0
XRECORD
  5
226
330
1EF
100
AcDbXrecord
280
1
 40
27.8959904233558547
  0
ENDSEC
  0
EOF
