  0
SECTION
  2
HEADER
  9
$ACADVER
  1
AC1021
  9
$ACADMAINTVER
 70
25
  9
$DWGCODEPAGE
  3
ANSI_1252
  9
$INSBASE
 10
0.0
 20
0.0
 30
0.0
  9
$EXTMIN
 10
1e+20
 20
1e+20
 30
1e+20
  9
$EXTMAX
 10
-1e+20
 20
-1e+20
 30
-1e+20
  9
$LIMMIN
 10
0.0
 20
0.0
  9
$LIMMAX
 10
420.0
 20
297.0
  9
$ORTHOMODE
 70
0
  9
$REGENMODE
 70
1
  9
$FILLMODE
 70
1
  9
$QTEXTMODE
 70
0
  9
$MIRRTEXT
 70
1
  9
$LTSCALE
 40
0.55
  9
$ATTMODE
 70
1
  9
$TEXTSIZE
 40
2.5
  9
$TRACEWID
 40
1.0
  9
$TEXTSTYLE
  7
OpenSans
  9
$CLAYER
  8
0
  9
$CELTYPE
  6
ByLayer
  9
$CECOLOR
 62
256
  9
$CELTSCALE
 40
1.0
  9
$DISPSILH
 70
0
  9
$DIMSCALE
 40
1.0
  9
$DIMASZ
 40
0.175
  9
$DIMEXO
 40
0.125
  9
$DIMDLI
 40
3.75
  9
$DIMRND
 40
0.0
  9
$DIMDLE
 40
0.0
  9
$DIMEXE
 40
0.375
  9
$DIMTP
 40
0.0
  9
$DIMTM
 40
0.0
  9
$DIMTXT
 40
0.25
  9
$DIMCEN
 40
2.5
  9
$DIMTSZ
 40
0.0
  9
$DIMTOL
 70
0
  9
$DIMLIM
 70
0
  9
$DIMTIH
 70
0
  9
$DIMTOH
 70
0
  9
$DIMSE1
 70
0
  9
$DIMSE2
 70
0
  9
$DIMTAD
 70
1
  9
$DIMZIN
 70
12
  9
$DIMBLK
  1
ARCHTICK
  9
$DIMASO
 70
1
  9
$DIMSHO
 70
1
  9
$DIMPOST
  1

  9
$DIMAPOST
  1

  9
$DIMALT
 70
0
  9
$DIMALTD
 70
3
  9
$DIMALTF
 40
0.03937007874
  9
$DIMLFAC
 40
100.0
  9
$DIMTOFL
 70
1
  9
$DIMTVP
 40
0.0
  9
$DIMTIX
 70
0
  9
$DIMSOXD
 70
0
  9
$DIMSAH
 70
0
  9
$DIMBLK1
  1

  9
$DIMBLK2
  1

  9
$DIMSTYLE
  2
EZDXF
  9
$DIMCLRD
 70
0
  9
$DIMCLRE
 70
0
  9
$DIMCLRT
 70
0
  9
$DIMTFAC
 40
0.5
  9
$DIMGAP
 40
0.1
  9
$DIMJUST
 70
0
  9
$DIMSD1
 70
0
  9
$DIMSD2
 70
0
  9
$DIMTOLJ
 70
0
  9
$DIMTZIN
 70
8
  9
$DIMALTZ
 70
0
  9
$DIMALTTZ
 70
0
  9
$DIMUPT
 70
1
  9
$DIMDEC
 70
2
  9
$DIMTDEC
 70
2
  9
$DIMALTU
 70
2
  9
$DIMALTTD
 70
3
  9
$DIMTXSTY
  7
standard
  9
$DIMAUNIT
 70
0
  9
$DIMADEC
 70
2
  9
$DIMALTRND
 40
0.0
  9
$DIMAZIN
 70
3
  9
$DIMDSEP
 70
0
  9
$DIMATFIT
 70
3
  9
$DIMFRAC
 70
0
  9
$DIMLDRBLK
  1

  9
$DIMLUNIT
 70
2
  9
$DIMLWD
 70
-2
  9
$DIMLWE
 70
-2
  9
$DIMTMOVE
 70
2
  9
$DIMFXL
 40
1.0
  9
$DIMFXLON
 70
0
  9
$DIMJOGANG
 40
0.785398163397
  9
$DIMTFILL
 70
0
  9
$DIMTFILLCLR
 70
0
  9
$DIMARCSYM
 70
0
  9
$DIMLTYPE
  6

  9
$DIMLTEX1
  6

  9
$DIMLTEX2
  6

  9
$LUNITS
 70
2
  9
$LUPREC
 70
4
  9
$SKETCHINC
 40
1.0
  9
$FILLETRAD
 40
10.0
  9
$AUNITS
 70
0
  9
$AUPREC
 70
2
  9
$MENU
  1
.
  9
$ELEVATION
 40
0.0
  9
$PELEVATION
 40
0.0
  9
$THICKNESS
 40
0.0
  9
$LIMCHECK
 70
0
  9
$CHAMFERA
 40
0.0
  9
$CHAMFERB
 40
0.0
  9
$CHAMFERC
 40
0.0
  9
$CHAMFERD
 40
0.0
  9
$SKPOLY
 70
0
  9
$TDCREATE
 40
2461200.6239351854
  9
$TDUPDATE
 40
2461200.6239351854
  9
$USRTIMER
 70
1
  9
$ANGBASE
 50
0.0
  9
$ANGDIR
 70
0
  9
$PDMODE
 70
0
  9
$PDSIZE
 40
0.0
  9
$PLINEWID
 40
0.0
  9
$SPLFRAME
 70
0
  9
$SPLINETYPE
 70
6
  9
$SPLINESEGS
 70
8
  9
$HANDSEED
  5
20030
  9
$SURFTAB1
 70
6
  9
$SURFTAB2
 70
6
  9
$SURFTYPE
 70
6
  9
$SURFU
 70
6
  9
$SURFV
 70
6
  9
$UCSBASE
  2

  9
$UCSNAME
  2

  9
$UCSORG
 10
0.0
 20
0.0
 30
0.0
  9
$UCSXDIR
 10
1.0
 20
0.0
 30
0.0
  9
$UCSYDIR
 10
0.0
 20
1.0
 30
0.0
  9
$UCSORTHOREF
  2

  9
$UCSORTHOVIEW
 70
0
  9
$UCSORGTOP
 10
0.0
 20
0.0
 30
0.0
  9
$UCSORGBOTTOM
 10
0.0
 20
0.0
 30
0.0
  9
$UCSORGLEFT
 10
0.0
 20
0.0
 30
0.0
  9
$UCSORGRIGHT
 10
0.0
 20
0.0
 30
0.0
  9
$UCSORGFRONT
 10
0.0
 20
0.0
 30
0.0
  9
$UCSORGBACK
 10
0.0
 20
0.0
 30
0.0
  9
$PUCSBASE
  2

  9
$PUCSNAME
  2

  9
$PUCSORG
 10
0.0
 20
0.0
 30
0.0
  9
$PUCSXDIR
 10
1.0
 20
0.0
 30
0.0
  9
$PUCSYDIR
 10
0.0
 20
1.0
 30
0.0
  9
$PUCSORTHOREF
  2

  9
$PUCSORTHOVIEW
 70
0
  9
$PUCSORGTOP
 10
0.0
 20
0.0
 30
0.0
  9
$PUCSORGBOTTOM
 10
0.0
 20
0.0
 30
0.0
  9
$PUCSORGLEFT
 10
0.0
 20
0.0
 30
0.0
  9
$PUCSORGRIGHT
 10
0.0
 20
0.0
 30
0.0
  9
$PUCSORGFRONT
 10
0.0
 20
0.0
 30
0.0
  9
$PUCSORGBACK
 10
0.0
 20
0.0
 30
0.0
  9
$USERI1
 70
0
  9
$USERI2
 70
0
  9
$USERI3
 70
0
  9
$USERI4
 70
0
  9
$USERI5
 70
0
  9
$USERR1
 40
0.0
  9
$USERR2
 40
0.0
  9
$USERR3
 40
0.0
  9
$USERR4
 40
0.0
  9
$USERR5
 40
0.0
  9
$WORLDVIEW
 70
1
  9
$SHADEDGE
 70
3
  9
$SHADEDIF
 70
70
  9
$TILEMODE
 70
1
  9
$MAXACTVP
 70
64
  9
$PINSBASE
 10
48.80508773037855
 20
53.04392620607191
 30
0.0
  9
$PLIMCHECK
 70
0
  9
$PEXTMIN
 10
1e+20
 20
1e+20
 30
1e+20
  9
$PEXTMAX
 10
-1e+20
 20
-1e+20
 30
-1e+20
  9
$PLIMMIN
 10
0.0
 20
0.0
  9
$PLIMMAX
 10
420.0
 20
297.0
  9
$UNITMODE
 70
0
  9
$VISRETAIN
 70
1
  9
$PLINEGEN
 70
0
  9
$PSLTSCALE
 70
1
  9
$TREEDEPTH
 70
3020
  9
$CMLSTYLE
  2
Standard
  9
$CMLJUST
 70
0
  9
$CMLSCALE
 40
20.0
  9
$PROXYGRAPHICS
 70
1
  9
$MEASUREMENT
 70
1
  9
$CELWEIGHT
370
-1
  9
$ENDCAPS
280
0
  9
$JOINSTYLE
280
0
  9
$LWDISPLAY
290
0
  9
$INSUNITS
 70
6
  9
$HYPERLINKBASE
  1

  9
$STYLESHEET
  1

  9
$XEDIT
290
1
  9
$CEPSNTYPE
380
0
  9
$PSTYLEMODE
290
1
  9
$FINGERPRINTGUID
  2
{C382F856-792C-423F-B285-2C96FBDFED25}
  9
$VERSIONGUID
  2
{EB877673-F80C-429C-960F-4E852DF13727}
  9
$EXTNAMES
290
1
  9
$PSVPSCALE
 40
17.6916596461668
  9
$OLESTARTUP
290
0
  9
$SORTENTS
280
127
  9
$INDEXCTL
280
0
  9
$HIDETEXT
280
1
  9
$XCLIPFRAME
290
1
  9
$HALOGAP
280
0
  9
$OBSCOLOR
 70
257
  9
$OBSLTYPE
280
0
  9
$INTERSECTIONDISPLAY
280
0
  9
$INTERSECTIONCOLOR
 70
257
  9
$DIMASSOC
280
2
  9
$PROJECTNAME
  1

  9
$CAMERADISPLAY
290
0
  9
$LENSLENGTH
 40
50.0
  9
$CAMERAHEIGHT
 40
0.0
  9
$STEPSPERSEC
 40
24.0
  9
$STEPSIZE
 40
100.0
  9
$3DDWFPREC
 40
2.0
  9
$PSOLWIDTH
 40
0.005
  9
$PSOLHEIGHT
 40
0.08
  9
$LOFTANG1
 40
1.570796326795
  9
$LOFTANG2
 40
1.570796326795
  9
$LOFTMAG1
 40
0.0
  9
$LOFTMAG2
 40
0.0
  9
$LOFTPARAM
 70
7
  9
$LOFTNORMALS
280
1
  9
$LATITUDE
 40
37.795
  9
$LONGITUDE
 40
-122.394
  9
$NORTHDIRECTION
 40
0.0
  9
$TIMEZONE
 70
-8000
  9
$LIGHTGLYPHDISPLAY
280
1
  9
$TILEMODELIGHTSYNCH
280
1
  9
$CMATERIAL
347
2000E
  9
$SOLIDHIST
280
0
  9
$SHOWHIST
280
1
  9
$DWFFRAME
280
2
  9
$DGNFRAME
280
2
  9
$REALWORLDSCALE
290
1
  9
$INTERFERECOLOR
 62
256
  9
$CSHADOW
280
0
  9
$SHADOWPLANELOCATION
 40
0.0
  0
ENDSEC
  0
SECTION
  2
CLASSES
  0
CLASS
  1
ACDBDICTIONARYWDFLT
  2
AcDbDictionaryWithDefault
  3
ObjectDBX Classes
 90
0
 91
0
280
0
281
0
  0
CLASS
  1
SUN
  2
AcDbSun
  3
SCENEOE
 90
1153
 91
0
280
0
281
0
  0
CLASS
  1
VISUALSTYLE
  2
AcDbVisualStyle
  3
ObjectDBX Classes
 90
4095
 91
0
280
0
281
0
  0
CLASS
  1
MATERIAL
  2
AcDbMaterial
  3
ObjectDBX Classes
 90
1153
 91
0
280
0
281
0
  0
CLASS
  1
SCALE
  2
AcDbScale
  3
ObjectDBX Classes
 90
1153
 91
0
280
0
281
0
  0
CLASS
  1
TABLESTYLE
  2
AcDbTableStyle
  3
ObjectDBX Classes
 90
4095
 91
0
280
0
281
0
  0
CLASS
  1
MLEADERSTYLE
  2
AcDbMLeaderStyle
  3
ACDB_MLEADERSTYLE_CLASS
 90
4095
 91
0
280
0
281
0
  0
CLASS
  1
DICTIONARYVAR
  2
AcDbDictionaryVar
  3
ObjectDBX Classes
 90
0
 91
0
280
0
281
0
  0
CLASS
  1
CELLSTYLEMAP
  2
AcDbCellStyleMap
  3
ObjectDBX Classes
 90
1152
 91
0
280
0
281
0
  0
CLASS
  1
MENTALRAYRENDERSETTINGS
  2
AcDbMentalRayRenderSettings
  3
SCENEOE
 90
1024
 91
0
280
0
281
0
  0
CLASS
  1
ACDBDETAILVIEWSTYLE
  2
AcDbDetailViewStyle
  3
ObjectDBX Classes
 90
1025
 91
0
280
0
281
0
  0
CLASS
  1
ACDBSECTIONVIEWSTYLE
  2
AcDbSectionViewStyle
  3
ObjectDBX Classes
 90
1025
 91
0
280
0
281
0
  0
CLASS
  1
RASTERVARIABLES
  2
AcDbRasterVariables
  3
ISM
 90
0
 91
0
280
0
281
0
  0
CLASS
  1
LAYOUT
  2
AcDbLayout
  3
ObjectDBX Classes
 90
0
 91
0
280
0
281
0
  0
CLASS
  1
ACDBPLACEHOLDER
  2
AcDbPlaceHolder
  3
ObjectDBX Classes
 90
0
 91
0
280
0
281
0
  0
ENDSEC
  0
SECTION
  2
TABLES
  0
TABLE
  2
VPORT
  5
8
330
0
100
AcDbSymbolTable
 70
1
  0
VPORT
  5
31
330
8
100
AcDbSymbolTableRecord
100
AcDbViewportTableRecord
  2
*ACTIVE
 70
0
 10
0.0
 20
0.0
 11
1.0
 21
1.0
 12
15.13810746988176
 22
6.00289705024313
 13
0.0
 23
0.0
 14
10.0
 24
10.0
 15
10.0
 25
10.0
 16
0.0
 26
0.0
 36
1.0
 17
0.0
 27
0.0
 37
0.0
 40
13.39042858183629
 41
2.204287515762926
 42
50.0
 43
0.0
 44
0.0
 50
0.0
 51
0.0
 71
0
 72
100
 73
1
 74
3
 75
0
 76
0
 77
0
 78
0
281
0
 65
1
110
0.0
120
0.0
130
0.0
111
1.0
121
0.0
131
0.0
112
0.0
122
1.0
132
0.0
 79
0
146
0.0
 60
7
 61
5
348
10020
292
1
282
1
141
0.0
142
0.0
 63
250
421
3358443
  0
ENDTAB
  0
TABLE
  2
LTYPE
  5
5
330
0
100
AcDbSymbolTable
 70
27
  0
LTYPE
  5
14
330
5
100
AcDbSymbolTableRecord
100
AcDbLinetypeTableRecord
  2
ByBlock
 70
0
  3

 72
65
 73
0
 40
0.0
  0
LTYPE
  5
15
330
5
100
AcDbSymbolTableRecord
100
AcDbLinetypeTableRecord
  2
ByLayer
 70
0
  3

 72
65
 73
0
 40
0.0
  0
LTYPE
  5
16
330
5
100
AcDbSymbolTableRecord
100
AcDbLinetypeTableRecord
  2
Continuous
 70
0
  3
Solid line
 72
65
 73
0
 40
0.0
  0
LTYPE
  5
32
330
5
100
AcDbSymbolTableRecord
100
AcDbLinetypeTableRecord
  2
DOT
 70
0
  3
Dot . . . . . . . . . . . . . . . . . . . . . .
 72
65
 73
2
 40
6.35
 49
0.0
 74
0
 49
-6.35
 74
0
  0
LTYPE
  5
33
330
5
100
AcDbSymbolTableRecord
100
AcDbLinetypeTableRecord
  2
DOTTINY
 70
0
  3
Dot (.15x) .....................................
 72
65
 73
2
 40
0.9525
 49
0.0
 74
0
 49
-0.9525
 74
0
  0
LTYPE
  5
34
330
5
100
AcDbSymbolTableRecord
100
AcDbLinetypeTableRecord
  2
DOT2
 70
0
  3
Dot (.5x) .....................................
 72
65
 73
2
 40
3.175
 49
0.0
 74
0
 49
-3.175
 74
0
  0
LTYPE
  5
35
330
5
100
AcDbSymbolTableRecord
100
AcDbLinetypeTableRecord
  2
DOTX2
 70
0
  3
Dot (2x) .  .  .  .  .  .  .  .  .  .  .  .  .
 72
65
 73
2
 40
12.7
 49
0.0
 74
0
 49
-12.7
 74
0
  0
LTYPE
  5
36
330
5
100
AcDbSymbolTableRecord
100
AcDbLinetypeTableRecord
  2
DASHED
 70
0
  3
Dashed _ _ _ _ _ _ _ _ _ _ _ _ _ _ _ _ _
 72
65
 73
2
 40
19.05
 49
12.7
 74
0
 49
-6.35
 74
0
  0
LTYPE
  5
37
330
5
100
AcDbSymbolTableRecord
100
AcDbLinetypeTableRecord
  2
DASHEDTINY
 70
0
  3
Dashed (.15x) _ _ _ _ _ _ _ _ _ _ _ _ _ _ _ _ _
 72
65
 73
2
 40
2.8575
 49
1.905
 74
0
 49
-0.9525
 74
0
  0
LTYPE
  5
38
330
5
100
AcDbSymbolTableRecord
100
AcDbLinetypeTableRecord
  2
DASHED2
 70
0
  3
Dashed (.5x) _ _ _ _ _ _ _ _ _ _ _ _ _ _ _ _ _
 72
65
 73
2
 40
9.524999999999999
 49
6.35
 74
0
 49
-3.175
 74
0
  0
LTYPE
  5
39
330
5
100
AcDbSymbolTableRecord
100
AcDbLinetypeTableRecord
  2
DASHEDX2
 70
0
  3
Dashed (2x) ____  ____  ____  ____  ____  ___
 72
65
 73
2
 40
38.09999999999999
 49
25.4
 74
0
 49
-12.7
 74
0
  0
LTYPE
  5
3A
330
5
100
AcDbSymbolTableRecord
100
AcDbLinetypeTableRecord
  2
DASHDOT
 70
0
  3
Dash dot __ . __ . __ . __ . __ . __ . __ . __
 72
65
 73
4
 40
25.4
 49
12.7
 74
0
 49
-6.35
 74
0
 49
0.0
 74
0
 49
-6.35
 74
0
  0
LTYPE
  5
3B
330
5
100
AcDbSymbolTableRecord
100
AcDbLinetypeTableRecord
  2
DASHDOTTINY
 70
0
  3
Dash dot (.15x) _._._._._._._._._._._._._._._.
 72
65
 73
4
 40
3.81
 49
1.905
 74
0
 49
-0.9525
 74
0
 49
0.0
 74
0
 49
-0.9525
 74
0
  0
LTYPE
  5
3C
330
5
100
AcDbSymbolTableRecord
100
AcDbLinetypeTableRecord
  2
DASHDOT2
 70
0
  3
Dash dot (.5x) _._._._._._._._._._._._._._._.
 72
65
 73
4
 40
12.7
 49
6.35
 74
0
 49
-3.175
 74
0
 49
0.0
 74
0
 49
-3.175
 74
0
  0
LTYPE
  5
3D
330
5
100
AcDbSymbolTableRecord
100
AcDbLinetypeTableRecord
  2
DASHDOTX2
 70
0
  3
Dash dot (2x) ____  .  ____  .  ____  .  ___
 72
65
 73
4
 40
50.8
 49
25.4
 74
0
 49
-12.7
 74
0
 49
0.0
 74
0
 49
-12.7
 74
0
  0
LTYPE
  5
3E
330
5
100
AcDbSymbolTableRecord
100
AcDbLinetypeTableRecord
  2
DIVIDE
 70
0
  3
Divide ____ . . ____ . . ____ . . ____ . . ____
 72
65
 73
6
 40
31.75
 49
12.7
 74
0
 49
-6.35
 74
0
 49
0.0
 74
0
 49
-6.35
 74
0
 49
0.0
 74
0
 49
-6.35
 74
0
  0
LTYPE
  5
3F
330
5
100
AcDbSymbolTableRecord
100
AcDbLinetypeTableRecord
  2
DIVIDETINY
 70
0
  3
Divide (.15x) __..__..__..__..__..__..__..__.._
 72
65
 73
6
 40
4.7625
 49
1.905
 74
0
 49
-0.9525
 74
0
 49
0.0
 74
0
 49
-0.9525
 74
0
 49
0.0
 74
0
 49
-0.9525
 74
0
  0
LTYPE
  5
40
330
5
100
AcDbSymbolTableRecord
100
AcDbLinetypeTableRecord
  2
DIVIDE2
 70
0
  3
Divide (.5x) __..__..__..__..__..__..__..__.._
 72
65
 73
6
 40
15.875
 49
6.35
 74
0
 49
-3.175
 74
0
 49
0.0
 74
0
 49
-3.175
 74
0
 49
0.0
 74
0
 49
-3.175
 74
0
  0
LTYPE
  5
41
330
5
100
AcDbSymbolTableRecord
100
AcDbLinetypeTableRecord
  2
DIVIDEX2
 70
0
  3
Divide (2x) ________  .  .  ________  .  .  _
 72
65
 73
6
 40
63.5
 49
25.4
 74
0
 49
-12.7
 74
0
 49
0.0
 74
0
 49
-12.7
 74
0
 49
0.0
 74
0
 49
-12.7
 74
0
  0
LTYPE
  5
42
330
5
100
AcDbSymbolTableRecord
100
AcDbLinetypeTableRecord
  2
BORDER
 70
0
  3
Border __ __ . __ __ . __ __ . __ __ . __ __ .
 72
65
 73
6
 40
44.45
 49
12.7
 74
0
 49
-6.35
 74
0
 49
12.7
 74
0
 49
-6.35
 74
0
 49
0.0
 74
0
 49
-6.35
 74
0
  0
LTYPE
  5
43
330
5
100
AcDbSymbolTableRecord
100
AcDbLinetypeTableRecord
  2
BORDERTINY
 70
0
  3
Border (.15x) __.__.__.__.__.__.__.__.__.__.__.
 72
65
 73
6
 40
6.6675
 49
1.905
 74
0
 49
-0.9525
 74
0
 49
1.905
 74
0
 49
-0.9525
 74
0
 49
0.0
 74
0
 49
-0.9525
 74
0
  0
LTYPE
  5
44
330
5
100
AcDbSymbolTableRecord
100
AcDbLinetypeTableRecord
  2
BORDER2
 70
0
  3
Border (.5x) __.__.__.__.__.__.__.__.__.__.__.
 72
65
 73
6
 40
22.225
 49
6.35
 74
0
 49
-3.175
 74
0
 49
6.35
 74
0
 49
-3.175
 74
0
 49
0.0
 74
0
 49
-3.175
 74
0
  0
LTYPE
  5
45
330
5
100
AcDbSymbolTableRecord
100
AcDbLinetypeTableRecord
  2
BORDERX2
 70
0
  3
Border (2x) ____  ____  .  ____  ____  .  ___
 72
65
 73
6
 40
88.89999999999999
 49
25.4
 74
0
 49
-12.7
 74
0
 49
25.4
 74
0
 49
-12.7
 74
0
 49
0.0
 74
0
 49
-12.7
 74
0
  0
LTYPE
  5
46
330
5
100
AcDbSymbolTableRecord
100
AcDbLinetypeTableRecord
  2
CENTER
 70
0
  3
Center ____ _ ____ _ ____ _ ____ _ ____ _ ____
 72
65
 73
4
 40
50.8
 49
31.75
 74
0
 49
-6.35
 74
0
 49
6.35
 74
0
 49
-6.35
 74
0
  0
LTYPE
  5
47
330
5
100
AcDbSymbolTableRecord
100
AcDbLinetypeTableRecord
  2
CENTERTINY
 70
0
  3
Center (.15x) ___ _ ___ _ ___ _ ___ _ ___ _ ___
 72
65
 73
4
 40
7.619999999999999
 49
4.7625
 74
0
 49
-0.9525
 74
0
 49
0.9525
 74
0
 49
-0.9525
 74
0
  0
LTYPE
  5
48
330
5
100
AcDbSymbolTableRecord
100
AcDbLinetypeTableRecord
  2
CENTER2
 70
0
  3
Center (.5x) ___ _ ___ _ ___ _ ___ _ ___ _ ___
 72
65
 73
4
 40
28.575
 49
19.05
 74
0
 49
-3.175
 74
0
 49
3.175
 74
0
 49
-3.175
 74
0
  0
LTYPE
  5
49
330
5
100
AcDbSymbolTableRecord
100
AcDbLinetypeTableRecord
  2
CENTERX2
 70
0
  3
Center (2x) ________  __  ________  __  _____
 72
65
 73
4
 40
101.6
 49
63.5
 74
0
 49
-12.7
 74
0
 49
12.7
 74
0
 49
-12.7
 74
0
  0
ENDTAB
  0
TABLE
  2
LAYER
  5
2
330
0
100
AcDbSymbolTable
 70
38
  0
LAYER
  5
10
330
2
100
AcDbSymbolTableRecord
100
AcDbLayerTableRecord
  2
0
 70
0
 62
7
  6
CONTINUOUS
370
-3
390
F
347
2000F
  0
LAYER
  5
4A
330
2
100
AcDbSymbolTableRecord
100
AcDbLayerTableRecord
  2
ANOTACIONES
 70
0
 62
251
420
6710886
  6
CONTINUOUS
370
-3
390
F
347
2000F
  0
LAYER
  5
4B
330
2
100
AcDbSymbolTableRecord
100
AcDbLayerTableRecord
  2
ARQ_ANOTACIONES
 70
0
 62
251
420
5592405
  6
CONTINUOUS
370
9
390
F
347
2000F
  0
LAYER
  5
4C
330
2
100
AcDbSymbolTableRecord
100
AcDbLayerTableRecord
  2
ARQ_ESCALERAS
 70
0
 62
251
420
5592405
  6
CONTINUOUS
370
13
390
F
347
2000F
  0
LAYER
  5
4D
330
2
100
AcDbSymbolTableRecord
100
AcDbLayerTableRecord
  2
ARQ_MOBILIARIO
 70
0
 62
8
420
7829367
  6
CONTINUOUS
370
9
390
F
347
2000F
  0
LAYER
  5
4E
330
2
100
AcDbSymbolTableRecord
100
AcDbLayerTableRecord
  2
ARQ_MUROS
 70
0
 62
7
  6
CONTINUOUS
370
30
390
F
347
2000F
  0
LAYER
  5
4F
330
2
100
AcDbSymbolTableRecord
100
AcDbLayerTableRecord
  2
ARQ_PUERTAS
 70
0
 62
7
  6
CONTINUOUS
370
18
390
F
347
2000F
  0
LAYER
  5
50
330
2
100
AcDbSymbolTableRecord
100
AcDbLayerTableRecord
  2
ARQ_TEXTOS
 70
0
 62
49
420
4473924
  6
CONTINUOUS
370
13
390
F
347
2000F
  0
LAYER
  5
51
330
2
100
AcDbSymbolTableRecord
100
AcDbLayerTableRecord
  2
ARQ_TRAMAS
 70
0
 62
253
420
10066329
  6
CONTINUOUS
370
9
390
F
347
2000F
  0
LAYER
  5
52
330
2
100
AcDbSymbolTableRecord
100
AcDbLayerTableRecord
  2
ARQ_VENTANAS
 70
0
 62
7
  6
CONTINUOUS
370
18
390
F
347
2000F
  0
LAYER
  5
53
330
2
100
AcDbSymbolTableRecord
100
AcDbLayerTableRecord
  2
COTAS
 70
0
 62
251
420
6710886
  6
CONTINUOUS
370
-3
390
F
347
2000F
  0
LAYER
  5
54
330
2
100
AcDbSymbolTableRecord
100
AcDbLayerTableRecord
  2
Defpoints
 70
0
 62
7
  6
CONTINUOUS
290
0
370
-3
390
F
347
2000F
  0
LAYER
  5
55
330
2
100
AcDbSymbolTableRecord
100
AcDbLayerTableRecord
  2
ELEC_CANALIZACION
 70
0
 62
134
420
35980
  6
CONTINUOUS
370
18
390
F
347
2000F
  0
LAYER
  5
56
330
2
100
AcDbSymbolTableRecord
100
AcDbLayerTableRecord
  2
ELEC_CIRCUITO_C1
 70
0
 62
42
420
13404672
  6
CONTINUOUS
370
18
390
F
347
2000F
  0
LAYER
  5
57
330
2
100
AcDbSymbolTableRecord
100
AcDbLayerTableRecord
  2
ELEC_CIRCUITO_C2
 70
0
 62
154
  6
CONTINUOUS
370
18
390
F
347
2000F
  0
LAYER
  5
58
330
2
100
AcDbSymbolTableRecord
100
AcDbLayerTableRecord
  2
ELEC_CIRCUITO_C3
 70
0
 62
142
420
36026
  6
CONTINUOUS
370
18
390
F
347
2000F
  0
LAYER
  5
59
330
2
100
AcDbSymbolTableRecord
100
AcDbLayerTableRecord
  2
ELEC_CIRCUITO_C4
 70
0
 62
40
420
15902976
  6
CONTINUOUS
370
18
390
F
347
2000F
  0
LAYER
  5
5A
330
2
100
AcDbSymbolTableRecord
100
AcDbLayerTableRecord
  2
ELEC_CIRCUITO_C5
 70
0
 62
152
420
29390
  6
CONTINUOUS
370
18
390
F
347
2000F
  0
LAYER
  5
5B
330
2
100
AcDbSymbolTableRecord
100
AcDbLayerTableRecord
  2
ELEC_CIRCUITO_C6
 70
0
 62
22
420
14230307
  6
CONTINUOUS
370
18
390
F
347
2000F
  0
LAYER
  5
5C
330
2
100
AcDbSymbolTableRecord
100
AcDbLayerTableRecord
  2
ELEC_CIRCUITO_C7
 70
0
 62
193
420
10178521
  6
CONTINUOUS
370
18
390
F
347
2000F
  0
LAYER
  5
5D
330
2
100
AcDbSymbolTableRecord
100
AcDbLayerTableRecord
  2
ELEC_CIRCUITO_C8
 70
0
 62
96
420
32768
  6
CONTINUOUS
370
18
390
F
347
2000F
  0
LAYER
  5
5E
330
2
100
AcDbSymbolTableRecord
100
AcDbLayerTableRecord
  2
ELEC_COTAS_REF
 70
0
 62
8
420
7829367
  6
CONTINUOUS
370
9
390
F
347
2000F
  0
LAYER
  5
5F
330
2
100
AcDbSymbolTableRecord
100
AcDbLayerTableRecord
  2
ELEC_INTERRUPTORES
 70
0
 62
124
420
42602
  6
CONTINUOUS
370
18
390
F
347
2000F
  0
LAYER
  5
60
330
2
100
AcDbSymbolTableRecord
100
AcDbLayerTableRecord
  2
ELEC_LEYENDA
 70
0
 62
7
  6
CONTINUOUS
370
18
390
F
347
2000F
  0
LAYER
  5
61
330
2
100
AcDbSymbolTableRecord
100
AcDbLayerTableRecord
  2
ELEC_LUMINARIAS
 70
0
 62
40
420
15902976
  6
CONTINUOUS
370
18
390
F
347
2000F
  0
LAYER
  5
62
330
2
100
AcDbSymbolTableRecord
100
AcDbLayerTableRecord
  2
ELEC_MEDIDOR
 70
0
 62
202
420
9055202
  6
CONTINUOUS
370
30
390
F
347
2000F
  0
LAYER
  5
63
330
2
100
AcDbSymbolTableRecord
100
AcDbLayerTableRecord
  2
ELEC_TABLERO
 70
0
 62
22
420
14230307
  6
CONTINUOUS
370
18
390
F
347
2000F
  0
LAYER
  5
64
330
2
100
AcDbSymbolTableRecord
100
AcDbLayerTableRecord
  2
ELEC_TEXTOS
 70
0
 62
7
  6
CONTINUOUS
370
13
390
F
347
2000F
  0
LAYER
  5
65
330
2
100
AcDbSymbolTableRecord
100
AcDbLayerTableRecord
  2
ELEC_TOMACORRIENTES
 70
0
 62
152
420
29390
  6
CONTINUOUS
370
18
390
F
347
2000F
  0
LAYER
  5
66
330
2
100
AcDbSymbolTableRecord
100
AcDbLayerTableRecord
  2
ESCALERAS
 70
0
 62
7
  6
CONTINUOUS
370
-3
390
F
347
2000F
  0
LAYER
  5
67
330
2
100
AcDbSymbolTableRecord
100
AcDbLayerTableRecord
  2
MARCO
 70
0
 62
7
  6
CONTINUOUS
370
50
390
F
347
2000F
  0
LAYER
  5
68
330
2
100
AcDbSymbolTableRecord
100
AcDbLayerTableRecord
  2
MOBILIARIO
 70
0
 62
251
420
6710886
  6
CONTINUOUS
370
-3
390
F
347
2000F
  0
LAYER
  5
69
330
2
100
AcDbSymbolTableRecord
100
AcDbLayerTableRecord
  2
MUROS
 70
0
 62
7
  6
CONTINUOUS
370
35
390
F
347
2000F
  0
LAYER
  5
6A
330
2
100
AcDbSymbolTableRecord
100
AcDbLayerTableRecord
  2
PUERTAS
 70
0
 62
7
  6
CONTINUOUS
370
-3
390
F
347
2000F
  0
LAYER
  5
6B
330
2
100
AcDbSymbolTableRecord
100
AcDbLayerTableRecord
  2
TEXTOS
 70
0
 62
7
  6
CONTINUOUS
370
-3
390
F
347
2000F
  0
LAYER
  5
6C
330
2
100
AcDbSymbolTableRecord
100
AcDbLayerTableRecord
  2
TRAMAS
 70
0
 62
253
420
10066329
  6
CONTINUOUS
370
-3
390
F
347
2000F
  0
LAYER
  5
6D
330
2
100
AcDbSymbolTableRecord
100
AcDbLayerTableRecord
  2
VENTANAS
 70
0
 62
7
  6
CONTINUOUS
370
-3
390
F
347
2000F
  0
LAYER
  5
2002A
330
2
100
AcDbSymbolTableRecord
100
AcDbLayerTableRecord
  2
ELEC_PUESTA_TIERRA
 70
0
 62
3
  6
Continuous
370
25
390
20007
347
2000F
  0
ENDTAB
  0
TABLE
  2
STYLE
  5
3
330
0
100
AcDbSymbolTable
 70
1
  0
STYLE
  5
6E
330
3
100
AcDbSymbolTableRecord
100
AcDbTextStyleTableRecord
  2
STANDARD
 70
0
 40
0.0
 41
1.0
 50
0.0
 71
0
 42
1.0
  3
STANDARD
  4

  0
ENDTAB
  0
TABLE
  2
VIEW
  5
6
330
0
100
AcDbSymbolTable
 70
0
  0
ENDTAB
  0
TABLE
  2
UCS
  5
7
330
0
100
AcDbSymbolTable
 70
0
  0
ENDTAB
  0
TABLE
  2
APPID
  5
9
330
0
100
AcDbSymbolTable
 70
4
  0
APPID
  5
12
330
9
100
AcDbSymbolTableRecord
100
AcDbRegAppTableRecord
  2
ACAD
 70
0
  0
APPID
  5
6F
330
9
100
AcDbSymbolTableRecord
100
AcDbRegAppTableRecord
  2
LibreCad
 70
0
  0
APPID
  5
2002C
330
9
100
AcDbSymbolTableRecord
100
AcDbRegAppTableRecord
  2
HATCHBACKGROUNDCOLOR
 70
0
  0
APPID
  5
2002D
330
9
100
AcDbSymbolTableRecord
100
AcDbRegAppTableRecord
  2
EZDXF
 70
0
  0
ENDTAB
  0
TABLE
  2
DIMSTYLE
  5
A
330
0
100
AcDbSymbolTable
 70
1
100
AcDbDimStyleTable
  0
DIMSTYLE
105
70
330
A
100
AcDbSymbolTableRecord
100
AcDbDimStyleTableRecord
  2
Standard
 70
0
 40
1.0
 41
0.175
 42
0.125
 43
0.38
 44
0.375
 45
0.0
 46
0.0
 47
0.0
 48
0.0
 49
1.0
140
0.25
141
0.09
142
0.0
143
25.4
144
100.0
145
0.0
146
1.0
147
0.1
148
0.0
 69
0
 70
0
 71
0
 72
0
 73
0
 74
1
 75
0
 76
0
 77
0
 78
12
 79
3
170
0
171
2
172
0
173
0
174
0
175
0
176
0
177
0
178
0
179
2
271
2
272
4
273
2
274
2
275
0
276
0
277
2
278
0
279
0
280
0
281
0
282
0
283
1
284
0
285
0
286
0
288
0
289
3
290
0
340
6E
371
-2
372
-2
  0
ENDTAB
  0
TABLE
  2
BLOCK_RECORD
  5
1
330
0
100
AcDbSymbolTable
 70
5
  0
BLOCK_RECORD
  5
1F
330
1
100
AcDbSymbolTableRecord
100
AcDbBlockTableRecord
  2
*Model_Space
340
2000B
 70
0
280
1
281
0
  0
BLOCK_RECORD
  5
1E
330
1
100
AcDbSymbolTableRecord
100
AcDbBlockTableRecord
  2
*Paper_Space
340
2000C
 70
0
280
1
281
0
  0
BLOCK_RECORD
  5
71
330
1
100
AcDbSymbolTableRecord
100
AcDbBlockTableRecord
  2
_ARCHTICK
340
0
 70
0
280
1
281
0
  0
BLOCK_RECORD
  5
74
330
1
100
AcDbSymbolTableRecord
100
AcDbBlockTableRecord
  2
_CLOSEDFILLED
340
0
 70
0
280
1
281
0
  0
BLOCK_RECORD
  5
77
330
1
100
AcDbSymbolTableRecord
100
AcDbBlockTableRecord
  2
_CLOSEDBLANK
340
0
 70
0
280
1
281
0
  0
ENDTAB
  0
ENDSEC
  0
SECTION
  2
BLOCKS
  0
BLOCK
  5
20
330
1F
100
AcDbEntity
  8
0
100
AcDbBlockBegin
  2
*Model_Space
 70
0
 10
0.0
 20
0.0
 30
0.0
  3
*Model_Space
  1

  0
ENDBLK
  5
21
330
1F
100
AcDbEntity
  8
0
100
AcDbBlockEnd
  0
BLOCK
  5
1C
330
1E
100
AcDbEntity
  8
0
100
AcDbBlockBegin
  2
*Paper_Space
 70
0
 10
0.0
 20
0.0
 30
0.0
  3
*Paper_Space
  1

  0
ENDBLK
  5
1D
330
1E
100
AcDbEntity
  8
0
100
AcDbBlockEnd
  0
BLOCK
  5
72
330
71
100
AcDbEntity
  8
0
100
AcDbBlockBegin
  2
_ARCHTICK
 70
0
 10
0.0
 20
0.0
 30
0.0
  3
_ARCHTICK
  1

  0
LWPOLYLINE
  5
7A
330
71
100
AcDbEntity
  8
0
  6
ByBlock
 62
0
100
AcDbPolyline
 90
2
 70
0
 10
-0.5
 20
-0.5
 10
0.5
 20
0.5
  0
ENDBLK
  5
73
330
71
100
AcDbEntity
  8
0
100
AcDbBlockEnd
  0
BLOCK
  5
75
330
74
100
AcDbEntity
  8
0
100
AcDbBlockBegin
  2
_CLOSEDFILLED
 70
0
 10
0.0
 20
0.0
 30
0.0
  3
_CLOSEDFILLED
  1

  0
SOLID
  5
7B
330
74
100
AcDbEntity
  8
0
  6
ByBlock
 62
0
100
AcDbTrace
 10
-1.0
 20
0.1643989837240254
 30
0.0
 11
0.0
 21
0.0
 31
0.0
 12
-1.0
 22
-0.1643989837240254
 32
0.0
 13
-1.0
 23
-0.1643989837240254
 33
0.0
  0
ENDBLK
  5
76
330
74
100
AcDbEntity
  8
0
100
AcDbBlockEnd
  0
BLOCK
  5
78
330
77
100
AcDbEntity
  8
0
100
AcDbBlockBegin
  2
_CLOSEDBLANK
 70
0
 10
0.0
 20
0.0
 30
0.0
  3
_CLOSEDBLANK
  1

  0
LWPOLYLINE
  5
7C
330
77
100
AcDbEntity
  8
0
  6
ByBlock
 62
0
100
AcDbPolyline
 90
3
 70
1
 10
-1.0
 20
0.1643989837240254
 10
0.0
 20
0.0
 10
-1.0
 20
-0.1643989837240254
  0
ENDBLK
  5
79
330
77
100
AcDbEntity
  8
0
100
AcDbBlockEnd
  0
ENDSEC
  0
SECTION
  2
ENTITIES
  0
TEXT
  5
7D
330
1F
100
AcDbEntity
  8
ARQ_TEXTOS
  6
ByLayer
100
AcDbText
 10
4.5
 20
6.89175
 30
0.0
 40
0.21
  1
COCINA
  7
STANDARD
 72
1
 11
4.5
 21
6.89175
 31
0.0
100
AcDbText
 73
2
  0
TEXT
  5
7E
330
1F
100
AcDbEntity
  8
ARQ_TEXTOS
  6
ByLayer
100
AcDbText
 10
4.5
 20
6.60825
 30
0.0
 40
0.21
  1
GRANDE
  7
STANDARD
 72
1
 11
4.5
 21
6.60825
 31
0.0
100
AcDbText
 73
2
  0
TEXT
  5
7F
330
1F
100
AcDbEntity
  8
ARQ_TEXTOS
  6
ByLayer
100
AcDbText
 10
7.5
 20
6.89175
 30
0.0
 40
0.21
  1
OFICINA
  7
STANDARD
 72
1
 11
7.5
 21
6.89175
 31
0.0
100
AcDbText
 73
2
  0
TEXT
  5
80
330
1F
100
AcDbEntity
  8
ARQ_TEXTOS
  6
ByLayer
100
AcDbText
 10
7.5
 20
6.60825
 30
0.0
 40
0.21
  1
VARIOS
  7
STANDARD
 72
1
 11
7.5
 21
6.60825
 31
0.0
100
AcDbText
 73
2
  0
TEXT
  5
81
330
1F
100
AcDbEntity
  8
ARQ_TEXTOS
  6
ByLayer
100
AcDbText
 10
10.5
 20
6.89175
 30
0.0
 40
0.21
  1
CUARTO CON
  7
STANDARD
 72
1
 11
10.5
 21
6.89175
 31
0.0
100
AcDbText
 73
2
  0
TEXT
  5
82
330
1F
100
AcDbEntity
  8
ARQ_TEXTOS
  6
ByLayer
100
AcDbText
 10
10.5
 20
6.60825
 30
0.0
 40
0.21
  1
CAMA
  7
STANDARD
 72
1
 11
10.5
 21
6.60825
 31
0.0
100
AcDbText
 73
2
  0
TEXT
  5
83
330
1F
100
AcDbEntity
  8
ARQ_TEXTOS
  6
ByLayer
100
AcDbText
 10
13.5
 20
6.75
 30
0.0
 40
0.21
  1
SALA
  7
STANDARD
 72
1
 11
13.5
 21
6.75
 31
0.0
100
AcDbText
 73
2
  0
TEXT
  5
84
330
1F
100
AcDbEntity
  8
ARQ_TEXTOS
  6
ByLayer
100
AcDbText
 10
3.75
 20
3.75
 30
0.0
 40
0.21
  1
PASADIZO
  7
STANDARD
 72
1
 11
3.75
 21
3.75
 31
0.0
100
AcDbText
 73
2
  0
TEXT
  5
85
330
1F
100
AcDbEntity
  8
ARQ_TEXTOS
  6
ByLayer
100
AcDbText
 10
8.25
 20
1.5
 30
0.0
 40
0.21
  1
BAÑO
  7
STANDARD
 72
1
 11
8.25
 21
1.5
 31
0.0
100
AcDbText
 73
2
  0
TEXT
  5
86
330
1F
100
AcDbEntity
  8
ARQ_TEXTOS
  6
ByLayer
100
AcDbText
 10
12.0
 20
1.64175
 30
0.0
 40
0.21
  1
CUARTO CON
  7
STANDARD
 72
1
 11
12.0
 21
1.64175
 31
0.0
100
AcDbText
 73
2
  0
TEXT
  5
87
330
1F
100
AcDbEntity
  8
ARQ_TEXTOS
  6
ByLayer
100
AcDbText
 10
12.0
 20
1.35825
 30
0.0
 40
0.21
  1
CAMA
  7
STANDARD
 72
1
 11
12.0
 21
1.35825
 31
0.0
100
AcDbText
 73
2
  0
LINE
  5
88
330
1F
100
AcDbEntity
  8
ARQ_MUROS
  6
ByLayer
100
AcDbLine
 10
-0.075
 20
3.0
 30
0.0
 11
-0.075
 21
9.0
 31
0.0
  0
LINE
  5
89
330
1F
100
AcDbEntity
  8
ARQ_MUROS
  6
ByLayer
100
AcDbLine
 10
0.075
 20
3.0
 30
0.0
 11
0.075
 21
9.0
 31
0.0
  0
LINE
  5
8A
330
1F
100
AcDbEntity
  8
ARQ_MUROS
  6
ByLayer
100
AcDbLine
 10
0.0
 20
8.925
 30
0.0
 11
15.0
 21
8.925
 31
0.0
  0
LINE
  5
8B
330
1F
100
AcDbEntity
  8
ARQ_MUROS
  6
ByLayer
100
AcDbLine
 10
0.0
 20
9.075
 30
0.0
 11
15.0
 21
9.075
 31
0.0
  0
LINE
  5
8C
330
1F
100
AcDbEntity
  8
ARQ_MUROS
  6
ByLayer
100
AcDbLine
 10
14.925
 20
9.0
 30
0.0
 11
14.925
 21
0.0
 31
0.0
  0
LINE
  5
8D
330
1F
100
AcDbEntity
  8
ARQ_MUROS
  6
ByLayer
100
AcDbLine
 10
15.075
 20
9.0
 30
0.0
 11
15.075
 21
0.0
 31
0.0
  0
LINE
  5
8E
330
1F
100
AcDbEntity
  8
ARQ_MUROS
  6
ByLayer
100
AcDbLine
 10
15.0
 20
-0.075
 30
0.0
 11
7.5
 21
-0.075
 31
0.0
  0
LINE
  5
8F
330
1F
100
AcDbEntity
  8
ARQ_MUROS
  6
ByLayer
100
AcDbLine
 10
15.0
 20
0.075
 30
0.0
 11
7.5
 21
0.075
 31
0.0
  0
LINE
  5
90
330
1F
100
AcDbEntity
  8
ARQ_MUROS
  6
ByLayer
100
AcDbLine
 10
7.425
 20
0.0
 30
0.0
 11
7.425
 21
3.0
 31
0.0
  0
LINE
  5
91
330
1F
100
AcDbEntity
  8
ARQ_MUROS
  6
ByLayer
100
AcDbLine
 10
7.575
 20
0.0
 30
0.0
 11
7.575
 21
3.0
 31
0.0
  0
LINE
  5
92
330
1F
100
AcDbEntity
  8
ARQ_MUROS
  6
ByLayer
100
AcDbLine
 10
7.5
 20
2.925
 30
0.0
 11
0.0
 21
2.925
 31
0.0
  0
LINE
  5
93
330
1F
100
AcDbEntity
  8
ARQ_MUROS
  6
ByLayer
100
AcDbLine
 10
7.5
 20
3.075
 30
0.0
 11
0.0
 21
3.075
 31
0.0
  0
LINE
  5
94
330
1F
100
AcDbEntity
  8
ARQ_MUROS
  6
ByLayer
100
AcDbLine
 10
2.925
 20
4.5
 30
0.0
 11
2.925
 21
9.0
 31
0.0
  0
LINE
  5
95
330
1F
100
AcDbEntity
  8
ARQ_MUROS
  6
ByLayer
100
AcDbLine
 10
3.075
 20
4.5
 30
0.0
 11
3.075
 21
9.0
 31
0.0
  0
LINE
  5
96
330
1F
100
AcDbEntity
  8
ARQ_MUROS
  6
ByLayer
100
AcDbLine
 10
5.925
 20
4.5
 30
0.0
 11
5.925
 21
9.0
 31
0.0
  0
LINE
  5
97
330
1F
100
AcDbEntity
  8
ARQ_MUROS
  6
ByLayer
100
AcDbLine
 10
6.075
 20
4.5
 30
0.0
 11
6.075
 21
9.0
 31
0.0
  0
LINE
  5
98
330
1F
100
AcDbEntity
  8
ARQ_MUROS
  6
ByLayer
100
AcDbLine
 10
8.925
 20
4.5
 30
0.0
 11
8.925
 21
9.0
 31
0.0
  0
LINE
  5
99
330
1F
100
AcDbEntity
  8
ARQ_MUROS
  6
ByLayer
100
AcDbLine
 10
9.075
 20
4.5
 30
0.0
 11
9.075
 21
9.0
 31
0.0
  0
LINE
  5
9A
330
1F
100
AcDbEntity
  8
ARQ_MUROS
  6
ByLayer
100
AcDbLine
 10
11.925
 20
4.5
 30
0.0
 11
11.925
 21
9.0
 31
0.0
  0
LINE
  5
9B
330
1F
100
AcDbEntity
  8
ARQ_MUROS
  6
ByLayer
100
AcDbLine
 10
12.075
 20
4.5
 30
0.0
 11
12.075
 21
9.0
 31
0.0
  0
LINE
  5
9C
330
1F
100
AcDbEntity
  8
ARQ_MUROS
  6
ByLayer
100
AcDbLine
 10
0.0
 20
4.425
 30
0.0
 11
5.2
 21
4.425
 31
0.0
  0
LINE
  5
9D
330
1F
100
AcDbEntity
  8
ARQ_MUROS
  6
ByLayer
100
AcDbLine
 10
0.0
 20
4.575
 30
0.0
 11
5.2
 21
4.575
 31
0.0
  0
LINE
  5
9E
330
1F
100
AcDbEntity
  8
ARQ_MUROS
  6
ByLayer
100
AcDbLine
 10
6.8
 20
4.425
 30
0.0
 11
9.0
 21
4.425
 31
0.0
  0
LINE
  5
9F
330
1F
100
AcDbEntity
  8
ARQ_MUROS
  6
ByLayer
100
AcDbLine
 10
6.8
 20
4.575
 30
0.0
 11
9.0
 21
4.575
 31
0.0
  0
LINE
  5
A0
330
1F
100
AcDbEntity
  8
ARQ_MUROS
  6
ByLayer
100
AcDbLine
 10
9.8
 20
4.425
 30
0.0
 11
12.0
 21
4.425
 31
0.0
  0
LINE
  5
A1
330
1F
100
AcDbEntity
  8
ARQ_MUROS
  6
ByLayer
100
AcDbLine
 10
9.8
 20
4.575
 30
0.0
 11
12.0
 21
4.575
 31
0.0
  0
LINE
  5
A2
330
1F
100
AcDbEntity
  8
ARQ_MUROS
  6
ByLayer
100
AcDbLine
 10
12.8
 20
4.425
 30
0.0
 11
15.0
 21
4.425
 31
0.0
  0
LINE
  5
A3
330
1F
100
AcDbEntity
  8
ARQ_MUROS
  6
ByLayer
100
AcDbLine
 10
12.8
 20
4.575
 30
0.0
 11
15.0
 21
4.575
 31
0.0
  0
LINE
  5
A4
330
1F
100
AcDbEntity
  8
ARQ_MUROS
  6
ByLayer
100
AcDbLine
 10
8.925
 20
0.0
 30
0.0
 11
8.925
 21
3.0
 31
0.0
  0
LINE
  5
A5
330
1F
100
AcDbEntity
  8
ARQ_MUROS
  6
ByLayer
100
AcDbLine
 10
9.075
 20
0.0
 30
0.0
 11
9.075
 21
3.0
 31
0.0
  0
LINE
  5
A6
330
1F
100
AcDbEntity
  8
ARQ_MUROS
  6
ByLayer
100
AcDbLine
 10
7.5
 20
2.925
 30
0.0
 11
7.7
 21
2.925
 31
0.0
  0
LINE
  5
A7
330
1F
100
AcDbEntity
  8
ARQ_MUROS
  6
ByLayer
100
AcDbLine
 10
7.5
 20
3.075
 30
0.0
 11
7.7
 21
3.075
 31
0.0
  0
LINE
  5
A8
330
1F
100
AcDbEntity
  8
ARQ_MUROS
  6
ByLayer
100
AcDbLine
 10
8.4
 20
2.925
 30
0.0
 11
9.0
 21
2.925
 31
0.0
  0
LINE
  5
A9
330
1F
100
AcDbEntity
  8
ARQ_MUROS
  6
ByLayer
100
AcDbLine
 10
8.4
 20
3.075
 30
0.0
 11
9.0
 21
3.075
 31
0.0
  0
LINE
  5
AA
330
1F
100
AcDbEntity
  8
ARQ_MUROS
  6
ByLayer
100
AcDbLine
 10
10.2
 20
2.925
 30
0.0
 11
12.8
 21
2.925
 31
0.0
  0
LINE
  5
AB
330
1F
100
AcDbEntity
  8
ARQ_MUROS
  6
ByLayer
100
AcDbLine
 10
10.2
 20
3.075
 30
0.0
 11
12.8
 21
3.075
 31
0.0
  0
LINE
  5
AC
330
1F
100
AcDbEntity
  8
ARQ_MUROS
  6
ByLayer
100
AcDbLine
 10
12.725
 20
3.0
 30
0.0
 11
12.725
 21
4.5
 31
0.0
  0
LINE
  5
AD
330
1F
100
AcDbEntity
  8
ARQ_MUROS
  6
ByLayer
100
AcDbLine
 10
12.875
 20
3.0
 30
0.0
 11
12.875
 21
4.5
 31
0.0
  0
LINE
  5
AE
330
1F
100
AcDbEntity
  8
ARQ_PUERTAS
  6
ByLayer
100
AcDbLine
 10
6.0
 20
4.5
 30
0.0
 11
6.0
 21
5.3
 31
0.0
  0
ARC
  5
AF
330
1F
100
AcDbEntity
  8
ARQ_PUERTAS
  6
ByLayer
100
AcDbCircle
 10
6.0
 20
4.5
 30
0.0
 40
0.8
100
AcDbArc
 50
90.0
 51
180.0
  0
LINE
  5
B0
330
1F
100
AcDbEntity
  8
ARQ_PUERTAS
  6
ByLayer
100
AcDbLine
 10
6.0
 20
4.5
 30
0.0
 11
6.0
 21
5.3
 31
0.0
  0
ARC
  5
B1
330
1F
100
AcDbEntity
  8
ARQ_PUERTAS
  6
ByLayer
100
AcDbCircle
 10
6.0
 20
4.5
 30
0.0
 40
0.8
100
AcDbArc
 50
0.0
 51
90.0
  0
LINE
  5
B2
330
1F
100
AcDbEntity
  8
ARQ_PUERTAS
  6
ByLayer
100
AcDbLine
 10
9.0
 20
4.5
 30
0.0
 11
9.0
 21
5.3
 31
0.0
  0
ARC
  5
B3
330
1F
100
AcDbEntity
  8
ARQ_PUERTAS
  6
ByLayer
100
AcDbCircle
 10
9.0
 20
4.5
 30
0.0
 40
0.8
100
AcDbArc
 50
0.0
 51
90.0
  0
LINE
  5
B4
330
1F
100
AcDbEntity
  8
ARQ_PUERTAS
  6
ByLayer
100
AcDbLine
 10
12.0
 20
4.5
 30
0.0
 11
12.0
 21
5.3
 31
0.0
  0
ARC
  5
B5
330
1F
100
AcDbEntity
  8
ARQ_PUERTAS
  6
ByLayer
100
AcDbCircle
 10
12.0
 20
4.5
 30
0.0
 40
0.8
100
AcDbArc
 50
0.0
 51
90.0
  0
LINE
  5
B6
330
1F
100
AcDbEntity
  8
ARQ_PUERTAS
  6
ByLayer
100
AcDbLine
 10
8.4
 20
3.0
 30
0.0
 11
8.4
 21
2.3
 31
0.0
  0
ARC
  5
B7
330
1F
100
AcDbEntity
  8
ARQ_PUERTAS
  6
ByLayer
100
AcDbCircle
 10
8.4
 20
3.0
 30
0.0
 40
0.7
100
AcDbArc
 50
180.0
 51
270.0
  0
LINE
  5
B8
330
1F
100
AcDbEntity
  8
ARQ_PUERTAS
  6
ByLayer
100
AcDbLine
 10
10.2
 20
3.0
 30
0.0
 11
10.2
 21
2.2
 31
0.0
  0
ARC
  5
B9
330
1F
100
AcDbEntity
  8
ARQ_PUERTAS
  6
ByLayer
100
AcDbCircle
 10
10.2
 20
3.0
 30
0.0
 40
0.8
100
AcDbArc
 50
180.0
 51
270.0
  0
LINE
  5
BA
330
1F
100
AcDbEntity
  8
ARQ_VENTANAS
  6
ByLayer
100
AcDbLine
 10
4.0
 20
8.925
 30
0.0
 11
5.2
 21
8.925
 31
0.0
  0
LINE
  5
BB
330
1F
100
AcDbEntity
  8
ARQ_VENTANAS
  6
ByLayer
100
AcDbLine
 10
5.2
 20
8.925
 30
0.0
 11
5.2
 21
9.075
 31
0.0
  0
LINE
  5
BC
330
1F
100
AcDbEntity
  8
ARQ_VENTANAS
  6
ByLayer
100
AcDbLine
 10
5.2
 20
9.075
 30
0.0
 11
4.0
 21
9.075
 31
0.0
  0
LINE
  5
BD
330
1F
100
AcDbEntity
  8
ARQ_VENTANAS
  6
ByLayer
100
AcDbLine
 10
4.0
 20
9.075
 30
0.0
 11
4.0
 21
8.925
 31
0.0
  0
LINE
  5
BE
330
1F
100
AcDbEntity
  8
ARQ_VENTANAS
  6
ByLayer
100
AcDbLine
 10
4.0
 20
9.0
 30
0.0
 11
5.2
 21
9.0
 31
0.0
  0
LINE
  5
BF
330
1F
100
AcDbEntity
  8
ARQ_VENTANAS
  6
ByLayer
100
AcDbLine
 10
14.925
 20
5.4
 30
0.0
 11
15.075
 21
5.4
 31
0.0
  0
LINE
  5
C0
330
1F
100
AcDbEntity
  8
ARQ_VENTANAS
  6
ByLayer
100
AcDbLine
 10
15.075
 20
5.4
 30
0.0
 11
15.075
 21
8.0
 31
0.0
  0
LINE
  5
C1
330
1F
100
AcDbEntity
  8
ARQ_VENTANAS
  6
ByLayer
100
AcDbLine
 10
15.075
 20
8.0
 30
0.0
 11
14.925
 21
8.0
 31
0.0
  0
LINE
  5
C2
330
1F
100
AcDbEntity
  8
ARQ_VENTANAS
  6
ByLayer
100
AcDbLine
 10
14.925
 20
8.0
 30
0.0
 11
14.925
 21
5.4
 31
0.0
  0
LINE
  5
C3
330
1F
100
AcDbEntity
  8
ARQ_VENTANAS
  6
ByLayer
100
AcDbLine
 10
15.0
 20
5.4
 30
0.0
 11
15.0
 21
8.0
 31
0.0
  0
LINE
  5
C4
330
1F
100
AcDbEntity
  8
ARQ_VENTANAS
  6
ByLayer
100
AcDbLine
 10
14.925
 20
0.5
 30
0.0
 11
15.075
 21
0.5
 31
0.0
  0
LINE
  5
C5
330
1F
100
AcDbEntity
  8
ARQ_VENTANAS
  6
ByLayer
100
AcDbLine
 10
15.075
 20
0.5
 30
0.0
 11
15.075
 21
2.9
 31
0.0
  0
LINE
  5
C6
330
1F
100
AcDbEntity
  8
ARQ_VENTANAS
  6
ByLayer
100
AcDbLine
 10
15.075
 20
2.9
 30
0.0
 11
14.925
 21
2.9
 31
0.0
  0
LINE
  5
C7
330
1F
100
AcDbEntity
  8
ARQ_VENTANAS
  6
ByLayer
100
AcDbLine
 10
14.925
 20
2.9
 30
0.0
 11
14.925
 21
0.5
 31
0.0
  0
LINE
  5
C8
330
1F
100
AcDbEntity
  8
ARQ_VENTANAS
  6
ByLayer
100
AcDbLine
 10
15.0
 20
0.5
 30
0.0
 11
15.0
 21
2.9
 31
0.0
  0
LINE
  5
C9
330
1F
100
AcDbEntity
  8
ARQ_VENTANAS
  6
ByLayer
100
AcDbLine
 10
9.5
 20
-0.075
 30
0.0
 11
14.3
 21
-0.075
 31
0.0
  0
LINE
  5
CA
330
1F
100
AcDbEntity
  8
ARQ_VENTANAS
  6
ByLayer
100
AcDbLine
 10
14.3
 20
-0.075
 30
0.0
 11
14.3
 21
0.075
 31
0.0
  0
LINE
  5
CB
330
1F
100
AcDbEntity
  8
ARQ_VENTANAS
  6
ByLayer
100
AcDbLine
 10
14.3
 20
0.075
 30
0.0
 11
9.5
 21
0.075
 31
0.0
  0
LINE
  5
CC
330
1F
100
AcDbEntity
  8
ARQ_VENTANAS
  6
ByLayer
100
AcDbLine
 10
9.5
 20
0.075
 30
0.0
 11
9.5
 21
-0.075
 31
0.0
  0
LINE
  5
CD
330
1F
100
AcDbEntity
  8
ARQ_VENTANAS
  6
ByLayer
100
AcDbLine
 10
9.5
 20
0.0
 30
0.0
 11
14.3
 21
0.0
 31
0.0
  0
LINE
  5
CE
330
1F
100
AcDbEntity
  8
ARQ_VENTANAS
  6
ByLayer
100
AcDbLine
 10
8.0
 20
-0.075
 30
0.0
 11
8.7
 21
-0.075
 31
0.0
  0
LINE
  5
CF
330
1F
100
AcDbEntity
  8
ARQ_VENTANAS
  6
ByLayer
100
AcDbLine
 10
8.7
 20
-0.075
 30
0.0
 11
8.7
 21
0.075
 31
0.0
  0
LINE
  5
D0
330
1F
100
AcDbEntity
  8
ARQ_VENTANAS
  6
ByLayer
100
AcDbLine
 10
8.7
 20
0.075
 30
0.0
 11
8.0
 21
0.075
 31
0.0
  0
LINE
  5
D1
330
1F
100
AcDbEntity
  8
ARQ_VENTANAS
  6
ByLayer
100
AcDbLine
 10
8.0
 20
0.075
 30
0.0
 11
8.0
 21
-0.075
 31
0.0
  0
LINE
  5
D2
330
1F
100
AcDbEntity
  8
ARQ_VENTANAS
  6
ByLayer
100
AcDbLine
 10
8.0
 20
0.0
 30
0.0
 11
8.7
 21
0.0
 31
0.0
  0
LINE
  5
D3
330
1F
100
AcDbEntity
  8
ARQ_ESCALERAS
  6
ByLayer
100
AcDbLine
 10
0.25
 20
4.85
 30
0.0
 11
1.35
 21
4.85
 31
0.0
  0
LINE
  5
D4
330
1F
100
AcDbEntity
  8
ARQ_ESCALERAS
  6
ByLayer
100
AcDbLine
 10
0.25
 20
5.25
 30
0.0
 11
1.35
 21
5.25
 31
0.0
  0
LINE
  5
D5
330
1F
100
AcDbEntity
  8
ARQ_ESCALERAS
  6
ByLayer
100
AcDbLine
 10
0.25
 20
5.65
 30
0.0
 11
1.35
 21
5.65
 31
0.0
  0
LINE
  5
D6
330
1F
100
AcDbEntity
  8
ARQ_ESCALERAS
  6
ByLayer
100
AcDbLine
 10
0.25
 20
6.05
 30
0.0
 11
1.35
 21
6.05
 31
0.0
  0
LINE
  5
D7
330
1F
100
AcDbEntity
  8
ARQ_ESCALERAS
  6
ByLayer
100
AcDbLine
 10
0.25
 20
6.45
 30
0.0
 11
1.35
 21
6.45
 31
0.0
  0
LINE
  5
D8
330
1F
100
AcDbEntity
  8
ARQ_ESCALERAS
  6
ByLayer
100
AcDbLine
 10
0.25
 20
6.85
 30
0.0
 11
1.35
 21
6.85
 31
0.0
  0
LINE
  5
D9
330
1F
100
AcDbEntity
  8
ARQ_ESCALERAS
  6
ByLayer
100
AcDbLine
 10
1.65
 20
4.85
 30
0.0
 11
2.75
 21
4.85
 31
0.0
  0
LINE
  5
DA
330
1F
100
AcDbEntity
  8
ARQ_ESCALERAS
  6
ByLayer
100
AcDbLine
 10
1.65
 20
5.25
 30
0.0
 11
2.75
 21
5.25
 31
0.0
  0
LINE
  5
DB
330
1F
100
AcDbEntity
  8
ARQ_ESCALERAS
  6
ByLayer
100
AcDbLine
 10
1.65
 20
5.65
 30
0.0
 11
2.75
 21
5.65
 31
0.0
  0
LINE
  5
DC
330
1F
100
AcDbEntity
  8
ARQ_ESCALERAS
  6
ByLayer
100
AcDbLine
 10
1.65
 20
6.05
 30
0.0
 11
2.75
 21
6.05
 31
0.0
  0
LINE
  5
DD
330
1F
100
AcDbEntity
  8
ARQ_ESCALERAS
  6
ByLayer
100
AcDbLine
 10
1.65
 20
6.45
 30
0.0
 11
2.75
 21
6.45
 31
0.0
  0
LINE
  5
DE
330
1F
100
AcDbEntity
  8
ARQ_ESCALERAS
  6
ByLayer
100
AcDbLine
 10
0.72
 20
4.85
 30
0.0
 11
0.72
 21
6.85
 31
0.0
  0
LINE
  5
DF
330
1F
100
AcDbEntity
  8
ARQ_ESCALERAS
  6
ByLayer
100
AcDbLine
 10
2.2
 20
6.85
 30
0.0
 11
2.2
 21
4.85
 31
0.0
  0
LINE
  5
E0
330
1F
100
AcDbEntity
  8
ARQ_MOBILIARIO
  6
ByLayer
100
AcDbLine
 10
3.25
 20
5.0
 30
0.0
 11
3.95
 21
5.0
 31
0.0
  0
LINE
  5
E1
330
1F
100
AcDbEntity
  8
ARQ_MOBILIARIO
  6
ByLayer
100
AcDbLine
 10
3.95
 20
5.0
 30
0.0
 11
3.95
 21
8.2
 31
0.0
  0
LINE
  5
E2
330
1F
100
AcDbEntity
  8
ARQ_MOBILIARIO
  6
ByLayer
100
AcDbLine
 10
3.95
 20
8.2
 30
0.0
 11
3.25
 21
8.2
 31
0.0
  0
LINE
  5
E3
330
1F
100
AcDbEntity
  8
ARQ_MOBILIARIO
  6
ByLayer
100
AcDbLine
 10
3.25
 20
8.2
 30
0.0
 11
3.25
 21
5.0
 31
0.0
  0
LINE
  5
E4
330
1F
100
AcDbEntity
  8
ARQ_MOBILIARIO
  6
ByLayer
100
AcDbLine
 10
3.35
 20
5.5
 30
0.0
 11
3.9
 21
5.5
 31
0.0
  0
LINE
  5
E5
330
1F
100
AcDbEntity
  8
ARQ_MOBILIARIO
  6
ByLayer
100
AcDbLine
 10
3.9
 20
5.5
 30
0.0
 11
3.9
 21
6.05
 31
0.0
  0
LINE
  5
E6
330
1F
100
AcDbEntity
  8
ARQ_MOBILIARIO
  6
ByLayer
100
AcDbLine
 10
3.9
 20
6.05
 30
0.0
 11
3.35
 21
6.05
 31
0.0
  0
LINE
  5
E7
330
1F
100
AcDbEntity
  8
ARQ_MOBILIARIO
  6
ByLayer
100
AcDbLine
 10
3.35
 20
6.05
 30
0.0
 11
3.35
 21
5.5
 31
0.0
  0
CIRCLE
  5
E8
330
1F
100
AcDbEntity
  8
ARQ_MOBILIARIO
  6
ByLayer
100
AcDbCircle
 10
3.515
 20
5.665
 30
0.0
 40
0.066
  0
CIRCLE
  5
E9
330
1F
100
AcDbEntity
  8
ARQ_MOBILIARIO
  6
ByLayer
100
AcDbCircle
 10
3.735
 20
5.665
 30
0.0
 40
0.066
  0
CIRCLE
  5
EA
330
1F
100
AcDbEntity
  8
ARQ_MOBILIARIO
  6
ByLayer
100
AcDbCircle
 10
3.515
 20
5.885
 30
0.0
 40
0.066
  0
CIRCLE
  5
EB
330
1F
100
AcDbEntity
  8
ARQ_MOBILIARIO
  6
ByLayer
100
AcDbCircle
 10
3.735
 20
5.885
 30
0.0
 40
0.066
  0
LINE
  5
EC
330
1F
100
AcDbEntity
  8
ARQ_MOBILIARIO
  6
ByLayer
100
AcDbLine
 10
4.15
 20
8.05
 30
0.0
 11
5.350000000000001
 21
8.05
 31
0.0
  0
LINE
  5
ED
330
1F
100
AcDbEntity
  8
ARQ_MOBILIARIO
  6
ByLayer
100
AcDbLine
 10
5.350000000000001
 20
8.05
 30
0.0
 11
5.350000000000001
 21
8.5
 31
0.0
  0
LINE
  5
EE
330
1F
100
AcDbEntity
  8
ARQ_MOBILIARIO
  6
ByLayer
100
AcDbLine
 10
5.350000000000001
 20
8.5
 30
0.0
 11
4.15
 21
8.5
 31
0.0
  0
LINE
  5
EF
330
1F
100
AcDbEntity
  8
ARQ_MOBILIARIO
  6
ByLayer
100
AcDbLine
 10
4.15
 20
8.5
 30
0.0
 11
4.15
 21
8.05
 31
0.0
  0
ELLIPSE
  5
F0
330
1F
100
AcDbEntity
  8
ARQ_MOBILIARIO
  6
ByLayer
100
AcDbEllipse
 10
4.75
 20
8.275
 30
0.0
 11
0.384
 21
0.0
 31
0.0
 40
0.20625
 41
0.0
 42
6.283185307179586
  0
LINE
  5
F1
330
1F
100
AcDbEntity
  8
ARQ_MOBILIARIO
  6
ByLayer
100
AcDbLine
 10
6.95
 20
5.5
 30
0.0
 11
7.95
 21
5.5
 31
0.0
  0
LINE
  5
F2
330
1F
100
AcDbEntity
  8
ARQ_MOBILIARIO
  6
ByLayer
100
AcDbLine
 10
7.95
 20
5.5
 30
0.0
 11
7.95
 21
6.5
 31
0.0
  0
LINE
  5
F3
330
1F
100
AcDbEntity
  8
ARQ_MOBILIARIO
  6
ByLayer
100
AcDbLine
 10
7.95
 20
6.5
 30
0.0
 11
6.95
 21
6.5
 31
0.0
  0
LINE
  5
F4
330
1F
100
AcDbEntity
  8
ARQ_MOBILIARIO
  6
ByLayer
100
AcDbLine
 10
6.95
 20
6.5
 30
0.0
 11
6.95
 21
5.5
 31
0.0
  0
LINE
  5
F5
330
1F
100
AcDbEntity
  8
ARQ_MOBILIARIO
  6
ByLayer
100
AcDbLine
 10
6.95
 20
7.0
 30
0.0
 11
7.95
 21
7.0
 31
0.0
  0
LINE
  5
F6
330
1F
100
AcDbEntity
  8
ARQ_MOBILIARIO
  6
ByLayer
100
AcDbLine
 10
7.95
 20
7.0
 30
0.0
 11
7.95
 21
8.0
 31
0.0
  0
LINE
  5
F7
330
1F
100
AcDbEntity
  8
ARQ_MOBILIARIO
  6
ByLayer
100
AcDbLine
 10
7.95
 20
8.0
 30
0.0
 11
6.95
 21
8.0
 31
0.0
  0
LINE
  5
F8
330
1F
100
AcDbEntity
  8
ARQ_MOBILIARIO
  6
ByLayer
100
AcDbLine
 10
6.95
 20
8.0
 30
0.0
 11
6.95
 21
7.0
 31
0.0
  0
LINE
  5
F9
330
1F
100
AcDbEntity
  8
ARQ_MOBILIARIO
  6
ByLayer
100
AcDbLine
 10
10.5
 20
6.0
 30
0.0
 11
11.5
 21
6.0
 31
0.0
  0
LINE
  5
FA
330
1F
100
AcDbEntity
  8
ARQ_MOBILIARIO
  6
ByLayer
100
AcDbLine
 10
11.5
 20
6.0
 30
0.0
 11
11.5
 21
8.0
 31
0.0
  0
LINE
  5
FB
330
1F
100
AcDbEntity
  8
ARQ_MOBILIARIO
  6
ByLayer
100
AcDbLine
 10
11.5
 20
8.0
 30
0.0
 11
10.5
 21
8.0
 31
0.0
  0
LINE
  5
FC
330
1F
100
AcDbEntity
  8
ARQ_MOBILIARIO
  6
ByLayer
100
AcDbLine
 10
10.5
 20
8.0
 30
0.0
 11
10.5
 21
6.0
 31
0.0
  0
LINE
  5
FD
330
1F
100
AcDbEntity
  8
ARQ_MOBILIARIO
  6
ByLayer
100
AcDbLine
 10
10.6
 20
7.55
 30
0.0
 11
11.4
 21
7.55
 31
0.0
  0
LINE
  5
FE
330
1F
100
AcDbEntity
  8
ARQ_MOBILIARIO
  6
ByLayer
100
AcDbLine
 10
11.4
 20
7.55
 30
0.0
 11
11.4
 21
7.899999999999999
 31
0.0
  0
LINE
  5
FF
330
1F
100
AcDbEntity
  8
ARQ_MOBILIARIO
  6
ByLayer
100
AcDbLine
 10
11.4
 20
7.899999999999999
 30
0.0
 11
10.6
 21
7.899999999999999
 31
0.0
  0
LINE
  5
100
330
1F
100
AcDbEntity
  8
ARQ_MOBILIARIO
  6
ByLayer
100
AcDbLine
 10
10.6
 20
7.899999999999999
 30
0.0
 11
10.6
 21
7.55
 31
0.0
  0
LINE
  5
101
330
1F
100
AcDbEntity
  8
ARQ_MOBILIARIO
  6
ByLayer
100
AcDbLine
 10
10.65
 20
7.45
 30
0.0
 11
11.35
 21
7.45
 31
0.0
  0
LINE
  5
102
330
1F
100
AcDbEntity
  8
ARQ_MOBILIARIO
  6
ByLayer
100
AcDbLine
 10
12.25
 20
7.85
 30
0.0
 11
14.05
 21
7.85
 31
0.0
  0
LINE
  5
103
330
1F
100
AcDbEntity
  8
ARQ_MOBILIARIO
  6
ByLayer
100
AcDbLine
 10
14.05
 20
7.85
 30
0.0
 11
14.05
 21
8.4
 31
0.0
  0
LINE
  5
104
330
1F
100
AcDbEntity
  8
ARQ_MOBILIARIO
  6
ByLayer
100
AcDbLine
 10
14.05
 20
8.4
 30
0.0
 11
12.25
 21
8.4
 31
0.0
  0
LINE
  5
105
330
1F
100
AcDbEntity
  8
ARQ_MOBILIARIO
  6
ByLayer
100
AcDbLine
 10
12.25
 20
8.4
 30
0.0
 11
12.25
 21
7.85
 31
0.0
  0
LINE
  5
106
330
1F
100
AcDbEntity
  8
ARQ_MOBILIARIO
  6
ByLayer
100
AcDbLine
 10
12.35
 20
7.949999999999999
 30
0.0
 11
13.95
 21
7.949999999999999
 31
0.0
  0
LINE
  5
107
330
1F
100
AcDbEntity
  8
ARQ_MOBILIARIO
  6
ByLayer
100
AcDbLine
 10
13.95
 20
7.949999999999999
 30
0.0
 11
13.95
 21
8.299999999999999
 31
0.0
  0
LINE
  5
108
330
1F
100
AcDbEntity
  8
ARQ_MOBILIARIO
  6
ByLayer
100
AcDbLine
 10
13.95
 20
8.299999999999999
 30
0.0
 11
12.35
 21
8.299999999999999
 31
0.0
  0
LINE
  5
109
330
1F
100
AcDbEntity
  8
ARQ_MOBILIARIO
  6
ByLayer
100
AcDbLine
 10
12.35
 20
8.299999999999999
 30
0.0
 11
12.35
 21
7.949999999999999
 31
0.0
  0
LINE
  5
10A
330
1F
100
AcDbEntity
  8
ARQ_MOBILIARIO
  6
ByLayer
100
AcDbLine
 10
13.15
 20
7.949999999999999
 30
0.0
 11
13.15
 21
8.3
 31
0.0
  0
LINE
  5
10B
330
1F
100
AcDbEntity
  8
ARQ_MOBILIARIO
  6
ByLayer
100
AcDbLine
 10
12.1
 20
5.65
 30
0.0
 11
12.65
 21
5.65
 31
0.0
  0
LINE
  5
10C
330
1F
100
AcDbEntity
  8
ARQ_MOBILIARIO
  6
ByLayer
100
AcDbLine
 10
12.65
 20
5.65
 30
0.0
 11
12.65
 21
6.850000000000001
 31
0.0
  0
LINE
  5
10D
330
1F
100
AcDbEntity
  8
ARQ_MOBILIARIO
  6
ByLayer
100
AcDbLine
 10
12.65
 20
6.850000000000001
 30
0.0
 11
12.1
 21
6.850000000000001
 31
0.0
  0
LINE
  5
10E
330
1F
100
AcDbEntity
  8
ARQ_MOBILIARIO
  6
ByLayer
100
AcDbLine
 10
12.1
 20
6.850000000000001
 30
0.0
 11
12.1
 21
5.65
 31
0.0
  0
LINE
  5
10F
330
1F
100
AcDbEntity
  8
ARQ_MOBILIARIO
  6
ByLayer
100
AcDbLine
 10
12.2
 20
5.75
 30
0.0
 11
12.55
 21
5.75
 31
0.0
  0
LINE
  5
110
330
1F
100
AcDbEntity
  8
ARQ_MOBILIARIO
  6
ByLayer
100
AcDbLine
 10
12.55
 20
5.75
 30
0.0
 11
12.55
 21
6.75
 31
0.0
  0
LINE
  5
111
330
1F
100
AcDbEntity
  8
ARQ_MOBILIARIO
  6
ByLayer
100
AcDbLine
 10
12.55
 20
6.75
 30
0.0
 11
12.2
 21
6.75
 31
0.0
  0
LINE
  5
112
330
1F
100
AcDbEntity
  8
ARQ_MOBILIARIO
  6
ByLayer
100
AcDbLine
 10
12.2
 20
6.75
 30
0.0
 11
12.2
 21
5.75
 31
0.0
  0
LINE
  5
113
330
1F
100
AcDbEntity
  8
ARQ_MOBILIARIO
  6
ByLayer
100
AcDbLine
 10
12.2
 20
6.25
 30
0.0
 11
12.55
 21
6.25
 31
0.0
  0
LINE
  5
114
330
1F
100
AcDbEntity
  8
ARQ_MOBILIARIO
  6
ByLayer
100
AcDbLine
 10
14.1
 20
5.65
 30
0.0
 11
14.65
 21
5.65
 31
0.0
  0
LINE
  5
115
330
1F
100
AcDbEntity
  8
ARQ_MOBILIARIO
  6
ByLayer
100
AcDbLine
 10
14.65
 20
5.65
 30
0.0
 11
14.65
 21
6.850000000000001
 31
0.0
  0
LINE
  5
116
330
1F
100
AcDbEntity
  8
ARQ_MOBILIARIO
  6
ByLayer
100
AcDbLine
 10
14.65
 20
6.850000000000001
 30
0.0
 11
14.1
 21
6.850000000000001
 31
0.0
  0
LINE
  5
117
330
1F
100
AcDbEntity
  8
ARQ_MOBILIARIO
  6
ByLayer
100
AcDbLine
 10
14.1
 20
6.850000000000001
 30
0.0
 11
14.1
 21
5.65
 31
0.0
  0
LINE
  5
118
330
1F
100
AcDbEntity
  8
ARQ_MOBILIARIO
  6
ByLayer
100
AcDbLine
 10
14.2
 20
5.75
 30
0.0
 11
14.55
 21
5.75
 31
0.0
  0
LINE
  5
119
330
1F
100
AcDbEntity
  8
ARQ_MOBILIARIO
  6
ByLayer
100
AcDbLine
 10
14.55
 20
5.75
 30
0.0
 11
14.55
 21
6.75
 31
0.0
  0
LINE
  5
11A
330
1F
100
AcDbEntity
  8
ARQ_MOBILIARIO
  6
ByLayer
100
AcDbLine
 10
14.55
 20
6.75
 30
0.0
 11
14.2
 21
6.75
 31
0.0
  0
LINE
  5
11B
330
1F
100
AcDbEntity
  8
ARQ_MOBILIARIO
  6
ByLayer
100
AcDbLine
 10
14.2
 20
6.75
 30
0.0
 11
14.2
 21
5.75
 31
0.0
  0
LINE
  5
11C
330
1F
100
AcDbEntity
  8
ARQ_MOBILIARIO
  6
ByLayer
100
AcDbLine
 10
14.2
 20
6.25
 30
0.0
 11
14.55
 21
6.25
 31
0.0
  0
LINE
  5
11D
330
1F
100
AcDbEntity
  8
ARQ_MOBILIARIO
  6
ByLayer
100
AcDbLine
 10
13.35
 20
5.0
 30
0.0
 11
14.0
 21
5.0
 31
0.0
  0
LINE
  5
11E
330
1F
100
AcDbEntity
  8
ARQ_MOBILIARIO
  6
ByLayer
100
AcDbLine
 10
14.0
 20
5.0
 30
0.0
 11
14.0
 21
5.65
 31
0.0
  0
LINE
  5
11F
330
1F
100
AcDbEntity
  8
ARQ_MOBILIARIO
  6
ByLayer
100
AcDbLine
 10
14.0
 20
5.65
 30
0.0
 11
13.35
 21
5.65
 31
0.0
  0
LINE
  5
120
330
1F
100
AcDbEntity
  8
ARQ_MOBILIARIO
  6
ByLayer
100
AcDbLine
 10
13.35
 20
5.65
 30
0.0
 11
13.35
 21
5.0
 31
0.0
  0
LINE
  5
121
330
1F
100
AcDbEntity
  8
ARQ_MOBILIARIO
  6
ByLayer
100
AcDbLine
 10
8.25
 20
2.0
 30
0.0
 11
8.8
 21
2.0
 31
0.0
  0
LINE
  5
122
330
1F
100
AcDbEntity
  8
ARQ_MOBILIARIO
  6
ByLayer
100
AcDbLine
 10
8.8
 20
2.0
 30
0.0
 11
8.8
 21
2.45
 31
0.0
  0
LINE
  5
123
330
1F
100
AcDbEntity
  8
ARQ_MOBILIARIO
  6
ByLayer
100
AcDbLine
 10
8.8
 20
2.45
 30
0.0
 11
8.25
 21
2.45
 31
0.0
  0
LINE
  5
124
330
1F
100
AcDbEntity
  8
ARQ_MOBILIARIO
  6
ByLayer
100
AcDbLine
 10
8.25
 20
2.45
 30
0.0
 11
8.25
 21
2.0
 31
0.0
  0
ELLIPSE
  5
125
330
1F
100
AcDbEntity
  8
ARQ_MOBILIARIO
  6
ByLayer
100
AcDbEllipse
 10
8.525
 20
2.225
 30
0.0
 11
0.176
 21
0.0
 31
0.0
 40
0.45
 41
0.0
 42
6.283185307179586
  0
CIRCLE
  5
126
330
1F
100
AcDbEntity
  8
ARQ_MOBILIARIO
  6
ByLayer
100
AcDbCircle
 10
7.925000000000001
 20
0.6475
 30
0.0
 40
0.1375
  0
LINE
  5
127
330
1F
100
AcDbEntity
  8
ARQ_MOBILIARIO
  6
ByLayer
100
AcDbLine
 10
7.760000000000001
 20
0.877
 30
0.0
 11
8.09
 21
0.877
 31
0.0
  0
LINE
  5
128
330
1F
100
AcDbEntity
  8
ARQ_MOBILIARIO
  6
ByLayer
100
AcDbLine
 10
8.09
 20
0.877
 30
0.0
 11
8.09
 21
1.064
 31
0.0
  0
LINE
  5
129
330
1F
100
AcDbEntity
  8
ARQ_MOBILIARIO
  6
ByLayer
100
AcDbLine
 10
8.09
 20
1.064
 30
0.0
 11
7.760000000000001
 21
1.064
 31
0.0
  0
LINE
  5
12A
330
1F
100
AcDbEntity
  8
ARQ_MOBILIARIO
  6
ByLayer
100
AcDbLine
 10
7.760000000000001
 20
1.064
 30
0.0
 11
7.760000000000001
 21
0.877
 31
0.0
  0
LINE
  5
12B
330
1F
100
AcDbEntity
  8
ARQ_MOBILIARIO
  6
ByLayer
100
AcDbLine
 10
8.25
 20
0.45
 30
0.0
 11
8.9
 21
0.45
 31
0.0
  0
LINE
  5
12C
330
1F
100
AcDbEntity
  8
ARQ_MOBILIARIO
  6
ByLayer
100
AcDbLine
 10
8.9
 20
0.45
 30
0.0
 11
8.9
 21
1.4
 31
0.0
  0
LINE
  5
12D
330
1F
100
AcDbEntity
  8
ARQ_MOBILIARIO
  6
ByLayer
100
AcDbLine
 10
8.9
 20
1.4
 30
0.0
 11
8.25
 21
1.4
 31
0.0
  0
LINE
  5
12E
330
1F
100
AcDbEntity
  8
ARQ_MOBILIARIO
  6
ByLayer
100
AcDbLine
 10
8.25
 20
1.4
 30
0.0
 11
8.25
 21
0.45
 31
0.0
  0
LINE
  5
12F
330
1F
100
AcDbEntity
  8
ARQ_MOBILIARIO
  6
ByLayer
100
AcDbLine
 10
8.328
 20
0.5640000000000001
 30
0.0
 11
8.822
 21
1.286
 31
0.0
  0
CIRCLE
  5
130
330
1F
100
AcDbEntity
  8
ARQ_MOBILIARIO
  6
ByLayer
100
AcDbCircle
 10
8.757
 20
0.659
 30
0.0
 40
0.039
  0
LINE
  5
131
330
1F
100
AcDbEntity
  8
ARQ_MOBILIARIO
  6
ByLayer
100
AcDbLine
 10
13.8
 20
0.35
 30
0.0
 11
14.8
 21
0.35
 31
0.0
  0
LINE
  5
132
330
1F
100
AcDbEntity
  8
ARQ_MOBILIARIO
  6
ByLayer
100
AcDbLine
 10
14.8
 20
0.35
 30
0.0
 11
14.8
 21
2.15
 31
0.0
  0
LINE
  5
133
330
1F
100
AcDbEntity
  8
ARQ_MOBILIARIO
  6
ByLayer
100
AcDbLine
 10
14.8
 20
2.15
 30
0.0
 11
13.8
 21
2.15
 31
0.0
  0
LINE
  5
134
330
1F
100
AcDbEntity
  8
ARQ_MOBILIARIO
  6
ByLayer
100
AcDbLine
 10
13.8
 20
2.15
 30
0.0
 11
13.8
 21
0.35
 31
0.0
  0
LINE
  5
135
330
1F
100
AcDbEntity
  8
ARQ_MOBILIARIO
  6
ByLayer
100
AcDbLine
 10
13.9
 20
1.7
 30
0.0
 11
14.7
 21
1.7
 31
0.0
  0
LINE
  5
136
330
1F
100
AcDbEntity
  8
ARQ_MOBILIARIO
  6
ByLayer
100
AcDbLine
 10
14.7
 20
1.7
 30
0.0
 11
14.7
 21
2.05
 31
0.0
  0
LINE
  5
137
330
1F
100
AcDbEntity
  8
ARQ_MOBILIARIO
  6
ByLayer
100
AcDbLine
 10
14.7
 20
2.05
 30
0.0
 11
13.9
 21
2.05
 31
0.0
  0
LINE
  5
138
330
1F
100
AcDbEntity
  8
ARQ_MOBILIARIO
  6
ByLayer
100
AcDbLine
 10
13.9
 20
2.05
 30
0.0
 11
13.9
 21
1.7
 31
0.0
  0
LINE
  5
139
330
1F
100
AcDbEntity
  8
ARQ_MOBILIARIO
  6
ByLayer
100
AcDbLine
 10
13.95
 20
1.6
 30
0.0
 11
14.65
 21
1.6
 31
0.0
  0
LINE
  5
13A
330
1F
100
AcDbEntity
  8
ELEC_COTAS_REF
  6
ByLayer
100
AcDbLine
 10
0.0
 20
-1.0
 30
0.0
 11
15.0
 21
-1.0
 31
0.0
  0
LINE
  5
13B
330
1F
100
AcDbEntity
  8
ELEC_COTAS_REF
  6
ByLayer
100
AcDbLine
 10
0.0
 20
0.0
 30
0.0
 11
0.0
 21
-1.1
 31
0.0
  0
LINE
  5
13C
330
1F
100
AcDbEntity
  8
ELEC_COTAS_REF
  6
ByLayer
100
AcDbLine
 10
15.0
 20
0.0
 30
0.0
 11
15.0
 21
-1.1
 31
0.0
  0
LINE
  5
13D
330
1F
100
AcDbEntity
  8
ELEC_COTAS_REF
  6
ByLayer
100
AcDbLine
 10
-0.12
 20
-1.12
 30
0.0
 11
0.12
 21
-0.88
 31
0.0
  0
LINE
  5
13E
330
1F
100
AcDbEntity
  8
ELEC_COTAS_REF
  6
ByLayer
100
AcDbLine
 10
14.88
 20
-1.12
 30
0.0
 11
15.12
 21
-0.88
 31
0.0
  0
TEXT
  5
13F
330
1F
100
AcDbEntity
  8
ELEC_COTAS_REF
  6
ByLayer
100
AcDbText
 10
7.5
 20
-1.35
 30
0.0
 40
0.18
  1
ANCHO TOTAL: 15.00 m
  7
STANDARD
 72
1
 11
7.5
 21
-1.35
 31
0.0
100
AcDbText
 73
2
  0
LINE
  5
140
330
1F
100
AcDbEntity
  8
ELEC_COTAS_REF
  6
ByLayer
100
AcDbLine
 10
-1.0
 20
0.0
 30
0.0
 11
-1.0
 21
9.0
 31
0.0
  0
LINE
  5
141
330
1F
100
AcDbEntity
  8
ELEC_COTAS_REF
  6
ByLayer
100
AcDbLine
 10
0.0
 20
0.0
 30
0.0
 11
-1.1
 21
0.0
 31
0.0
  0
LINE
  5
142
330
1F
100
AcDbEntity
  8
ELEC_COTAS_REF
  6
ByLayer
100
AcDbLine
 10
0.0
 20
9.0
 30
0.0
 11
-1.1
 21
9.0
 31
0.0
  0
LINE
  5
143
330
1F
100
AcDbEntity
  8
ELEC_COTAS_REF
  6
ByLayer
100
AcDbLine
 10
-1.12
 20
-0.12
 30
0.0
 11
-0.88
 21
0.12
 31
0.0
  0
LINE
  5
144
330
1F
100
AcDbEntity
  8
ELEC_COTAS_REF
  6
ByLayer
100
AcDbLine
 10
-1.12
 20
8.88
 30
0.0
 11
-0.88
 21
9.12
 31
0.0
  0
TEXT
  5
145
330
1F
100
AcDbEntity
  8
ELEC_COTAS_REF
  6
ByLayer
100
AcDbText
 10
-1.35
 20
4.5
 30
0.0
 40
0.18
  1
ALTO TOTAL: 9.00 m
 50
90.0
  7
STANDARD
 72
1
 11
-1.35
 21
4.5
 31
0.0
100
AcDbText
 73
2
  0
LINE
  5
146
330
1F
100
AcDbEntity
  8
ELEC_COTAS_REF
  6
ByLayer
100
AcDbLine
 10
-1.0
 20
4.5
 30
0.0
 11
-1.0
 21
9.0
 31
0.0
  0
LINE
  5
147
330
1F
100
AcDbEntity
  8
ELEC_COTAS_REF
  6
ByLayer
100
AcDbLine
 10
0.0
 20
4.5
 30
0.0
 11
-1.1
 21
4.5
 31
0.0
  0
LINE
  5
148
330
1F
100
AcDbEntity
  8
ELEC_COTAS_REF
  6
ByLayer
100
AcDbLine
 10
0.0
 20
9.0
 30
0.0
 11
-1.1
 21
9.0
 31
0.0
  0
LINE
  5
149
330
1F
100
AcDbEntity
  8
ELEC_COTAS_REF
  6
ByLayer
100
AcDbLine
 10
-1.12
 20
4.38
 30
0.0
 11
-0.88
 21
4.62
 31
0.0
  0
LINE
  5
14A
330
1F
100
AcDbEntity
  8
ELEC_COTAS_REF
  6
ByLayer
100
AcDbLine
 10
-1.12
 20
8.88
 30
0.0
 11
-0.88
 21
9.12
 31
0.0
  0
TEXT
  5
14B
330
1F
100
AcDbEntity
  8
ELEC_COTAS_REF
  6
ByLayer
100
AcDbText
 10
-1.35
 20
6.75
 30
0.0
 40
0.18
  1
4.50 m
 50
90.0
  7
STANDARD
 72
1
 11
-1.35
 21
6.75
 31
0.0
100
AcDbText
 73
2
  0
LINE
  5
14C
330
1F
100
AcDbEntity
  8
ELEC_COTAS_REF
  6
ByLayer
100
AcDbLine
 10
7.5
 20
-0.65
 30
0.0
 11
15.0
 21
-0.65
 31
0.0
  0
LINE
  5
14D
330
1F
100
AcDbEntity
  8
ELEC_COTAS_REF
  6
ByLayer
100
AcDbLine
 10
7.5
 20
0.0
 30
0.0
 11
7.5
 21
-0.75
 31
0.0
  0
LINE
  5
14E
330
1F
100
AcDbEntity
  8
ELEC_COTAS_REF
  6
ByLayer
100
AcDbLine
 10
15.0
 20
0.0
 30
0.0
 11
15.0
 21
-0.75
 31
0.0
  0
LINE
  5
14F
330
1F
100
AcDbEntity
  8
ELEC_COTAS_REF
  6
ByLayer
100
AcDbLine
 10
7.38
 20
-0.77
 30
0.0
 11
7.62
 21
-0.53
 31
0.0
  0
LINE
  5
150
330
1F
100
AcDbEntity
  8
ELEC_COTAS_REF
  6
ByLayer
100
AcDbLine
 10
14.88
 20
-0.77
 30
0.0
 11
15.12
 21
-0.53
 31
0.0
  0
TEXT
  5
151
330
1F
100
AcDbEntity
  8
ELEC_COTAS_REF
  6
ByLayer
100
AcDbText
 10
11.25
 20
-1.0
 30
0.0
 40
0.18
  1
8 m aprox.
  7
STANDARD
 72
1
 11
11.25
 21
-1.0
 31
0.0
100
AcDbText
 73
2
  0
LINE
  5
152
330
1F
100
AcDbEntity
  8
MARCO
  6
ByLayer
100
AcDbLine
 10
-1.2
 20
-1.2
 30
0.0
 11
16.2
 21
-1.2
 31
0.0
  0
LINE
  5
153
330
1F
100
AcDbEntity
  8
MARCO
  6
ByLayer
100
AcDbLine
 10
16.2
 20
-1.2
 30
0.0
 11
16.2
 21
10.2
 31
0.0
  0
LINE
  5
154
330
1F
100
AcDbEntity
  8
MARCO
  6
ByLayer
100
AcDbLine
 10
16.2
 20
10.2
 30
0.0
 11
-1.2
 21
10.2
 31
0.0
  0
LINE
  5
155
330
1F
100
AcDbEntity
  8
MARCO
  6
ByLayer
100
AcDbLine
 10
-1.2
 20
10.2
 30
0.0
 11
-1.2
 21
-1.2
 31
0.0
  0
LINE
  5
156
330
1F
100
AcDbEntity
  8
MARCO
  6
ByLayer
100
AcDbLine
 10
-1.12
 20
-1.12
 30
0.0
 11
16.12
 21
-1.12
 31
0.0
  0
LINE
  5
157
330
1F
100
AcDbEntity
  8
MARCO
  6
ByLayer
100
AcDbLine
 10
16.12
 20
-1.12
 30
0.0
 11
16.12
 21
10.12
 31
0.0
  0
LINE
  5
158
330
1F
100
AcDbEntity
  8
MARCO
  6
ByLayer
100
AcDbLine
 10
16.12
 20
10.12
 30
0.0
 11
-1.12
 21
10.12
 31
0.0
  0
LINE
  5
159
330
1F
100
AcDbEntity
  8
MARCO
  6
ByLayer
100
AcDbLine
 10
-1.12
 20
10.12
 30
0.0
 11
-1.12
 21
-1.12
 31
0.0
  0
TEXT
  5
15A
330
1F
100
AcDbEntity
  8
ELEC_TEXTOS
  6
ByLayer
100
AcDbText
 10
7.5
 20
10.49
 30
0.0
 40
0.16
  1
Casa de Aquiles - segundo nivel
  7
STANDARD
 72
1
 11
7.5
 21
10.49
 31
0.0
100
AcDbText
 73
2
  0
TEXT
  5
15B
330
1F
100
AcDbEntity
  8
ELEC_TEXTOS
  6
ByLayer
100
AcDbText
 10
1.5
 20
6.19
 30
0.0
 40
0.14
  1
C4
  7
STANDARD
 72
1
 11
1.5
 21
6.19
 31
0.0
100
AcDbText
 73
2
  0
CIRCLE
  5
15C
330
1F
100
AcDbEntity
  8
ELEC_LUMINARIAS
  6
ByLayer
100
AcDbCircle
 10
3.95
 20
6.15
 30
0.0
 40
0.18
  0
TEXT
  5
15F
330
1F
100
AcDbEntity
  8
ELEC_TEXTOS
  6
ByLayer
100
AcDbText
 10
3.95
 20
5.79
 30
0.0
 40
0.14
  1
C4
  7
STANDARD
 72
1
 11
3.95
 21
5.79
 31
0.0
100
AcDbText
 73
2
  0
CIRCLE
  5
160
330
1F
100
AcDbEntity
  8
ELEC_LUMINARIAS
  6
ByLayer
100
AcDbCircle
 10
5.15
 20
7.65
 30
0.0
 40
0.18
  0
TEXT
  5
163
330
1F
100
AcDbEntity
  8
ELEC_TEXTOS
  6
ByLayer
100
AcDbText
 10
5.15
 20
7.29
 30
0.0
 40
0.14
  1
C4
  7
STANDARD
 72
1
 11
5.15
 21
7.29
 31
0.0
100
AcDbText
 73
2
  0
CIRCLE
  5
164
330
1F
100
AcDbEntity
  8
ELEC_LUMINARIAS
  6
ByLayer
100
AcDbCircle
 10
7.5
 20
6.75
 30
0.0
 40
0.18
  0
TEXT
  5
167
330
1F
100
AcDbEntity
  8
ELEC_TEXTOS
  6
ByLayer
100
AcDbText
 10
7.5
 20
6.39
 30
0.0
 40
0.14
  1
C4
  7
STANDARD
 72
1
 11
7.5
 21
6.39
 31
0.0
100
AcDbText
 73
2
  0
CIRCLE
  5
168
330
1F
100
AcDbEntity
  8
ELEC_LUMINARIAS
  6
ByLayer
100
AcDbCircle
 10
10.5
 20
6.75
 30
0.0
 40
0.18
  0
TEXT
  5
16B
330
1F
100
AcDbEntity
  8
ELEC_TEXTOS
  6
ByLayer
100
AcDbText
 10
10.5
 20
6.39
 30
0.0
 40
0.14
  1
C4
  7
STANDARD
 72
1
 11
10.5
 21
6.39
 31
0.0
100
AcDbText
 73
2
  0
CIRCLE
  5
16C
330
1F
100
AcDbEntity
  8
ELEC_LUMINARIAS
  6
ByLayer
100
AcDbCircle
 10
13.1
 20
6.25
 30
0.0
 40
0.18
  0
TEXT
  5
16F
330
1F
100
AcDbEntity
  8
ELEC_TEXTOS
  6
ByLayer
100
AcDbText
 10
13.1
 20
5.89
 30
0.0
 40
0.14
  1
C4
  7
STANDARD
 72
1
 11
13.1
 21
5.89
 31
0.0
100
AcDbText
 73
2
  0
CIRCLE
  5
170
330
1F
100
AcDbEntity
  8
ELEC_LUMINARIAS
  6
ByLayer
100
AcDbCircle
 10
14.1
 20
7.6
 30
0.0
 40
0.18
  0
TEXT
  5
173
330
1F
100
AcDbEntity
  8
ELEC_TEXTOS
  6
ByLayer
100
AcDbText
 10
14.1
 20
7.239999999999999
 30
0.0
 40
0.14
  1
C4
  7
STANDARD
 72
1
 11
14.1
 21
7.239999999999999
 31
0.0
100
AcDbText
 73
2
  0
TEXT
  5
174
330
1F
100
AcDbEntity
  8
ELEC_TEXTOS
  6
ByLayer
100
AcDbText
 10
3.75
 20
3.39
 30
0.0
 40
0.14
  1
C4
  7
STANDARD
 72
1
 11
3.75
 21
3.39
 31
0.0
100
AcDbText
 73
2
  0
CIRCLE
  5
175
330
1F
100
AcDbEntity
  8
ELEC_LUMINARIAS
  6
ByLayer
100
AcDbCircle
 10
8.25
 20
1.55
 30
0.0
 40
0.18
  0
TEXT
  5
178
330
1F
100
AcDbEntity
  8
ELEC_TEXTOS
  6
ByLayer
100
AcDbText
 10
8.25
 20
1.19
 30
0.0
 40
0.14
  1
C4
  7
STANDARD
 72
1
 11
8.25
 21
1.19
 31
0.0
100
AcDbText
 73
2
  0
CIRCLE
  5
179
330
1F
100
AcDbEntity
  8
ELEC_LUMINARIAS
  6
ByLayer
100
AcDbCircle
 10
11.7
 20
1.55
 30
0.0
 40
0.18
  0
TEXT
  5
17C
330
1F
100
AcDbEntity
  8
ELEC_TEXTOS
  6
ByLayer
100
AcDbText
 10
11.7
 20
1.19
 30
0.0
 40
0.14
  1
C4
  7
STANDARD
 72
1
 11
11.7
 21
1.19
 31
0.0
100
AcDbText
 73
2
  0
CIRCLE
  5
17D
330
1F
100
AcDbEntity
  8
ELEC_LUMINARIAS
  6
ByLayer
100
AcDbCircle
 10
14.0
 20
3.75
 30
0.0
 40
0.18
  0
TEXT
  5
180
330
1F
100
AcDbEntity
  8
ELEC_TEXTOS
  6
ByLayer
100
AcDbText
 10
14.0
 20
3.39
 30
0.0
 40
0.14
  1
C4
  7
STANDARD
 72
1
 11
14.0
 21
3.39
 31
0.0
100
AcDbText
 73
2
  0
CIRCLE
  5
181
330
1F
100
AcDbEntity
  8
ELEC_INTERRUPTORES
  6
ByLayer
100
AcDbCircle
 10
0.75
 20
4.75
 30
0.0
 40
0.12
  0
LINE
  5
182
330
1F
100
AcDbEntity
  8
ELEC_INTERRUPTORES
  6
ByLayer
100
AcDbLine
 10
0.75
 20
4.75
 30
0.0
 11
0.942
 21
4.882
 31
0.0
  0
TEXT
  5
183
330
1F
100
AcDbEntity
  8
ELEC_TEXTOS
  6
ByLayer
100
AcDbText
 10
0.75
 20
4.98
 30
0.0
 40
0.13
  1
S3
  7
STANDARD
 72
1
 11
0.75
 21
4.98
 31
0.0
100
AcDbText
 73
2
  0
TEXT
  5
184
330
1F
100
AcDbEntity
  8
ELEC_TEXTOS
  6
ByLayer
100
AcDbText
 10
0.75
 20
4.45
 30
0.0
 40
0.14
  1
C4
  7
STANDARD
 72
1
 11
0.75
 21
4.45
 31
0.0
100
AcDbText
 73
2
  0
CIRCLE
  5
185
330
1F
100
AcDbEntity
  8
ELEC_TOMACORRIENTES
  6
ByLayer
100
AcDbCircle
 10
6.25
 20
6.0
 30
0.0
 40
0.13
  0
LINE
  5
186
330
1F
100
AcDbEntity
  8
ELEC_TOMACORRIENTES
  6
ByLayer
100
AcDbLine
 10
6.1785
 20
5.9805
 30
0.0
 11
6.3215
 21
5.9805
 31
0.0
  0
LINE
  5
187
330
1F
100
AcDbEntity
  8
ELEC_TOMACORRIENTES
  6
ByLayer
100
AcDbLine
 10
6.1785
 20
6.026
 30
0.0
 11
6.3215
 21
6.026
 31
0.0
  0
LINE
  5
188
330
1F
100
AcDbEntity
  8
ELEC_TOMACORRIENTES
  6
ByLayer
100
AcDbLine
 10
6.25
 20
5.8765
 30
0.0
 11
6.25
 21
5.9545
 31
0.0
  0
TEXT
  5
189
330
1F
100
AcDbEntity
  8
ELEC_TEXTOS
  6
ByLayer
100
AcDbText
 10
6.25
 20
5.64
 30
0.0
 40
0.14
  1
C5
  7
STANDARD
 72
1
 11
6.25
 21
5.64
 31
0.0
100
AcDbText
 73
2
  0
CIRCLE
  5
18A
330
1F
100
AcDbEntity
  8
ELEC_TOMACORRIENTES
  6
ByLayer
100
AcDbCircle
 10
8.65
 20
8.5
 30
0.0
 40
0.13
  0
LINE
  5
18B
330
1F
100
AcDbEntity
  8
ELEC_TOMACORRIENTES
  6
ByLayer
100
AcDbLine
 10
8.5785
 20
8.4805
 30
0.0
 11
8.7215
 21
8.4805
 31
0.0
  0
LINE
  5
18C
330
1F
100
AcDbEntity
  8
ELEC_TOMACORRIENTES
  6
ByLayer
100
AcDbLine
 10
8.5785
 20
8.526
 30
0.0
 11
8.7215
 21
8.526
 31
0.0
  0
LINE
  5
18D
330
1F
100
AcDbEntity
  8
ELEC_TOMACORRIENTES
  6
ByLayer
100
AcDbLine
 10
8.65
 20
8.3765
 30
0.0
 11
8.65
 21
8.4545
 31
0.0
  0
TEXT
  5
18E
330
1F
100
AcDbEntity
  8
ELEC_TEXTOS
  6
ByLayer
100
AcDbText
 10
8.65
 20
8.14
 30
0.0
 40
0.14
  1
C5
  7
STANDARD
 72
1
 11
8.65
 21
8.14
 31
0.0
100
AcDbText
 73
2
  0
CIRCLE
  5
18F
330
1F
100
AcDbEntity
  8
ELEC_TOMACORRIENTES
  6
ByLayer
100
AcDbCircle
 10
9.35
 20
6.0
 30
0.0
 40
0.13
  0
LINE
  5
190
330
1F
100
AcDbEntity
  8
ELEC_TOMACORRIENTES
  6
ByLayer
100
AcDbLine
 10
9.2785
 20
5.9805
 30
0.0
 11
9.4215
 21
5.9805
 31
0.0
  0
LINE
  5
191
330
1F
100
AcDbEntity
  8
ELEC_TOMACORRIENTES
  6
ByLayer
100
AcDbLine
 10
9.2785
 20
6.026
 30
0.0
 11
9.4215
 21
6.026
 31
0.0
  0
LINE
  5
192
330
1F
100
AcDbEntity
  8
ELEC_TOMACORRIENTES
  6
ByLayer
100
AcDbLine
 10
9.35
 20
5.8765
 30
0.0
 11
9.35
 21
5.9545
 31
0.0
  0
TEXT
  5
193
330
1F
100
AcDbEntity
  8
ELEC_TEXTOS
  6
ByLayer
100
AcDbText
 10
9.35
 20
5.64
 30
0.0
 40
0.14
  1
C5
  7
STANDARD
 72
1
 11
9.35
 21
5.64
 31
0.0
100
AcDbText
 73
2
  0
CIRCLE
  5
194
330
1F
100
AcDbEntity
  8
ELEC_TOMACORRIENTES
  6
ByLayer
100
AcDbCircle
 10
11.65
 20
8.5
 30
0.0
 40
0.13
  0
LINE
  5
195
330
1F
100
AcDbEntity
  8
ELEC_TOMACORRIENTES
  6
ByLayer
100
AcDbLine
 10
11.5785
 20
8.4805
 30
0.0
 11
11.7215
 21
8.4805
 31
0.0
  0
LINE
  5
196
330
1F
100
AcDbEntity
  8
ELEC_TOMACORRIENTES
  6
ByLayer
100
AcDbLine
 10
11.5785
 20
8.526
 30
0.0
 11
11.7215
 21
8.526
 31
0.0
  0
LINE
  5
197
330
1F
100
AcDbEntity
  8
ELEC_TOMACORRIENTES
  6
ByLayer
100
AcDbLine
 10
11.65
 20
8.3765
 30
0.0
 11
11.65
 21
8.4545
 31
0.0
  0
TEXT
  5
198
330
1F
100
AcDbEntity
  8
ELEC_TEXTOS
  6
ByLayer
100
AcDbText
 10
11.65
 20
8.14
 30
0.0
 40
0.14
  1
C5
  7
STANDARD
 72
1
 11
11.65
 21
8.14
 31
0.0
100
AcDbText
 73
2
  0
CIRCLE
  5
199
330
1F
100
AcDbEntity
  8
ELEC_TOMACORRIENTES
  6
ByLayer
100
AcDbCircle
 10
12.3
 20
5.35
 30
0.0
 40
0.13
  0
LINE
  5
19A
330
1F
100
AcDbEntity
  8
ELEC_TOMACORRIENTES
  6
ByLayer
100
AcDbLine
 10
12.2285
 20
5.3305
 30
0.0
 11
12.3715
 21
5.3305
 31
0.0
  0
LINE
  5
19B
330
1F
100
AcDbEntity
  8
ELEC_TOMACORRIENTES
  6
ByLayer
100
AcDbLine
 10
12.2285
 20
5.375999999999999
 30
0.0
 11
12.3715
 21
5.375999999999999
 31
0.0
  0
LINE
  5
19C
330
1F
100
AcDbEntity
  8
ELEC_TOMACORRIENTES
  6
ByLayer
100
AcDbLine
 10
12.3
 20
5.2265
 30
0.0
 11
12.3
 21
5.3045
 31
0.0
  0
TEXT
  5
19D
330
1F
100
AcDbEntity
  8
ELEC_TEXTOS
  6
ByLayer
100
AcDbText
 10
12.3
 20
4.989999999999999
 30
0.0
 40
0.14
  1
C5
  7
STANDARD
 72
1
 11
12.3
 21
4.989999999999999
 31
0.0
100
AcDbText
 73
2
  0
CIRCLE
  5
19E
330
1F
100
AcDbEntity
  8
ELEC_TOMACORRIENTES
  6
ByLayer
100
AcDbCircle
 10
14.55
 20
5.5
 30
0.0
 40
0.13
  0
LINE
  5
19F
330
1F
100
AcDbEntity
  8
ELEC_TOMACORRIENTES
  6
ByLayer
100
AcDbLine
 10
14.4785
 20
5.4805
 30
0.0
 11
14.6215
 21
5.4805
 31
0.0
  0
LINE
  5
1A0
330
1F
100
AcDbEntity
  8
ELEC_TOMACORRIENTES
  6
ByLayer
100
AcDbLine
 10
14.4785
 20
5.526
 30
0.0
 11
14.6215
 21
5.526
 31
0.0
  0
LINE
  5
1A1
330
1F
100
AcDbEntity
  8
ELEC_TOMACORRIENTES
  6
ByLayer
100
AcDbLine
 10
14.55
 20
5.3765
 30
0.0
 11
14.55
 21
5.4545
 31
0.0
  0
TEXT
  5
1A2
330
1F
100
AcDbEntity
  8
ELEC_TEXTOS
  6
ByLayer
100
AcDbText
 10
14.55
 20
5.14
 30
0.0
 40
0.14
  1
C5
  7
STANDARD
 72
1
 11
14.55
 21
5.14
 31
0.0
100
AcDbText
 73
2
  0
CIRCLE
  5
1A3
330
1F
100
AcDbEntity
  8
ELEC_TOMACORRIENTES
  6
ByLayer
100
AcDbCircle
 10
14.55
 20
8.05
 30
0.0
 40
0.13
  0
LINE
  5
1A4
330
1F
100
AcDbEntity
  8
ELEC_TOMACORRIENTES
  6
ByLayer
100
AcDbLine
 10
14.4785
 20
8.0305
 30
0.0
 11
14.6215
 21
8.0305
 31
0.0
  0
LINE
  5
1A5
330
1F
100
AcDbEntity
  8
ELEC_TOMACORRIENTES
  6
ByLayer
100
AcDbLine
 10
14.4785
 20
8.076
 30
0.0
 11
14.6215
 21
8.076
 31
0.0
  0
LINE
  5
1A6
330
1F
100
AcDbEntity
  8
ELEC_TOMACORRIENTES
  6
ByLayer
100
AcDbLine
 10
14.55
 20
7.926500000000001
 30
0.0
 11
14.55
 21
8.0045
 31
0.0
  0
TEXT
  5
1A7
330
1F
100
AcDbEntity
  8
ELEC_TEXTOS
  6
ByLayer
100
AcDbText
 10
14.55
 20
7.69
 30
0.0
 40
0.14
  1
C5
  7
STANDARD
 72
1
 11
14.55
 21
7.69
 31
0.0
100
AcDbText
 73
2
  0
TEXT
  5
1A8
330
1F
100
AcDbEntity
  8
ELEC_TEXTOS
  6
ByLayer
100
AcDbText
 10
9.35
 20
-0.01000000000000001
 30
0.0
 40
0.14
  1
C5
  7
STANDARD
 72
1
 11
9.35
 21
-0.01000000000000001
 31
0.0
100
AcDbText
 73
2
  0
CIRCLE
  5
1A9
330
1F
100
AcDbEntity
  8
ELEC_TOMACORRIENTES
  6
ByLayer
100
AcDbCircle
 10
11.8
 20
0.35
 30
0.0
 40
0.13
  0
LINE
  5
1AA
330
1F
100
AcDbEntity
  8
ELEC_TOMACORRIENTES
  6
ByLayer
100
AcDbLine
 10
11.7285
 20
0.3305
 30
0.0
 11
11.8715
 21
0.3305
 31
0.0
  0
LINE
  5
1AB
330
1F
100
AcDbEntity
  8
ELEC_TOMACORRIENTES
  6
ByLayer
100
AcDbLine
 10
11.7285
 20
0.376
 30
0.0
 11
11.8715
 21
0.376
 31
0.0
  0
LINE
  5
1AC
330
1F
100
AcDbEntity
  8
ELEC_TOMACORRIENTES
  6
ByLayer
100
AcDbLine
 10
11.8
 20
0.2265
 30
0.0
 11
11.8
 21
0.3045
 31
0.0
  0
TEXT
  5
1AD
330
1F
100
AcDbEntity
  8
ELEC_TEXTOS
  6
ByLayer
100
AcDbText
 10
11.8
 20
-0.01000000000000001
 30
0.0
 40
0.14
  1
C5
  7
STANDARD
 72
1
 11
11.8
 21
-0.01000000000000001
 31
0.0
100
AcDbText
 73
2
  0
CIRCLE
  5
1AE
330
1F
100
AcDbEntity
  8
ELEC_TOMACORRIENTES
  6
ByLayer
100
AcDbCircle
 10
14.55
 20
1.35
 30
0.0
 40
0.13
  0
LINE
  5
1AF
330
1F
100
AcDbEntity
  8
ELEC_TOMACORRIENTES
  6
ByLayer
100
AcDbLine
 10
14.4785
 20
1.3305
 30
0.0
 11
14.6215
 21
1.3305
 31
0.0
  0
LINE
  5
1B0
330
1F
100
AcDbEntity
  8
ELEC_TOMACORRIENTES
  6
ByLayer
100
AcDbLine
 10
14.4785
 20
1.376
 30
0.0
 11
14.6215
 21
1.376
 31
0.0
  0
LINE
  5
1B1
330
1F
100
AcDbEntity
  8
ELEC_TOMACORRIENTES
  6
ByLayer
100
AcDbLine
 10
14.55
 20
1.2265
 30
0.0
 11
14.55
 21
1.3045
 31
0.0
  0
TEXT
  5
1B2
330
1F
100
AcDbEntity
  8
ELEC_TEXTOS
  6
ByLayer
100
AcDbText
 10
14.55
 20
0.9900000000000001
 30
0.0
 40
0.14
  1
C5
  7
STANDARD
 72
1
 11
14.55
 21
0.9900000000000001
 31
0.0
100
AcDbText
 73
2
  0
CIRCLE
  5
1B3
330
1F
100
AcDbEntity
  8
ELEC_TOMACORRIENTES
  6
ByLayer
100
AcDbCircle
 10
14.55
 20
3.85
 30
0.0
 40
0.13
  0
LINE
  5
1B4
330
1F
100
AcDbEntity
  8
ELEC_TOMACORRIENTES
  6
ByLayer
100
AcDbLine
 10
14.4785
 20
3.8305
 30
0.0
 11
14.6215
 21
3.8305
 31
0.0
  0
LINE
  5
1B5
330
1F
100
AcDbEntity
  8
ELEC_TOMACORRIENTES
  6
ByLayer
100
AcDbLine
 10
14.4785
 20
3.876
 30
0.0
 11
14.6215
 21
3.876
 31
0.0
  0
LINE
  5
1B6
330
1F
100
AcDbEntity
  8
ELEC_TOMACORRIENTES
  6
ByLayer
100
AcDbLine
 10
14.55
 20
3.7265
 30
0.0
 11
14.55
 21
3.8045
 31
0.0
  0
TEXT
  5
1B7
330
1F
100
AcDbEntity
  8
ELEC_TEXTOS
  6
ByLayer
100
AcDbText
 10
14.55
 20
3.49
 30
0.0
 40
0.14
  1
C5
  7
STANDARD
 72
1
 11
14.55
 21
3.49
 31
0.0
100
AcDbText
 73
2
  0
TEXT
  5
1B8
330
1F
100
AcDbEntity
  8
ELEC_TEXTOS
  6
ByLayer
100
AcDbText
 10
7.65
 20
1.3845
 30
0.0
 40
0.14
  1
C5
  7
STANDARD
 72
1
 11
7.65
 21
1.3845
 31
0.0
100
AcDbText
 73
2
  0
TEXT
  5
1B9
330
1F
100
AcDbEntity
  8
ELEC_TEXTOS
  6
ByLayer
100
AcDbText
 10
7.65
 20
1.1955
 30
0.0
 40
0.14
  1
protegido
  7
STANDARD
 72
1
 11
7.65
 21
1.1955
 31
0.0
100
AcDbText
 73
2
  0
TEXT
  5
1BA
330
1F
100
AcDbEntity
  8
ELEC_TEXTOS
  6
ByLayer
100
AcDbText
 10
3.35
 20
5.834499999999999
 30
0.0
 40
0.14
  1
C6
  7
STANDARD
 72
1
 11
3.35
 21
5.834499999999999
 31
0.0
100
AcDbText
 73
2
  0
TEXT
  5
1BB
330
1F
100
AcDbEntity
  8
ELEC_TEXTOS
  6
ByLayer
100
AcDbText
 10
3.35
 20
5.645499999999999
 30
0.0
 40
0.14
  1
servicio
  7
STANDARD
 72
1
 11
3.35
 21
5.645499999999999
 31
0.0
100
AcDbText
 73
2
  0
TEXT
  5
1BC
330
1F
100
AcDbEntity
  8
ELEC_TEXTOS
  6
ByLayer
100
AcDbText
 10
5.35
 20
7.7845
 30
0.0
 40
0.14
  1
C6
  7
STANDARD
 72
1
 11
5.35
 21
7.7845
 31
0.0
100
AcDbText
 73
2
  0
TEXT
  5
1BD
330
1F
100
AcDbEntity
  8
ELEC_TEXTOS
  6
ByLayer
100
AcDbText
 10
5.35
 20
7.5955
 30
0.0
 40
0.14
  1
servicio
  7
STANDARD
 72
1
 11
5.35
 21
7.5955
 31
0.0
100
AcDbText
 73
2
  0
TEXT
  5
1BE
330
1F
100
AcDbEntity
  8
ELEC_TEXTOS
  6
ByLayer
100
AcDbText
 10
3.1
 20
5.079
 30
0.0
 40
0.14
  1
C6
  7
STANDARD
 72
1
 11
3.1
 21
5.079
 31
0.0
100
AcDbText
 73
2
  0
TEXT
  5
1BF
330
1F
100
AcDbEntity
  8
ELEC_TEXTOS
  6
ByLayer
100
AcDbText
 10
3.1
 20
4.89
 30
0.0
 40
0.14
  1
cocina
  7
STANDARD
 72
1
 11
3.1
 21
4.89
 31
0.0
100
AcDbText
 73
2
  0
LWPOLYLINE
  5
1C0
330
1F
100
AcDbEntity
  8
ELEC_TABLERO
  6
ByLayer
100
AcDbPolyline
 90
5
 70
0
 10
12.275
 20
4.06
 10
12.825
 20
4.06
 10
12.825
 20
4.44
 10
12.275
 20
4.44
 10
12.275
 20
4.06
  0
TEXT
  5
1C1
330
1F
100
AcDbEntity
  8
ELEC_TEXTOS
  6
ByLayer
100
AcDbText
 10
12.55
 20
4.25
 30
0.0
 40
0.16
  1
T2
  7
STANDARD
 72
1
 11
12.55
 21
4.25
 31
0.0
100
AcDbText
 73
2
  0
TEXT
  5
1C2
330
1F
100
AcDbEntity
  8
ELEC_TEXTOS
  6
ByLayer
100
AcDbText
 10
12.55
 20
3.7
 30
0.0
 40
0.12
  1
Tablero T2
  7
STANDARD
 72
1
 11
12.55
 21
3.7
 31
0.0
100
AcDbText
 73
2
  0
CIRCLE
  5
1C3
330
1F
100
AcDbEntity
  8
ELEC_LUMINARIAS
  6
ByLayer
100
AcDbCircle
 10
4.827099822809712
 20
3.786267618821277
 30
0.0
 40
0.18
  0
CIRCLE
  5
1C6
330
1F
100
AcDbEntity
  8
ELEC_TOMACORRIENTES
  6
ByLayer
100
AcDbCircle
 10
9.22592231879623
 20
1.272868205792448
 30
0.0
 40
0.13
  0
LINE
  5
1C7
330
1F
100
AcDbEntity
  8
ELEC_TOMACORRIENTES
  6
ByLayer
100
AcDbLine
 10
9.154422318796229
 20
1.253368205792448
 30
0.0
 11
9.29742231879623
 21
1.253368205792448
 31
0.0
  0
LINE
  5
1C8
330
1F
100
AcDbEntity
  8
ELEC_TOMACORRIENTES
  6
ByLayer
100
AcDbLine
 10
9.154422318796229
 20
1.298868205792448
 30
0.0
 11
9.29742231879623
 21
1.298868205792448
 31
0.0
  0
LINE
  5
1C9
330
1F
100
AcDbEntity
  8
ELEC_TOMACORRIENTES
  6
ByLayer
100
AcDbLine
 10
9.22592231879623
 20
1.149368205792448
 30
0.0
 11
9.22592231879623
 21
1.227368205792448
 31
0.0
  0
CIRCLE
  5
1CA
330
1F
100
AcDbEntity
  8
ELEC_TOMACORRIENTES
  6
ByLayer
100
AcDbCircle
 10
8.661157502489463
 20
2.779714060545553
 30
0.0
 40
0.13
  0
LINE
  5
1CB
330
1F
100
AcDbEntity
  8
ELEC_TOMACORRIENTES
  6
ByLayer
100
AcDbLine
 10
8.589657502489462
 20
2.760214060545553
 30
0.0
 11
8.732657502489463
 21
2.760214060545553
 31
0.0
  0
LINE
  5
1CC
330
1F
100
AcDbEntity
  8
ELEC_TOMACORRIENTES
  6
ByLayer
100
AcDbLine
 10
8.589657502489462
 20
2.805714060545553
 30
0.0
 11
8.732657502489463
 21
2.805714060545553
 31
0.0
  0
LINE
  5
1CD
330
1F
100
AcDbEntity
  8
ELEC_TOMACORRIENTES
  6
ByLayer
100
AcDbLine
 10
8.661157502489463
 20
2.656214060545553
 30
0.0
 11
8.661157502489463
 21
2.734214060545553
 31
0.0
  0
CIRCLE
  5
1CE
330
1F
100
AcDbEntity
  8
ELEC_INTERRUPTORES
  6
ByLayer
100
AcDbCircle
 10
9.274020465582257
 20
2.199841430583688
 30
0.0
 40
0.12
  0
LINE
  5
1CF
330
1F
100
AcDbEntity
  8
ELEC_INTERRUPTORES
  6
ByLayer
100
AcDbLine
 10
9.274020465582257
 20
2.199841430583688
 30
0.0
 11
9.466020465582258
 21
2.331841430583689
 31
0.0
  0
TEXT
  5
1D0
330
1F
100
AcDbEntity
  8
ELEC_TEXTOS
  6
ByLayer
100
AcDbText
 10
9.274020465582257
 20
2.429841430583688
 30
0.0
 40
0.13
  1
S
  7
STANDARD
 72
1
 11
9.274020465582257
 21
2.429841430583688
 31
0.0
100
AcDbText
 73
2
  0
CIRCLE
  5
1D1
330
1F
100
AcDbEntity
  8
ELEC_INTERRUPTORES
  6
ByLayer
100
AcDbCircle
 10
7.731262816827518
 20
2.211010250532047
 30
0.0
 40
0.12
  0
LINE
  5
1D2
330
1F
100
AcDbEntity
  8
ELEC_INTERRUPTORES
  6
ByLayer
100
AcDbLine
 10
7.731262816827518
 20
2.211010250532047
 30
0.0
 11
7.923262816827518
 21
2.343010250532047
 31
0.0
  0
TEXT
  5
1D3
330
1F
100
AcDbEntity
  8
ELEC_TEXTOS
  6
ByLayer
100
AcDbText
 10
7.731262816827518
 20
2.441010250532047
 30
0.0
 40
0.13
  1
S
  7
STANDARD
 72
1
 11
7.731262816827518
 21
2.441010250532047
 31
0.0
100
AcDbText
 73
2
  0
CIRCLE
  5
1D4
330
1F
100
AcDbEntity
  8
ELEC_INTERRUPTORES
  6
ByLayer
100
AcDbCircle
 10
4.990363513190671
 20
5.04192248742388
 30
0.0
 40
0.12
  0
LINE
  5
1D5
330
1F
100
AcDbEntity
  8
ELEC_INTERRUPTORES
  6
ByLayer
100
AcDbLine
 10
4.990363513190671
 20
5.04192248742388
 30
0.0
 11
5.182363513190671
 21
5.17392248742388
 31
0.0
  0
TEXT
  5
1D6
330
1F
100
AcDbEntity
  8
ELEC_TEXTOS
  6
ByLayer
100
AcDbText
 10
4.990363513190671
 20
5.271922487423881
 30
0.0
 40
0.13
  1
S
  7
STANDARD
 72
1
 11
4.990363513190671
 21
5.271922487423881
 31
0.0
100
AcDbText
 73
2
  0
TEXT
  5
1D7
330
1F
100
AcDbEntity
  8
ELEC_TEXTOS
  6
ByLayer
100
AcDbText
 10
4.990363513190671
 20
4.741922487423881
 30
0.0
 40
0.14
  1
C4
  7
STANDARD
 72
1
 11
4.990363513190671
 21
4.741922487423881
 31
0.0
100
AcDbText
 73
2
  0
CIRCLE
  5
1D8
330
1F
100
AcDbEntity
  8
ELEC_INTERRUPTORES
  6
ByLayer
100
AcDbCircle
 10
7.053857278260741
 20
4.978220494153536
 30
0.0
 40
0.12
  0
LINE
  5
1D9
330
1F
100
AcDbEntity
  8
ELEC_INTERRUPTORES
  6
ByLayer
100
AcDbLine
 10
7.053857278260741
 20
4.978220494153536
 30
0.0
 11
7.245857278260742
 21
5.110220494153536
 31
0.0
  0
TEXT
  5
1DA
330
1F
100
AcDbEntity
  8
ELEC_TEXTOS
  6
ByLayer
100
AcDbText
 10
7.053857278260741
 20
5.208220494153537
 30
0.0
 40
0.13
  1
S
  7
STANDARD
 72
1
 11
7.053857278260741
 21
5.208220494153537
 31
0.0
100
AcDbText
 73
2
  0
TEXT
  5
1DB
330
1F
100
AcDbEntity
  8
ELEC_TEXTOS
  6
ByLayer
100
AcDbText
 10
7.053857278260741
 20
4.678220494153536
 30
0.0
 40
0.14
  1
C4
  7
STANDARD
 72
1
 11
7.053857278260741
 21
4.678220494153536
 31
0.0
100
AcDbText
 73
2
  0
CIRCLE
  5
1DC
330
1F
100
AcDbEntity
  8
ELEC_INTERRUPTORES
  6
ByLayer
100
AcDbCircle
 10
13.07190611044776
 20
4.964905161381601
 30
0.0
 40
0.12
  0
LINE
  5
1DD
330
1F
100
AcDbEntity
  8
ELEC_INTERRUPTORES
  6
ByLayer
100
AcDbLine
 10
13.07190611044776
 20
4.964905161381601
 30
0.0
 11
13.26390611044776
 21
5.096905161381601
 31
0.0
  0
TEXT
  5
1DE
330
1F
100
AcDbEntity
  8
ELEC_TEXTOS
  6
ByLayer
100
AcDbText
 10
13.07190611044776
 20
5.194905161381602
 30
0.0
 40
0.13
  1
S
  7
STANDARD
 72
1
 11
13.07190611044776
 21
5.194905161381602
 31
0.0
100
AcDbText
 73
2
  0
TEXT
  5
1DF
330
1F
100
AcDbEntity
  8
ELEC_TEXTOS
  6
ByLayer
100
AcDbText
 10
13.07190611044776
 20
4.664905161381601
 30
0.0
 40
0.14
  1
C4
  7
STANDARD
 72
1
 11
13.07190611044776
 21
4.664905161381601
 31
0.0
100
AcDbText
 73
2
  0
CIRCLE
  5
1E0
330
1F
100
AcDbEntity
  8
ELEC_INTERRUPTORES
  6
ByLayer
100
AcDbCircle
 10
10.06517652597844
 20
5.043125655535137
 30
0.0
 40
0.12
  0
LINE
  5
1E1
330
1F
100
AcDbEntity
  8
ELEC_INTERRUPTORES
  6
ByLayer
100
AcDbLine
 10
10.06517652597844
 20
5.043125655535137
 30
0.0
 11
10.25717652597844
 21
5.175125655535137
 31
0.0
  0
TEXT
  5
1E2
330
1F
100
AcDbEntity
  8
ELEC_TEXTOS
  6
ByLayer
100
AcDbText
 10
10.06517652597844
 20
5.273125655535138
 30
0.0
 40
0.13
  1
S
  7
STANDARD
 72
1
 11
10.06517652597844
 21
5.273125655535138
 31
0.0
100
AcDbText
 73
2
  0
TEXT
  5
1E3
330
1F
100
AcDbEntity
  8
ELEC_TEXTOS
  6
ByLayer
100
AcDbText
 10
10.06517652597844
 20
4.743125655535137
 30
0.0
 40
0.14
  1
C4
  7
STANDARD
 72
1
 11
10.06517652597844
 21
4.743125655535137
 31
0.0
100
AcDbText
 73
2
  0
TEXT
  5
1E4
330
1F
100
AcDbEntity
  8
ELEC_TEXTOS
  6
ByLayer
100
AcDbText
 10
7.7243762220601
 20
1.946185120126446
 30
0.0
 40
0.14
  1
C4
  7
STANDARD
 72
1
 11
7.7243762220601
 21
1.946185120126446
 31
0.0
100
AcDbText
 73
2
  0
TEXT
  5
1E5
330
1F
100
AcDbEntity
  8
ELEC_TEXTOS
  6
ByLayer
100
AcDbText
 10
9.279845937036725
 20
1.908768322858966
 30
0.0
 40
0.14
  1
C4
  7
STANDARD
 72
1
 11
9.279845937036725
 21
1.908768322858966
 31
0.0
100
AcDbText
 73
2
  0
CIRCLE
  5
1E6
330
1F
100
AcDbEntity
  8
ELEC_TOMACORRIENTES
  6
ByLayer
100
AcDbCircle
 10
3.35
 20
6.1
 30
0.0
 40
0.13
  0
LINE
  5
1E7
330
1F
100
AcDbEntity
  8
ELEC_TOMACORRIENTES
  6
ByLayer
100
AcDbLine
 10
3.2694
 20
6.055
 30
0.0
 11
3.4306
 21
6.055
 31
0.0
  0
LINE
  5
1E8
330
1F
100
AcDbEntity
  8
ELEC_TOMACORRIENTES
  6
ByLayer
100
AcDbLine
 10
3.2694
 20
6.145
 30
0.0
 11
3.4306
 21
6.145
 31
0.0
  0
TEXT
  5
1E9
330
1F
100
AcDbEntity
  8
ELEC_TEXTOS
  6
ByLayer
100
AcDbText
 10
3.493
 20
5.9635
 30
0.0
 40
0.075
  1
TE
  7
STANDARD
 11
3.493
 21
5.9635
 31
0.0
100
AcDbText
 73
2
  0
CIRCLE
  5
1EA
330
1F
100
AcDbEntity
  8
ELEC_TOMACORRIENTES
  6
ByLayer
100
AcDbCircle
 10
5.35
 20
8.05
 30
0.0
 40
0.13
  0
LINE
  5
1EB
330
1F
100
AcDbEntity
  8
ELEC_TOMACORRIENTES
  6
ByLayer
100
AcDbLine
 10
5.269399999999999
 20
8.005
 30
0.0
 11
5.4306
 21
8.005
 31
0.0
  0
LINE
  5
1EC
330
1F
100
AcDbEntity
  8
ELEC_TOMACORRIENTES
  6
ByLayer
100
AcDbLine
 10
5.269399999999999
 20
8.095
 30
0.0
 11
5.4306
 21
8.095
 31
0.0
  0
TEXT
  5
1ED
330
1F
100
AcDbEntity
  8
ELEC_TEXTOS
  6
ByLayer
100
AcDbText
 10
5.492999999999999
 20
7.913500000000001
 30
0.0
 40
0.075
  1
TE
  7
STANDARD
 11
5.492999999999999
 21
7.913500000000001
 31
0.0
100
AcDbText
 73
2
  0
CIRCLE
  5
1EE
330
1F
100
AcDbEntity
  8
ELEC_TOMACORRIENTES
  6
ByLayer
100
AcDbCircle
 10
3.1
 20
5.25
 30
0.0
 40
0.13
  0
LINE
  5
1EF
330
1F
100
AcDbEntity
  8
ELEC_TOMACORRIENTES
  6
ByLayer
100
AcDbLine
 10
3.0194
 20
5.205
 30
0.0
 11
3.1806
 21
5.205
 31
0.0
  0
LINE
  5
1F0
330
1F
100
AcDbEntity
  8
ELEC_TOMACORRIENTES
  6
ByLayer
100
AcDbLine
 10
3.0194
 20
5.295
 30
0.0
 11
3.1806
 21
5.295
 31
0.0
  0
TEXT
  5
1F1
330
1F
100
AcDbEntity
  8
ELEC_TEXTOS
  6
ByLayer
100
AcDbText
 10
3.243
 20
5.1135
 30
0.0
 40
0.09
  1
C
  7
STANDARD
 11
3.243
 21
5.1135
 31
0.0
100
AcDbText
 73
2
  0
LWPOLYLINE
  5
1F2
330
1F
100
AcDbEntity
  8
ELEC_LEYENDA
  6
ByLayer
100
AcDbPolyline
 90
5
 70
0
 10
16.65
 20
9.35
 10
22.3
 20
9.35
 10
22.3
 20
1.399999999999999
 10
16.65
 20
1.399999999999999
 10
16.65
 20
9.35
  0
LINE
  5
1F3
330
1F
100
AcDbEntity
  8
ELEC_LEYENDA
  6
ByLayer
100
AcDbLine
 10
16.65
 20
8.87
 30
0.0
 11
22.3
 21
8.87
 31
0.0
  0
TEXT
  5
1F4
330
1F
100
AcDbEntity
  8
ELEC_TEXTOS
  6
ByLayer
100
AcDbText
 10
19.475
 20
9.11
 30
0.0
 40
0.18
  1
LEYENDA ELECTRICA
  7
STANDARD
 72
1
 11
19.475
 21
9.11
 31
0.0
100
AcDbText
 73
2
  0
TEXT
  5
1F5
330
1F
100
AcDbEntity
  8
ELEC_TEXTOS
  6
ByLayer
100
AcDbText
 10
16.87
 20
8.61
 30
0.0
 40
0.12
  1
Simbolos
  7
STANDARD
 11
16.87
 21
8.61
 31
0.0
100
AcDbText
 73
2
  0
CIRCLE
  5
1F6
330
1F
100
AcDbEntity
  8
ELEC_LUMINARIAS
  6
ByLayer
100
AcDbCircle
 10
16.97
 20
8.3
 30
0.0
 40
0.12
  0
TEXT
  5
1F9
330
1F
100
AcDbEntity
  8
ELEC_TEXTOS
  6
ByLayer
100
AcDbText
 10
17.43
 20
8.3
 30
0.0
 40
0.115
  1
Punto para foco
  7
STANDARD
 11
17.43
 21
8.3
 31
0.0
100
AcDbText
 73
2
  0
CIRCLE
  5
1FA
330
1F
100
AcDbEntity
  8
ELEC_INTERRUPTORES
  6
ByLayer
100
AcDbCircle
 10
16.97
 20
7.96
 30
0.0
 40
0.11
  0
LINE
  5
1FB
330
1F
100
AcDbEntity
  8
ELEC_INTERRUPTORES
  6
ByLayer
100
AcDbLine
 10
16.9865
 20
7.9655
 30
0.0
 11
17.1405
 21
8.0755
 31
0.0
  0
TEXT
  5
1FC
330
1F
100
AcDbEntity
  8
ELEC_TEXTOS
  6
ByLayer
100
AcDbText
 10
17.1075
 20
8.1085
 30
0.0
 40
0.08
  1
S
  7
STANDARD
 72
1
 11
17.1075
 21
8.1085
 31
0.0
100
AcDbText
 73
2
  0
TEXT
  5
1FD
330
1F
100
AcDbEntity
  8
ELEC_TEXTOS
  6
ByLayer
100
AcDbText
 10
17.43
 20
7.96
 30
0.0
 40
0.115
  1
Interruptor simple
  7
STANDARD
 11
17.43
 21
7.96
 31
0.0
100
AcDbText
 73
2
  0
CIRCLE
  5
1FE
330
1F
100
AcDbEntity
  8
ELEC_TOMACORRIENTES
  6
ByLayer
100
AcDbCircle
 10
16.97
 20
7.62
 30
0.0
 40
0.12
  0
LINE
  5
1FF
330
1F
100
AcDbEntity
  8
ELEC_TOMACORRIENTES
  6
ByLayer
100
AcDbLine
 10
16.8956
 20
7.5984
 30
0.0
 11
17.0444
 21
7.5984
 31
0.0
  0
LINE
  5
200
330
1F
100
AcDbEntity
  8
ELEC_TOMACORRIENTES
  6
ByLayer
100
AcDbLine
 10
16.8956
 20
7.644
 30
0.0
 11
17.0444
 21
7.644
 31
0.0
  0
LINE
  5
201
330
1F
100
AcDbEntity
  8
ELEC_TOMACORRIENTES
  6
ByLayer
100
AcDbLine
 10
16.97
 20
7.5
 30
0.0
 11
16.97
 21
7.5696
 31
0.0
  0
TEXT
  5
202
330
1F
100
AcDbEntity
  8
ELEC_TEXTOS
  6
ByLayer
100
AcDbText
 10
17.114
 20
7.53
 30
0.0
 40
0.08
  1
T
  7
STANDARD
 11
17.114
 21
7.53
 31
0.0
100
AcDbText
 73
2
  0
TEXT
  5
203
330
1F
100
AcDbEntity
  8
ELEC_TEXTOS
  6
ByLayer
100
AcDbText
 10
17.43
 20
7.62
 30
0.0
 40
0.115
  1
Tomacorriente con tierra
  7
STANDARD
 11
17.43
 21
7.62
 31
0.0
100
AcDbText
 73
2
  0
CIRCLE
  5
204
330
1F
100
AcDbEntity
  8
ELEC_TOMACORRIENTES
  6
ByLayer
100
AcDbCircle
 10
16.97
 20
7.28
 30
0.0
 40
0.12
  0
LINE
  5
205
330
1F
100
AcDbEntity
  8
ELEC_TOMACORRIENTES
  6
ByLayer
100
AcDbLine
 10
16.8956
 20
7.235
 30
0.0
 11
17.0444
 21
7.235
 31
0.0
  0
LINE
  5
206
330
1F
100
AcDbEntity
  8
ELEC_TOMACORRIENTES
  6
ByLayer
100
AcDbLine
 10
16.8956
 20
7.325
 30
0.0
 11
17.0444
 21
7.325
 31
0.0
  0
TEXT
  5
207
330
1F
100
AcDbEntity
  8
ELEC_TEXTOS
  6
ByLayer
100
AcDbText
 10
17.102
 20
7.154
 30
0.0
 40
0.075
  1
TE
  7
STANDARD
 11
17.102
 21
7.154
 31
0.0
100
AcDbText
 73
2
  0
CIRCLE
  5
208
330
1F
100
AcDbEntity
  8
ELEC_TOMACORRIENTES
  6
ByLayer
100
AcDbCircle
 10
16.97
 20
6.94
 30
0.0
 40
0.12
  0
LINE
  5
209
330
1F
100
AcDbEntity
  8
ELEC_TOMACORRIENTES
  6
ByLayer
100
AcDbLine
 10
16.8956
 20
6.895
 30
0.0
 11
17.0444
 21
6.895
 31
0.0
  0
LINE
  5
20A
330
1F
100
AcDbEntity
  8
ELEC_TOMACORRIENTES
  6
ByLayer
100
AcDbLine
 10
16.8956
 20
6.985
 30
0.0
 11
17.0444
 21
6.985
 31
0.0
  0
TEXT
  5
20B
330
1F
100
AcDbEntity
  8
ELEC_TEXTOS
  6
ByLayer
100
AcDbText
 10
17.102
 20
6.814
 30
0.0
 40
0.09
  1
L
  7
STANDARD
 11
17.102
 21
6.814
 31
0.0
100
AcDbText
 73
2
  0
LWPOLYLINE
  5
20C
330
1F
100
AcDbEntity
  8
ELEC_TABLERO
  6
ByLayer
100
AcDbPolyline
 90
5
 70
0
 10
16.8
 20
6.489999999999999
 10
17.14
 20
6.489999999999999
 10
17.14
 20
6.71
 10
16.8
 20
6.71
 10
16.8
 20
6.489999999999999
  0
TEXT
  5
20D
330
1F
100
AcDbEntity
  8
ELEC_TEXTOS
  6
ByLayer
100
AcDbText
 10
16.97
 20
6.6
 30
0.0
 40
0.1
  1
T2
  7
STANDARD
 72
1
 11
16.97
 21
6.6
 31
0.0
100
AcDbText
 73
2
  0
TEXT
  5
20E
330
1F
100
AcDbEntity
  8
ELEC_TEXTOS
  6
ByLayer
100
AcDbText
 10
17.43
 20
6.6
 30
0.0
 40
0.115
  1
Tablero segundo piso T2
  7
STANDARD
 11
17.43
 21
6.6
 31
0.0
100
AcDbText
 73
2
  0
TEXT
  5
20F
330
1F
100
AcDbEntity
  8
ELEC_TEXTOS
  6
ByLayer
100
AcDbText
 10
17.43
 20
6.26
 30
0.0
 40
0.115
  1
Ducto vertical VD
  7
STANDARD
 11
17.43
 21
6.26
 31
0.0
100
AcDbText
 73
2
  0
TEXT
  5
210
330
1F
100
AcDbEntity
  8
ELEC_TEXTOS
  6
ByLayer
100
AcDbText
 10
16.87
 20
5.82
 30
0.0
 40
0.12
  1
Lineas
  7
STANDARD
 11
16.87
 21
5.82
 31
0.0
100
AcDbText
 73
2
  0
LINE
  5
211
330
1F
100
AcDbEntity
  8
ELEC_CIRCUITO_C4
  6
DASHED
370
18
100
AcDbLine
 10
16.87
 20
5.55
 30
0.0
 11
17.5
 21
5.55
 31
0.0
  0
TEXT
  5
212
330
1F
100
AcDbEntity
  8
ELEC_TEXTOS
  6
ByLayer
100
AcDbText
 10
17.67
 20
5.55
 30
0.0
 40
0.112
  1
C4 Alumbrado
  7
STANDARD
 11
17.67
 21
5.55
 31
0.0
100
AcDbText
 73
2
  0
LINE
  5
213
330
1F
100
AcDbEntity
  8
ELEC_CIRCUITO_C5
  6
DASHED
370
18
100
AcDbLine
 10
16.87
 20
5.25
 30
0.0
 11
17.5
 21
5.25
 31
0.0
  0
TEXT
  5
214
330
1F
100
AcDbEntity
  8
ELEC_TEXTOS
  6
ByLayer
100
AcDbText
 10
17.67
 20
5.25
 30
0.0
 40
0.112
  1
C5 Tomacorrientes
  7
STANDARD
 11
17.67
 21
5.25
 31
0.0
100
AcDbText
 73
2
  0
LINE
  5
215
330
1F
100
AcDbEntity
  8
ELEC_CIRCUITO_C6
  6
DASHED
370
18
100
AcDbLine
 10
16.87
 20
4.95
 30
0.0
 11
17.5
 21
4.95
 31
0.0
  0
TEXT
  5
216
330
1F
100
AcDbEntity
  8
ELEC_TEXTOS
  6
ByLayer
100
AcDbText
 10
17.67
 20
4.95
 30
0.0
 40
0.112
  1
C6 Cocina/servicio
  7
STANDARD
 11
17.67
 21
4.95
 31
0.0
100
AcDbText
 73
2
  0
LINE
  5
217
330
1F
100
AcDbEntity
  8
ELEC_CIRCUITO_C7
  6
DASHED
370
18
100
AcDbLine
 10
16.87
 20
4.65
 30
0.0
 11
17.5
 21
4.65
 31
0.0
  0
TEXT
  5
218
330
1F
100
AcDbEntity
  8
ELEC_TEXTOS
  6
ByLayer
100
AcDbText
 10
17.67
 20
4.65
 30
0.0
 40
0.112
  1
C7 Lavadora
  7
STANDARD
 11
17.67
 21
4.65
 31
0.0
100
AcDbText
 73
2
  0
LINE
  5
219
330
1F
100
AcDbEntity
  8
ELEC_CANALIZACION
  6
CONTINUOUS
370
18
100
AcDbLine
 10
16.87
 20
4.35
 30
0.0
 11
17.5
 21
4.35
 31
0.0
  0
TEXT
  5
21A
330
1F
100
AcDbEntity
  8
ELEC_TEXTOS
  6
ByLayer
100
AcDbText
 10
17.67
 20
4.35
 30
0.0
 40
0.112
  1
Subida/bajada TG-T2
  7
STANDARD
 11
17.67
 21
4.35
 31
0.0
100
AcDbText
 73
2
  0
LINE
  5
21B
330
1F
100
AcDbEntity
  8
ELEC_CANALIZACION
  6
DASHED
370
18
100
AcDbLine
 10
16.87
 20
4.05
 30
0.0
 11
17.5
 21
4.05
 31
0.0
  0
TEXT
  5
21C
330
1F
100
AcDbEntity
  8
ELEC_TEXTOS
  6
ByLayer
100
AcDbText
 10
17.67
 20
4.05
 30
0.0
 40
0.112
  1
Canalizacion empotrada
  7
STANDARD
 11
17.67
 21
4.05
 31
0.0
100
AcDbText
 73
2
  0
TEXT
  5
21D
330
1F
100
AcDbEntity
  8
ELEC_TEXTOS
  6
ByLayer
100
AcDbText
 10
16.87
 20
3.72
 30
0.0
 40
0.095
  1
Base: Seccion 9 DGE / ubicaciones manuales v2 preservadas
  7
STANDARD
 11
16.87
 21
3.72
 31
0.0
100
AcDbText
 73
2
  0
LWPOLYLINE
  5
21E
330
1F
100
AcDbEntity
  8
ELEC_CIRCUITO_C4
  6
DASHED
370
18
100
AcDbPolyline
 90
4
 70
0
 10
5.05
 20
4.88
 10
5.05
 20
5.62
 10
3.95
 20
5.62
 10
3.95
 20
6.15
  0
LWPOLYLINE
  5
21F
330
1F
100
AcDbEntity
  8
ELEC_CIRCUITO_C4
  6
DASHED
370
18
100
AcDbPolyline
 90
3
 70
0
 10
5.05
 20
5.62
 10
5.15
 20
5.62
 10
5.15
 20
7.65
  0
LWPOLYLINE
  5
220
330
1F
100
AcDbEntity
  8
ELEC_CIRCUITO_C4
  6
DASHED
370
18
100
AcDbPolyline
 90
4
 70
0
 10
7.15
 20
4.88
 10
7.15
 20
5.3
 10
7.5
 20
5.3
 10
7.5
 20
6.75
  0
LWPOLYLINE
  5
221
330
1F
100
AcDbEntity
  8
ELEC_CIRCUITO_C4
  6
DASHED
370
18
100
AcDbPolyline
 90
4
 70
0
 10
10.15
 20
4.88
 10
10.15
 20
5.3
 10
10.5
 20
5.3
 10
10.5
 20
6.75
  0
LWPOLYLINE
  5
222
330
1F
100
AcDbEntity
  8
ELEC_CIRCUITO_C4
  6
DASHED
370
18
100
AcDbPolyline
 90
5
 70
0
 10
12.55
 20
4.88
 10
13.1
 20
4.88
 10
13.1
 20
6.25
 10
14.1
 20
6.25
 10
14.1
 20
7.6
  0
LWPOLYLINE
  5
223
330
1F
100
AcDbEntity
  8
ELEC_CIRCUITO_C4
  6
DASHED
370
18
100
AcDbPolyline
 90
6
 70
0
 10
12.55
 20
4.25
 10
12.55
 20
3.92
 10
9.35
 20
3.92
 10
9.35
 20
2.2
 10
8.25
 20
2.2
 10
8.25
 20
1.55
  0
LWPOLYLINE
  5
224
330
1F
100
AcDbEntity
  8
ELEC_CIRCUITO_C4
  6
DASHED
370
18
100
AcDbPolyline
 90
3
 70
0
 10
9.35
 20
2.2
 10
11.7
 20
2.2
 10
11.7
 20
1.55
  0
LWPOLYLINE
  5
225
330
1F
100
AcDbEntity
  8
ELEC_CIRCUITO_C4
  6
DASHED
370
18
100
AcDbPolyline
 90
3
 70
0
 10
12.55
 20
4.25
 10
14.0
 20
4.25
 10
14.0
 20
3.75
  0
LWPOLYLINE
  5
226
330
1F
100
AcDbEntity
  8
ELEC_CIRCUITO_C4
  6
DASHED
370
18
100
AcDbPolyline
 90
3
 70
0
 10
5.05
 20
4.88
 10
4.827
 20
4.88
 10
4.827
 20
3.786
  0
LWPOLYLINE
  5
227
330
1F
100
AcDbEntity
  8
ELEC_CIRCUITO_C5
  6
DASHED
370
18
100
AcDbPolyline
 90
8
 70
0
 10
12.55
 20
4.25
 10
12.85
 20
4.25
 10
12.85
 20
5.5
 10
14.55
 20
5.5
 10
14.55
 20
8.05
 10
14.55
 20
8.42
 10
11.65
 20
8.42
 10
8.65
 20
8.42
  0
LWPOLYLINE
  5
228
330
1F
100
AcDbEntity
  8
ELEC_CIRCUITO_C5
  6
DASHED
370
18
100
AcDbPolyline
 90
8
 70
0
 10
12.85
 20
5.5
 10
12.3
 20
5.5
 10
12.3
 20
5.72
 10
9.35
 20
5.72
 10
9.35
 20
6.0
 10
9.35
 20
5.72
 10
6.25
 20
5.72
 10
6.25
 20
6.0
  0
LWPOLYLINE
  5
229
330
1F
100
AcDbEntity
  8
ELEC_CIRCUITO_C5
  6
DASHED
370
18
100
AcDbPolyline
 90
11
 70
0
 10
12.55
 20
4.25
 10
14.25
 20
4.25
 10
14.25
 20
3.85
 10
14.55
 20
3.85
 10
14.55
 20
1.35
 10
11.8
 20
1.35
 10
11.8
 20
0.35
 10
9.226
 20
0.35
 10
9.226
 20
1.273
 10
8.661
 20
1.273
 10
8.661
 20
2.78
  0
LWPOLYLINE
  5
22A
330
1F
100
AcDbEntity
  8
ELEC_CIRCUITO_C6
  6
DASHED
370
18
100
AcDbPolyline
 90
4
 70
0
 10
3.1
 20
5.25
 10
3.1
 20
5.72
 10
3.35
 20
5.72
 10
3.35
 20
6.1
  0
LWPOLYLINE
  5
22B
330
1F
100
AcDbEntity
  8
ELEC_CIRCUITO_C6
  6
DASHED
370
18
100
AcDbPolyline
 90
4
 70
0
 10
3.35
 20
6.1
 10
3.35
 20
7.95
 10
5.35
 20
7.95
 10
5.35
 20
8.05
  0
LWPOLYLINE
  5
22C
330
1F
100
AcDbEntity
  8
ELEC_CIRCUITO_C4
  6
DASHED
370
18
100
AcDbPolyline
 90
6
 70
0
 10
12.55
 20
4.25
 10
12.55
 20
4.88
 10
10.15
 20
4.88
 10
7.15
 20
4.88
 10
5.05
 20
4.88
 10
1.5
 20
4.88
  0
CIRCLE
  5
22D
330
1F
100
AcDbEntity
  8
ELEC_CANALIZACION
  6
ByLayer
100
AcDbCircle
 10
12.05
 20
4.25
 30
0.0
 40
0.18
  0
LINE
  5
22E
330
1F
100
AcDbEntity
  8
ELEC_CANALIZACION
  6
ByLayer
100
AcDbLine
 10
12.05
 20
4.1996
 30
0.0
 11
12.05
 21
4.3256
 31
0.0
  0
LINE
  5
22F
330
1F
100
AcDbEntity
  8
ELEC_CANALIZACION
  6
ByLayer
100
AcDbLine
 10
12.05
 20
4.3634
 30
0.0
 11
12.014
 21
4.3256
 31
0.0
  0
LINE
  5
230
330
1F
100
AcDbEntity
  8
ELEC_CANALIZACION
  6
ByLayer
100
AcDbLine
 10
12.05
 20
4.3634
 30
0.0
 11
12.086
 21
4.3256
 31
0.0
  0
LINE
  5
231
330
1F
100
AcDbEntity
  8
ELEC_CANALIZACION
  6
ByLayer
100
AcDbLine
 10
11.96
 20
4.196
 30
0.0
 11
12.14
 21
4.196
 31
0.0
  0
TEXT
  5
232
330
1F
100
AcDbEntity
  8
ELEC_TEXTOS
  6
ByLayer
100
AcDbText
 10
12.05
 20
3.82
 30
0.0
 40
0.14
  1
VD
  7
STANDARD
 72
1
 11
12.05
 21
3.82
 31
0.0
100
AcDbText
 73
2
  0
TEXT
  5
233
330
1F
100
AcDbEntity
  8
ELEC_TEXTOS
  6
ByLayer
100
AcDbText
 10
12.05
 20
3.64
 30
0.0
 40
0.12
  1
subida vertical
  7
STANDARD
 72
1
 11
12.05
 21
3.64
 31
0.0
100
AcDbText
 73
2
  0
LWPOLYLINE
  5
234
330
1F
100
AcDbEntity
  8
ELEC_CANALIZACION
  6
CONTINUOUS
100
AcDbPolyline
 90
2
 70
0
 10
12.05
 20
4.25
 10
12.55
 20
4.25
  0
LWPOLYLINE
  5
235
330
1F
100
AcDbEntity
  8
ELEC_CIRCUITO_C6
  6
DASHED
100
AcDbPolyline
 90
6
 70
0
 10
12.55
 20
4.25
 10
12.55
 20
5.1
 10
8.2
 20
5.1
 10
5.6
 20
5.1
 10
3.1
 20
5.1
 10
3.1
 20
5.25
  0
CIRCLE
  5
236
330
1F
100
AcDbEntity
  8
ELEC_CANALIZACION
  6
ByLayer
100
AcDbCircle
 10
16.97
 20
6.26
 30
0.0
 40
0.13
  0
LINE
  5
237
330
1F
100
AcDbEntity
  8
ELEC_CANALIZACION
  6
ByLayer
100
AcDbLine
 10
16.97
 20
6.223599999999999
 30
0.0
 11
16.97
 21
6.3146
 31
0.0
  0
LINE
  5
238
330
1F
100
AcDbEntity
  8
ELEC_CANALIZACION
  6
ByLayer
100
AcDbLine
 10
16.97
 20
6.3419
 30
0.0
 11
16.944
 21
6.3146
 31
0.0
  0
LINE
  5
239
330
1F
100
AcDbEntity
  8
ELEC_CANALIZACION
  6
ByLayer
100
AcDbLine
 10
16.97
 20
6.3419
 30
0.0
 11
16.996
 21
6.3146
 31
0.0
  0
LINE
  5
23A
330
1F
100
AcDbEntity
  8
ELEC_CANALIZACION
  6
ByLayer
100
AcDbLine
 10
16.905
 20
6.221
 30
0.0
 11
17.035
 21
6.221
 31
0.0
  0
TEXT
  5
23B
330
1F
100
AcDbEntity
  8
ELEC_TEXTOS
  6
ByLayer
100
AcDbText
 10
7.5
 20
10.85
 30
0.0
 40
0.28
  1
PLANO ELECTRICO - PISO 2 V4
  7
STANDARD
 72
1
 11
7.5
 21
10.85
 31
0.0
100
AcDbText
 73
2
  0
TEXT
  5
23C
330
1F
100
AcDbEntity
  8
ELEC_TEXTOS
  6
ByLayer
100
AcDbText
 10
19.48
 20
1.8
 30
0.0
 40
0.095
  1
NOTA: Toda la instalacion de tomacorrientes es MONOFASICA (220V).
  7
STANDARD
 72
1
 11
19.48
 21
1.8
 31
0.0
100
AcDbText
 73
2
  0
TEXT
  5
23D
330
1F
100
AcDbEntity
  8
ELEC_TEXTOS
  6
ByLayer
100
AcDbText
 10
19.48
 20
1.65
 30
0.0
 40
0.095
  1
No existen tomacorrientes trifasicos en esta vivienda.
  7
STANDARD
 72
1
 11
19.48
 21
1.65
 31
0.0
100
AcDbText
 73
2
  0
CIRCLE
  5
23E
330
1F
100
AcDbEntity
  8
ELEC_TOMACORRIENTES
  6
ByLayer
100
AcDbCircle
 10
5.683639338065971
 20
5.926762664376054
 30
0.0
 40
0.13
  0
LINE
  5
23F
330
1F
100
AcDbEntity
  8
ELEC_TOMACORRIENTES
  6
ByLayer
100
AcDbLine
 10
5.603039338065972
 20
5.881762664376054
 30
0.0
 11
5.764239338065971
 21
5.881762664376054
 31
0.0
  0
LINE
  5
240
330
1F
100
AcDbEntity
  8
ELEC_TOMACORRIENTES
  6
ByLayer
100
AcDbLine
 10
5.603039338065972
 20
5.971762664376054
 30
0.0
 11
5.764239338065971
 21
5.971762664376054
 31
0.0
  0
LWPOLYLINE
  5
241
330
1F
100
AcDbEntity
  8
ELEC_CIRCUITO_C7
  6
DASHED
100
AcDbPolyline
 90
5
 70
0
 10
12.55
 20
4.25
 10
12.55
 20
3.8
 10
8.2
 20
3.8
 10
5.686542059143807
 20
3.783793253094416
 10
5.683639338065971
 20
5.926762664376054
  0
TEXT
  5
242
330
1F
100
AcDbEntity
  8
ELEC_TEXTOS
  6
ByLayer
100
AcDbText
 10
5.309247051368333
 20
5.787199227623152
 30
0.0
 40
0.14
  1
C7
  7
STANDARD
 11
5.309247051368333
 21
5.787199227623152
 31
0.0
100
AcDbText
 73
2
  0
TEXT
  5
243
330
1F
100
AcDbEntity
  8
ELEC_TEXTOS
  6
ByLayer
100
AcDbText
 10
5.309247051368333
 20
5.587199227623151
 30
0.0
 40
0.14
  1
lavadora
  7
STANDARD
 11
5.309247051368333
 21
5.587199227623151
 31
0.0
100
AcDbText
 73
2
  0
TEXT
  5
244
330
1F
100
AcDbEntity
  8
ELEC_TEXTOS
  6
ByLayer
100
AcDbText
 10
5.831112851917899
 20
5.789533596507091
 30
0.0
 40
0.09
  1
L
  7
STANDARD
 11
5.831112851917899
 21
5.789533596507091
 31
0.0
100
AcDbText
 73
2
  0
TEXT
  5
245
330
1F
100
AcDbEntity
  8
ARQ_TEXTOS
  6
ByLayer
100
AcDbText
 10
1.047898426419067
 20
7.142301989601027
 30
0.0
 40
0.21
  1
ESCALERA
  7
STANDARD
 72
1
 11
1.047898426419067
 21
7.142301989601027
 31
0.0
100
AcDbText
 73
2
  0
LWPOLYLINE
  5
246
330
1F
100
AcDbEntity
  8
ELEC_CIRCUITO_C4
  6
DASHED
370
18
100
AcDbPolyline
 90
3
 70
0
 10
1.5
 20
4.88
 10
1.5
 20
4.88
 10
1.5
 20
8.234178014717275
  0
CIRCLE
  5
247
330
1F
100
AcDbEntity
  8
ELEC_LUMINARIAS
  6
ByLayer
100
AcDbCircle
 10
1.501418283144656
 20
8.242572230371543
 30
0.0
 40
0.18
  0
TEXT
  5
24A
330
1F
100
AcDbEntity
  8
ELEC_TEXTOS
  6
ByLayer
100
AcDbText
 10
19.10758024658313
 20
7.275009039052694
 30
0.0
 40
0.115
  1
Toma especial monofasica (cocina/servicio)
  7
STANDARD
 72
1
 11
19.10758024658313
 21
7.275009039052694
 31
0.0
100
AcDbText
 73
2
  0
TEXT
  5
24B
330
1F
100
AcDbEntity
  8
ELEC_TEXTOS
  6
ByLayer
100
AcDbText
 10
18.88898158477497
 20
6.996873402244574
 30
0.0
 40
0.115
  1
Salida especial monofasica (lavadora)
  7
STANDARD
 72
1
 11
18.88898158477497
 21
6.996873402244574
 31
0.0
100
AcDbText
 73
2
  0
LINE
  5
20012
330
1F
100
AcDbEntity
  8
ELEC_LUMINARIAS
100
AcDbLine
 10
3.82274
 20
6.022740000000001
 30
0.0
 11
4.07726
 21
6.27726
 31
0.0
  0
LINE
  5
20013
330
1F
100
AcDbEntity
  8
ELEC_LUMINARIAS
100
AcDbLine
 10
3.82274
 20
6.27726
 30
0.0
 11
4.07726
 21
6.022740000000001
 31
0.0
  0
LINE
  5
20014
330
1F
100
AcDbEntity
  8
ELEC_LUMINARIAS
100
AcDbLine
 10
5.022740000000001
 20
7.522740000000001
 30
0.0
 11
5.27726
 21
7.77726
 31
0.0
  0
LINE
  5
20015
330
1F
100
AcDbEntity
  8
ELEC_LUMINARIAS
100
AcDbLine
 10
5.022740000000001
 20
7.77726
 30
0.0
 11
5.27726
 21
7.522740000000001
 31
0.0
  0
LINE
  5
20016
330
1F
100
AcDbEntity
  8
ELEC_LUMINARIAS
100
AcDbLine
 10
7.37274
 20
6.62274
 30
0.0
 11
7.62726
 21
6.87726
 31
0.0
  0
LINE
  5
20017
330
1F
100
AcDbEntity
  8
ELEC_LUMINARIAS
100
AcDbLine
 10
7.37274
 20
6.87726
 30
0.0
 11
7.62726
 21
6.62274
 31
0.0
  0
LINE
  5
20018
330
1F
100
AcDbEntity
  8
ELEC_LUMINARIAS
100
AcDbLine
 10
10.37274
 20
6.62274
 30
0.0
 11
10.62726
 21
6.87726
 31
0.0
  0
LINE
  5
20019
330
1F
100
AcDbEntity
  8
ELEC_LUMINARIAS
100
AcDbLine
 10
10.37274
 20
6.87726
 30
0.0
 11
10.62726
 21
6.62274
 31
0.0
  0
LINE
  5
2001A
330
1F
100
AcDbEntity
  8
ELEC_LUMINARIAS
100
AcDbLine
 10
12.97274
 20
6.12274
 30
0.0
 11
13.22726
 21
6.37726
 31
0.0
  0
LINE
  5
2001B
330
1F
100
AcDbEntity
  8
ELEC_LUMINARIAS
100
AcDbLine
 10
12.97274
 20
6.37726
 30
0.0
 11
13.22726
 21
6.12274
 31
0.0
  0
LINE
  5
2001C
330
1F
100
AcDbEntity
  8
ELEC_LUMINARIAS
100
AcDbLine
 10
13.97274
 20
7.47274
 30
0.0
 11
14.22726
 21
7.727259999999999
 31
0.0
  0
LINE
  5
2001D
330
1F
100
AcDbEntity
  8
ELEC_LUMINARIAS
100
AcDbLine
 10
13.97274
 20
7.727259999999999
 30
0.0
 11
14.22726
 21
7.47274
 31
0.0
  0
LINE
  5
2001E
330
1F
100
AcDbEntity
  8
ELEC_LUMINARIAS
100
AcDbLine
 10
8.12274
 20
1.4227400000000001
 30
0.0
 11
8.37726
 21
1.67726
 31
0.0
  0
LINE
  5
2001F
330
1F
100
AcDbEntity
  8
ELEC_LUMINARIAS
100
AcDbLine
 10
8.12274
 20
1.67726
 30
0.0
 11
8.37726
 21
1.4227400000000001
 31
0.0
  0
LINE
  5
20020
330
1F
100
AcDbEntity
  8
ELEC_LUMINARIAS
100
AcDbLine
 10
11.57274
 20
1.4227400000000001
 30
0.0
 11
11.827259999999999
 21
1.67726
 31
0.0
  0
LINE
  5
20021
330
1F
100
AcDbEntity
  8
ELEC_LUMINARIAS
100
AcDbLine
 10
11.57274
 20
1.67726
 30
0.0
 11
11.827259999999999
 21
1.4227400000000001
 31
0.0
  0
LINE
  5
20022
330
1F
100
AcDbEntity
  8
ELEC_LUMINARIAS
100
AcDbLine
 10
13.87274
 20
3.62274
 30
0.0
 11
14.12726
 21
3.87726
 31
0.0
  0
LINE
  5
20023
330
1F
100
AcDbEntity
  8
ELEC_LUMINARIAS
100
AcDbLine
 10
13.87274
 20
3.87726
 30
0.0
 11
14.12726
 21
3.62274
 31
0.0
  0
LINE
  5
20024
330
1F
100
AcDbEntity
  8
ELEC_LUMINARIAS
100
AcDbLine
 10
4.699839822809713
 20
3.659007618821277
 30
0.0
 11
4.954359822809712
 21
3.913527618821277
 31
0.0
  0
LINE
  5
20025
330
1F
100
AcDbEntity
  8
ELEC_LUMINARIAS
100
AcDbLine
 10
4.699839822809713
 20
3.913527618821277
 30
0.0
 11
4.954359822809712
 21
3.659007618821277
 31
0.0
  0
LINE
  5
20026
330
1F
100
AcDbEntity
  8
ELEC_LUMINARIAS
100
AcDbLine
 10
16.88516
 20
8.215160000000001
 30
0.0
 11
17.05484
 21
8.38484
 31
0.0
  0
LINE
  5
20027
330
1F
100
AcDbEntity
  8
ELEC_LUMINARIAS
100
AcDbLine
 10
16.88516
 20
8.38484
 30
0.0
 11
17.05484
 21
8.215160000000001
 31
0.0
  0
LINE
  5
20028
330
1F
100
AcDbEntity
  8
ELEC_LUMINARIAS
100
AcDbLine
 10
1.3741582831446562
 20
8.115312230371543
 30
0.0
 11
1.628678283144656
 21
8.369832230371543
 31
0.0
  0
LINE
  5
20029
330
1F
100
AcDbEntity
  8
ELEC_LUMINARIAS
100
AcDbLine
 10
1.3741582831446562
 20
8.369832230371543
 30
0.0
 11
1.628678283144656
 21
8.115312230371543
 31
0.0
  0
TEXT
  5
2002B
330
1F
100
AcDbEntity
  8
ELEC_PUESTA_TIERRA
100
AcDbText
 10
2.65
 20
4.45
 30
0.0
 40
0.1
  1
PE (desde SPAT P1)
 72
1
 11
2.65
 21
4.45
 31
0.0
100
AcDbText
 73
2
  0
ENDSEC
  0
SECTION
  2
OBJECTS
  0
DICTIONARY
  5
C
330
0
100
AcDbDictionary
281
1
  3
ACAD_GROUP
350
D
  3
ACAD_COLOR
350
20000
  3
ACAD_LAYOUT
350
20001
  3
ACAD_MATERIAL
350
20002
  3
ACAD_MLEADERSTYLE
350
20003
  3
ACAD_MLINESTYLE
350
20004
  3
ACAD_PLOTSETTINGS
350
20005
  3
ACAD_PLOTSTYLENAME
350
20006
  3
ACAD_SCALELIST
350
20008
  3
ACAD_TABLESTYLE
350
20009
  3
ACAD_VISUALSTYLE
350
2000A
  3
EZDXF_META
350
2002E
  0
DICTIONARY
  5
D
330
C
100
AcDbDictionary
281
1
  0
PLOTSETTINGS
  5
24C
330
0
100
AcDbPlotSettings
  1

  4
A3
  6
1x1
 40
0.0
 41
0.0
 42
0.0
 43
0.0
 44
420.0
 45
297.0
 46
0.0
 47
0.0
 48
0.0
 49
0.0
140
0.0
141
0.0
142
1.0
143
1.0
 70
688
 72
1
 73
0
 74
5
  7

 75
16
 76
0
 77
2
 78
300
147
1.0
148
0.0
149
0.0
  0
DICTIONARY
  5
20000
330
C
100
AcDbDictionary
281
1
  0
DICTIONARY
  5
20001
330
C
100
AcDbDictionary
281
1
  3
Model
350
2000B
  3
Layout1
350
2000C
  0
DICTIONARY
  5
20002
330
C
100
AcDbDictionary
281
1
  3
ByBlock
350
2000D
  3
ByLayer
350
2000E
  3
Global
350
2000F
  0
DICTIONARY
  5
20003
330
C
100
AcDbDictionary
281
1
  3
Standard
350
20011
  0
DICTIONARY
  5
20004
330
C
100
AcDbDictionary
281
1
  3
Standard
350
20010
  0
DICTIONARY
  5
20005
330
C
100
AcDbDictionary
281
1
  0
ACDBDICTIONARYWDFLT
  5
20006
330
C
100
AcDbDictionary
281
1
  3
Normal
350
20007
100
AcDbDictionaryWithDefault
340
20007
  0
ACDBPLACEHOLDER
  5
20007
330
20006
  0
DICTIONARY
  5
20008
330
C
100
AcDbDictionary
281
1
  0
DICTIONARY
  5
20009
330
C
100
AcDbDictionary
281
1
  0
DICTIONARY
  5
2000A
330
C
100
AcDbDictionary
281
1
  0
LAYOUT
  5
2000B
330
20001
100
AcDbPlotSettings
  1

  4
A3
  6

 40
7.5
 41
20.0
 42
7.5
 43
20.0
 44
420.0
 45
297.0
 46
0.0
 47
0.0
 48
0.0
 49
0.0
140
0.0
141
0.0
142
1.0
143
1.0
 70
1024
 72
1
 73
0
 74
5
  7

 75
16
 76
0
 77
2
 78
300
147
1.0
148
0.0
149
0.0
100
AcDbLayout
  1
Model
 70
1
 71
0
 10
0.0
 20
0.0
 11
420.0
 21
297.0
 12
0.0
 22
0.0
 32
0.0
 14
1e+20
 24
1e+20
 34
1e+20
 15
-1e+20
 25
-1e+20
 35
-1e+20
146
0.0
 13
0.0
 23
0.0
 33
0.0
 16
1.0
 26
0.0
 36
0.0
 17
0.0
 27
1.0
 37
0.0
 76
1
330
1F
  0
LAYOUT
  5
2000C
330
20001
100
AcDbPlotSettings
  1

  4
A3
  6

 40
7.5
 41
20.0
 42
7.5
 43
20.0
 44
420.0
 45
297.0
 46
0.0
 47
0.0
 48
0.0
 49
0.0
140
0.0
141
0.0
142
1.0
143
1.0
 70
0
 72
1
 73
0
 74
5
  7

 75
16
 76
0
 77
2
 78
300
147
1.0
148
0.0
149
0.0
100
AcDbLayout
  1
Layout1
 70
1
 71
1
 10
0.0
 20
0.0
 11
420.0
 21
297.0
 12
0.0
 22
0.0
 32
0.0
 14
1e+20
 24
1e+20
 34
1e+20
 15
-1e+20
 25
-1e+20
 35
-1e+20
146
0.0
 13
0.0
 23
0.0
 33
0.0
 16
1.0
 26
0.0
 36
0.0
 17
0.0
 27
1.0
 37
0.0
 76
1
330
1E
  0
MATERIAL
  5
2000D
102
{ACAD_REACTORS
330
20002
102
}
330
20002
100
AcDbMaterial
  1
ByBlock
  2

 70
0
 40
1.0
 71
1
 41
1.0
 91
-1023410177
 42
1.0
 72
1
  3

 73
1
 74
1
 75
1
 44
0.5
 73
0
 45
1.0
 46
1.0
 77
1
  4

 78
1
 79
1
170
1
 48
1.0
171
1
  6

172
1
173
1
174
1
140
1.0
141
1.0
175
1
  7

176
1
177
1
178
1
143
1.0
179
1
  8

270
1
271
1
272
1
145
1.0
146
1.0
273
1
  9

274
1
275
1
276
1
 42
1.0
 72
1
  3

 73
1
 74
1
 75
1
 94
63
  0
MATERIAL
  5
2000E
102
{ACAD_REACTORS
330
20002
102
}
330
20002
100
AcDbMaterial
  1
ByLayer
  2

 70
0
 40
1.0
 71
1
 41
1.0
 91
-1023410177
 42
1.0
 72
1
  3

 73
1
 74
1
 75
1
 44
0.5
 73
0
 45
1.0
 46
1.0
 77
1
  4

 78
1
 79
1
170
1
 48
1.0
171
1
  6

172
1
173
1
174
1
140
1.0
141
1.0
175
1
  7

176
1
177
1
178
1
143
1.0
179
1
  8

270
1
271
1
272
1
145
1.0
146
1.0
273
1
  9

274
1
275
1
276
1
 42
1.0
 72
1
  3

 73
1
 74
1
 75
1
 94
63
  0
MATERIAL
  5
2000F
102
{ACAD_REACTORS
330
20002
102
}
330
20002
100
AcDbMaterial
  1
Global
  2

 70
0
 40
1.0
 71
1
 41
1.0
 91
-1023410177
 42
1.0
 72
1
  3

 73
1
 74
1
 75
1
 44
0.5
 73
0
 45
1.0
 46
1.0
 77
1
  4

 78
1
 79
1
170
1
 48
1.0
171
1
  6

172
1
173
1
174
1
140
1.0
141
1.0
175
1
  7

176
1
177
1
178
1
143
1.0
179
1
  8

270
1
271
1
272
1
145
1.0
146
1.0
273
1
  9

274
1
275
1
276
1
 42
1.0
 72
1
  3

 73
1
 74
1
 75
1
 94
63
  0
MLINESTYLE
  5
20010
102
{ACAD_REACTORS
330
20004
102
}
330
20004
100
AcDbMlineStyle
  2
Standard
 70
0
  3

 62
256
 51
90.0
 52
90.0
 71
2
 49
0.5
 62
256
  6
BYLAYER
 49
-0.5
 62
256
  6
BYLAYER
  0
MLEADERSTYLE
  5
20011
102
{ACAD_REACTORS
330
20003
102
}
330
20003
100
AcDbMLeaderStyle
179
2
170
2
171
1
172
0
 90
2
 40
0.0
 41
0.0
173
1
 91
-1056964608
 92
-2
290
1
 42
2.0
291
1
 43
8.0
  3
Standard
 44
4.0
300

342
6E
174
1
175
1
176
0
178
1
 93
-1056964608
 45
4.0
292
0
297
0
 46
4.0
 94
-1056964608
 47
1.0
 49
1.0
140
1.0
294
1
141
0.0
177
0
142
1.0
295
0
296
0
143
3.75
271
0
272
9
273
9
  0
DICTIONARY
  5
2002E
330
C
100
AcDbDictionary
280
1
281
1
  3
WRITTEN_BY_EZDXF
350
2002F
  0
DICTIONARYVAR
  5
2002F
330
2002E
100
DictionaryVariables
280
0
  1
1.4.4 @ 2026-06-08T19:58:28.957920+00:00
  0
ENDSEC
  0
EOF
